<svg width="430" height="227" viewBox="0 0 430 227" fill="none" xmlns="http://www.w3.org/2000/svg">
<g clip-path="url(#clip0_412_570)">
<rect width="480" height="227" transform="translate(-25)" fill="#B22D30"/>
<ellipse cx="3" cy="140.5" rx="68" ry="68.5" fill="#BF4F51"/>
<path d="M42.6961 149.747H76.1769C76.568 149.747 76.9587 149.771 77.3466 149.821C77.2151 148.898 76.898 148.011 76.4145 147.214C75.931 146.417 75.2911 145.726 74.5333 145.183C73.7755 144.639 72.9155 144.255 72.0053 144.053C71.095 143.852 70.1533 143.836 69.2369 144.008L41.7022 148.709H41.6708C39.9424 149.039 38.4054 150.017 37.3738 151.443C38.9281 150.337 40.7887 149.744 42.6961 149.747ZM76.1769 152.258H42.6961C40.9208 152.26 39.2187 152.966 37.9634 154.221C36.708 155.477 36.0019 157.179 36 158.954V179.042C36.0019 180.818 36.708 182.52 37.9634 183.775C39.2187 185.031 40.9208 185.737 42.6961 185.739H76.1769C77.9522 185.737 79.6543 185.031 80.9096 183.775C82.165 182.52 82.8711 180.818 82.873 179.042V158.954C82.8711 157.179 82.165 155.477 80.9096 154.221C79.6543 152.966 77.9522 152.26 76.1769 152.258ZM71.2071 172.346C70.5449 172.346 69.8976 172.15 69.347 171.782C68.7964 171.414 68.3673 170.891 68.1139 170.28C67.8605 169.668 67.7942 168.995 67.9233 168.345C68.0525 167.696 68.3714 167.099 68.8396 166.631C69.3079 166.163 69.9044 165.844 70.5539 165.715C71.2034 165.585 71.8766 165.652 72.4883 165.905C73.1001 166.158 73.623 166.588 73.9909 167.138C74.3588 167.689 74.5552 168.336 74.5552 168.998C74.5552 169.886 74.2024 170.738 73.5745 171.366C72.9466 171.994 72.095 172.346 71.2071 172.346Z" fill="#E1E1E1"/>
<path d="M36.0522 166.016V155.606C36.0522 153.339 37.3078 149.538 41.6655 148.714C45.3641 148.021 49.026 148.021 49.026 148.021C49.026 148.021 51.4325 149.695 49.4445 149.695C47.4566 149.695 47.5089 152.258 49.4445 152.258C51.3801 152.258 49.4445 154.717 49.4445 154.717L41.6498 163.558L36.0522 166.016Z" fill="#E1E1E1"/>
<path d="M63.8951 112.514C64.0267 112.241 64.0358 111.923 63.9205 111.63C63.8052 111.336 63.5748 111.092 63.2801 110.949C62.9855 110.807 62.6506 110.779 62.3492 110.872C62.0478 110.964 61.8045 111.169 61.6729 111.442L59.1924 116.584L55.8591 114.976C55.5644 114.834 55.2295 114.806 54.9281 114.898C54.6267 114.991 54.3834 115.196 54.2518 115.469C54.1203 115.741 54.1111 116.06 54.2265 116.353C54.3418 116.646 54.5722 116.891 54.8668 117.033L59.3113 119.177C59.606 119.319 59.9408 119.347 60.2423 119.255C60.5437 119.162 60.7869 118.957 60.9185 118.685L63.8951 112.514Z" fill="#E1E1E1"/>
<path d="M46.6855 132.103C44.641 131.116 43.7212 128.781 44.6351 126.887L46.4806 123.061C45.6406 121.229 45.2059 119.271 45.2048 117.316C45.2037 115.361 45.6363 113.453 46.4744 111.716C48.2375 108.061 51.5377 105.604 55.356 104.662L57.2025 100.834C58.1154 98.9417 60.5143 98.2048 62.561 99.1921L72.9298 104.194C74.9743 105.18 75.8941 107.515 74.9802 109.41L73.1347 113.236C74.4911 116.193 74.7766 119.443 73.944 122.45C74.1144 122.503 74.2731 122.589 74.4089 122.704C74.5448 122.819 74.6548 122.959 74.7312 123.115C74.8076 123.27 74.8487 123.438 74.8516 123.606C74.8545 123.774 74.8192 123.938 74.7482 124.088L73.7559 126.144C73.6838 126.294 73.5775 126.424 73.4443 126.527C73.3111 126.63 73.1543 126.702 72.9847 126.739C72.8151 126.776 72.6367 126.777 72.4621 126.742C72.2875 126.707 72.1207 126.636 71.9734 126.535C70.1386 129.058 67.4176 130.857 64.2583 131.637L62.4128 135.462C61.5 137.355 59.101 138.092 57.0543 137.104L46.6855 132.103ZM70.9187 123.508C72.2345 120.78 72.3257 117.6 71.1724 114.666C70.019 111.732 67.7156 109.285 64.7687 107.864C61.8219 106.442 58.4731 106.162 55.459 107.086C52.4448 108.01 50.0123 110.061 48.6966 112.788C47.3808 115.516 47.2896 118.697 48.4429 121.631C49.5963 124.564 51.8997 127.011 54.8466 128.433C57.7934 129.854 61.1422 130.134 64.1563 129.21C67.1705 128.287 69.603 126.236 70.9187 123.508Z" fill="#E1E1E1"/>
<path d="M124.525 105.797L97.303 112.574C94.0947 113.372 92.1244 116.656 92.9246 119.87L105.534 170.518C106.334 173.732 109.614 175.708 112.822 174.91L140.044 168.133C143.252 167.334 145.222 164.051 144.422 160.836L131.813 110.188C131.013 106.974 127.733 104.998 124.525 105.797ZM103.864 114.043L119.419 110.171L119.904 112.119L104.349 115.991L103.864 114.043ZM125.463 167.625C124.432 167.882 123.34 167.718 122.429 167.169C121.518 166.62 120.861 165.731 120.604 164.697C120.347 163.664 120.51 162.571 121.057 161.659C121.605 160.747 122.492 160.09 123.523 159.833C124.554 159.576 125.646 159.741 126.557 160.29C127.468 160.839 128.125 161.728 128.382 162.761C128.639 163.794 128.476 164.887 127.929 165.799C127.381 166.712 126.494 167.368 125.463 167.625ZM138.109 152.065L106.998 159.81L97.2984 120.85L128.409 113.105L138.109 152.065Z" fill="#E1E1E1"/>
<path d="M177.509 115.192C176.869 115.224 176.373 115.064 176.021 114.712C175.685 114.344 175.517 113.88 175.517 113.32C175.517 112.888 175.637 112.512 175.877 112.192C176.117 111.872 176.477 111.696 176.957 111.664L177.629 111.616C178.205 111.584 178.629 111.448 178.901 111.208C179.173 110.952 179.309 110.536 179.309 109.96V100.096C179.309 99.36 179.501 98.808 179.885 98.44C180.269 98.056 180.813 97.864 181.517 97.864C182.221 97.864 182.765 98.056 183.149 98.44C183.533 98.808 183.725 99.36 183.725 100.096V109.888C183.725 110.992 183.525 111.928 183.125 112.696C182.725 113.448 182.125 114.032 181.325 114.448C180.541 114.848 179.557 115.08 178.373 115.144L177.509 115.192ZM190.581 115.264C189.669 115.264 188.861 115.096 188.157 114.76C187.469 114.424 186.925 113.968 186.525 113.392C186.141 112.8 185.949 112.128 185.949 111.376C185.949 110.512 186.173 109.832 186.621 109.336C187.069 108.84 187.789 108.488 188.781 108.28C189.773 108.056 191.093 107.944 192.741 107.944H194.061V109.96H192.741C192.117 109.96 191.597 110.008 191.181 110.104C190.781 110.184 190.485 110.32 190.293 110.512C190.101 110.688 190.005 110.92 190.005 111.208C190.005 111.576 190.133 111.88 190.389 112.12C190.661 112.36 191.045 112.48 191.541 112.48C191.941 112.48 192.293 112.392 192.597 112.216C192.917 112.04 193.173 111.8 193.365 111.496C193.557 111.176 193.653 110.808 193.653 110.392V107.608C193.653 107.032 193.501 106.624 193.197 106.384C192.909 106.144 192.405 106.024 191.685 106.024C191.301 106.024 190.869 106.072 190.389 106.168C189.909 106.248 189.373 106.4 188.781 106.624C188.349 106.784 187.981 106.808 187.677 106.696C187.373 106.584 187.133 106.392 186.957 106.12C186.797 105.848 186.717 105.552 186.717 105.232C186.733 104.912 186.837 104.608 187.029 104.32C187.237 104.032 187.549 103.808 187.965 103.648C188.733 103.36 189.437 103.168 190.077 103.072C190.733 102.976 191.333 102.928 191.877 102.928C193.189 102.928 194.269 103.12 195.117 103.504C195.981 103.872 196.621 104.448 197.037 105.232C197.469 106 197.685 106.992 197.685 108.208V113.056C197.685 113.76 197.517 114.296 197.181 114.664C196.845 115.032 196.357 115.216 195.717 115.216C195.061 115.216 194.557 115.032 194.205 114.664C193.869 114.296 193.701 113.76 193.701 113.056V112.432L193.845 112.768C193.765 113.28 193.581 113.72 193.293 114.088C193.005 114.456 192.629 114.744 192.165 114.952C191.701 115.16 191.173 115.264 190.581 115.264ZM205.973 119.584C205.093 119.584 204.269 119.52 203.501 119.392C202.733 119.28 202.069 119.112 201.509 118.888C201.045 118.728 200.717 118.496 200.525 118.192C200.333 117.888 200.245 117.568 200.261 117.232C200.277 116.896 200.365 116.592 200.525 116.32C200.701 116.048 200.933 115.848 201.221 115.72C201.509 115.608 201.829 115.616 202.181 115.744C202.885 116.032 203.525 116.216 204.101 116.296C204.677 116.392 205.165 116.44 205.565 116.44C206.541 116.44 207.269 116.232 207.749 115.816C208.245 115.416 208.493 114.784 208.493 113.92V112.408H208.685C208.445 113.08 207.957 113.632 207.221 114.064C206.485 114.48 205.685 114.688 204.821 114.688C203.765 114.688 202.845 114.448 202.061 113.968C201.277 113.472 200.661 112.784 200.213 111.904C199.781 111.024 199.565 109.992 199.565 108.808C199.565 107.912 199.693 107.104 199.949 106.384C200.205 105.664 200.557 105.048 201.005 104.536C201.469 104.024 202.021 103.632 202.661 103.36C203.317 103.072 204.037 102.928 204.821 102.928C205.717 102.928 206.517 103.136 207.221 103.552C207.941 103.968 208.421 104.512 208.661 105.184L208.421 106.168V105.112C208.421 104.424 208.605 103.896 208.973 103.528C209.357 103.16 209.885 102.976 210.557 102.976C211.229 102.976 211.741 103.16 212.093 103.528C212.461 103.896 212.645 104.424 212.645 105.112V113.416C212.645 115.464 212.069 117 210.917 118.024C209.765 119.064 208.117 119.584 205.973 119.584ZM206.141 111.544C206.621 111.544 207.029 111.44 207.365 111.232C207.701 111.008 207.965 110.696 208.157 110.296C208.349 109.88 208.445 109.384 208.445 108.808C208.445 107.944 208.237 107.272 207.821 106.792C207.405 106.312 206.845 106.072 206.141 106.072C205.693 106.072 205.293 106.184 204.941 106.408C204.589 106.616 204.317 106.928 204.125 107.344C203.949 107.744 203.861 108.232 203.861 108.808C203.861 109.672 204.069 110.344 204.485 110.824C204.901 111.304 205.453 111.544 206.141 111.544ZM219.245 115.264C218.333 115.264 217.525 115.096 216.821 114.76C216.133 114.424 215.589 113.968 215.189 113.392C214.805 112.8 214.613 112.128 214.613 111.376C214.613 110.512 214.837 109.832 215.285 109.336C215.733 108.84 216.453 108.488 217.445 108.28C218.437 108.056 219.757 107.944 221.405 107.944H222.725V109.96H221.405C220.781 109.96 220.261 110.008 219.845 110.104C219.445 110.184 219.149 110.32 218.957 110.512C218.765 110.688 218.669 110.92 218.669 111.208C218.669 111.576 218.797 111.88 219.053 112.12C219.325 112.36 219.709 112.48 220.205 112.48C220.605 112.48 220.957 112.392 221.261 112.216C221.581 112.04 221.837 111.8 222.029 111.496C222.221 111.176 222.317 110.808 222.317 110.392V107.608C222.317 107.032 222.165 106.624 221.861 106.384C221.573 106.144 221.069 106.024 220.349 106.024C219.965 106.024 219.533 106.072 219.053 106.168C218.573 106.248 218.037 106.4 217.445 106.624C217.013 106.784 216.645 106.808 216.341 106.696C216.037 106.584 215.797 106.392 215.621 106.12C215.461 105.848 215.381 105.552 215.381 105.232C215.397 104.912 215.501 104.608 215.693 104.32C215.901 104.032 216.213 103.808 216.629 103.648C217.397 103.36 218.101 103.168 218.741 103.072C219.397 102.976 219.997 102.928 220.541 102.928C221.853 102.928 222.933 103.12 223.781 103.504C224.645 103.872 225.285 104.448 225.701 105.232C226.133 106 226.349 106.992 226.349 108.208V113.056C226.349 113.76 226.181 114.296 225.845 114.664C225.509 115.032 225.021 115.216 224.381 115.216C223.725 115.216 223.221 115.032 222.869 114.664C222.533 114.296 222.365 113.76 222.365 113.056V112.432L222.509 112.768C222.429 113.28 222.245 113.72 221.957 114.088C221.669 114.456 221.293 114.744 220.829 114.952C220.365 115.16 219.837 115.264 219.245 115.264ZM233.269 115.264C231.733 115.264 230.597 114.856 229.861 114.04C229.141 113.208 228.781 111.96 228.781 110.296V100.024C228.781 99.32 228.965 98.784 229.333 98.416C229.701 98.048 230.221 97.864 230.893 97.864C231.581 97.864 232.109 98.048 232.477 98.416C232.861 98.784 233.053 99.32 233.053 100.024V110.152C233.053 110.744 233.165 111.176 233.389 111.448C233.629 111.72 233.933 111.856 234.301 111.856C234.413 111.856 234.525 111.848 234.637 111.832C234.765 111.8 234.901 111.776 235.045 111.76C235.317 111.76 235.517 111.864 235.645 112.072C235.789 112.28 235.861 112.704 235.861 113.344C235.861 113.904 235.749 114.328 235.525 114.616C235.301 114.888 234.957 115.064 234.493 115.144C234.365 115.16 234.181 115.184 233.941 115.216C233.701 115.248 233.477 115.264 233.269 115.264ZM241.229 115.264C240.317 115.264 239.509 115.096 238.805 114.76C238.117 114.424 237.573 113.968 237.173 113.392C236.789 112.8 236.597 112.128 236.597 111.376C236.597 110.512 236.821 109.832 237.269 109.336C237.717 108.84 238.437 108.488 239.429 108.28C240.421 108.056 241.741 107.944 243.389 107.944H244.709V109.96H243.389C242.765 109.96 242.245 110.008 241.829 110.104C241.429 110.184 241.133 110.32 240.941 110.512C240.749 110.688 240.653 110.92 240.653 111.208C240.653 111.576 240.781 111.88 241.037 112.12C241.309 112.36 241.693 112.48 242.189 112.48C242.589 112.48 242.941 112.392 243.245 112.216C243.565 112.04 243.821 111.8 244.013 111.496C244.205 111.176 244.301 110.808 244.301 110.392V107.608C244.301 107.032 244.149 106.624 243.845 106.384C243.557 106.144 243.053 106.024 242.333 106.024C241.949 106.024 241.517 106.072 241.037 106.168C240.557 106.248 240.021 106.4 239.429 106.624C238.997 106.784 238.629 106.808 238.325 106.696C238.021 106.584 237.781 106.392 237.605 106.12C237.445 105.848 237.365 105.552 237.365 105.232C237.381 104.912 237.485 104.608 237.677 104.32C237.885 104.032 238.197 103.808 238.613 103.648C239.381 103.36 240.085 103.168 240.725 103.072C241.381 102.976 241.981 102.928 242.525 102.928C243.837 102.928 244.917 103.12 245.765 103.504C246.629 103.872 247.269 104.448 247.685 105.232C248.117 106 248.333 106.992 248.333 108.208V113.056C248.333 113.76 248.165 114.296 247.829 114.664C247.493 115.032 247.005 115.216 246.365 115.216C245.709 115.216 245.205 115.032 244.853 114.664C244.517 114.296 244.349 113.76 244.349 113.056V112.432L244.493 112.768C244.413 113.28 244.229 113.72 243.941 114.088C243.653 114.456 243.277 114.744 242.813 114.952C242.349 115.16 241.821 115.264 241.229 115.264ZM252.878 115.216C252.206 115.216 251.686 115.032 251.318 114.664C250.95 114.296 250.766 113.76 250.766 113.056V100.024C250.766 99.32 250.95 98.784 251.318 98.416C251.686 98.048 252.206 97.864 252.878 97.864C253.566 97.864 254.094 98.048 254.462 98.416C254.846 98.784 255.038 99.32 255.038 100.024V105.256H254.654C255.038 104.504 255.582 103.928 256.286 103.528C257.006 103.128 257.822 102.928 258.734 102.928C259.678 102.928 260.454 103.112 261.062 103.48C261.67 103.832 262.126 104.392 262.43 105.16C262.734 105.912 262.886 106.864 262.886 108.016V113.056C262.886 113.76 262.702 114.296 262.334 114.664C261.966 115.032 261.438 115.216 260.75 115.216C260.062 115.216 259.534 115.032 259.166 114.664C258.798 114.296 258.614 113.76 258.614 113.056V108.184C258.614 107.464 258.486 106.952 258.23 106.648C257.99 106.344 257.63 106.192 257.15 106.192C256.51 106.192 255.998 106.4 255.614 106.816C255.23 107.216 255.038 107.76 255.038 108.448V113.056C255.038 114.496 254.318 115.216 252.878 115.216ZM184.901 148.264C183.989 148.264 183.173 148.048 182.453 147.616C181.749 147.168 181.285 146.584 181.061 145.864L181.325 144.88V146.056C181.325 146.76 181.141 147.296 180.773 147.664C180.421 148.032 179.909 148.216 179.237 148.216C178.549 148.216 178.021 148.032 177.653 147.664C177.301 147.296 177.125 146.76 177.125 146.056V133.024C177.125 132.32 177.309 131.784 177.677 131.416C178.045 131.048 178.565 130.864 179.237 130.864C179.925 130.864 180.453 131.048 180.821 131.416C181.205 131.784 181.397 132.32 181.397 133.024V138.16H181.109C181.349 137.504 181.821 136.968 182.525 136.552C183.229 136.136 184.021 135.928 184.901 135.928C185.925 135.928 186.821 136.176 187.589 136.672C188.373 137.168 188.981 137.872 189.413 138.784C189.845 139.696 190.061 140.8 190.061 142.096C190.061 143.36 189.845 144.456 189.413 145.384C188.981 146.312 188.373 147.024 187.589 147.52C186.821 148.016 185.925 148.264 184.901 148.264ZM183.557 145.12C183.989 145.12 184.365 145.016 184.685 144.808C185.021 144.584 185.285 144.256 185.477 143.824C185.669 143.376 185.765 142.8 185.765 142.096C185.765 141.024 185.557 140.256 185.141 139.792C184.725 139.312 184.197 139.072 183.557 139.072C183.125 139.072 182.741 139.176 182.405 139.384C182.069 139.592 181.805 139.92 181.613 140.368C181.421 140.8 181.325 141.376 181.325 142.096C181.325 143.152 181.533 143.92 181.949 144.4C182.365 144.88 182.901 145.12 183.557 145.12ZM196.112 148.264C195.2 148.264 194.392 148.096 193.688 147.76C193 147.424 192.456 146.968 192.056 146.392C191.672 145.8 191.48 145.128 191.48 144.376C191.48 143.512 191.704 142.832 192.152 142.336C192.6 141.84 193.32 141.488 194.312 141.28C195.304 141.056 196.624 140.944 198.272 140.944H199.592V142.96H198.272C197.648 142.96 197.128 143.008 196.712 143.104C196.312 143.184 196.016 143.32 195.824 143.512C195.632 143.688 195.536 143.92 195.536 144.208C195.536 144.576 195.664 144.88 195.92 145.12C196.192 145.36 196.576 145.48 197.072 145.48C197.472 145.48 197.824 145.392 198.128 145.216C198.448 145.04 198.704 144.8 198.896 144.496C199.088 144.176 199.184 143.808 199.184 143.392V140.608C199.184 140.032 199.032 139.624 198.728 139.384C198.44 139.144 197.936 139.024 197.216 139.024C196.832 139.024 196.4 139.072 195.92 139.168C195.44 139.248 194.904 139.4 194.312 139.624C193.88 139.784 193.512 139.808 193.208 139.696C192.904 139.584 192.664 139.392 192.488 139.12C192.328 138.848 192.248 138.552 192.248 138.232C192.264 137.912 192.368 137.608 192.56 137.32C192.768 137.032 193.08 136.808 193.496 136.648C194.264 136.36 194.968 136.168 195.608 136.072C196.264 135.976 196.864 135.928 197.408 135.928C198.72 135.928 199.8 136.12 200.648 136.504C201.512 136.872 202.152 137.448 202.568 138.232C203 139 203.216 139.992 203.216 141.208V146.056C203.216 146.76 203.048 147.296 202.712 147.664C202.376 148.032 201.888 148.216 201.248 148.216C200.592 148.216 200.088 148.032 199.736 147.664C199.4 147.296 199.232 146.76 199.232 146.056V145.432L199.376 145.768C199.296 146.28 199.112 146.72 198.824 147.088C198.536 147.456 198.16 147.744 197.696 147.952C197.232 148.16 196.704 148.264 196.112 148.264ZM207.832 148.216C207.128 148.216 206.584 148.032 206.2 147.664C205.832 147.296 205.648 146.76 205.648 146.056V138.112C205.648 137.424 205.824 136.896 206.176 136.528C206.544 136.16 207.064 135.976 207.736 135.976C208.408 135.976 208.92 136.16 209.272 136.528C209.624 136.896 209.8 137.424 209.8 138.112V139.096H209.56C209.72 138.136 210.128 137.376 210.784 136.816C211.456 136.256 212.288 135.96 213.28 135.928C213.744 135.912 214.088 136.032 214.312 136.288C214.552 136.528 214.68 136.984 214.696 137.656C214.696 138.232 214.576 138.688 214.336 139.024C214.096 139.36 213.64 139.56 212.968 139.624L212.416 139.672C211.568 139.752 210.952 139.992 210.568 140.392C210.184 140.776 209.992 141.352 209.992 142.12V146.056C209.992 146.76 209.808 147.296 209.44 147.664C209.072 148.032 208.536 148.216 207.832 148.216ZM220.041 148.264C219.129 148.264 218.321 148.096 217.617 147.76C216.929 147.424 216.385 146.968 215.985 146.392C215.601 145.8 215.409 145.128 215.409 144.376C215.409 143.512 215.633 142.832 216.081 142.336C216.529 141.84 217.249 141.488 218.241 141.28C219.233 141.056 220.553 140.944 222.201 140.944H223.521V142.96H222.201C221.577 142.96 221.057 143.008 220.641 143.104C220.241 143.184 219.945 143.32 219.753 143.512C219.561 143.688 219.465 143.92 219.465 144.208C219.465 144.576 219.593 144.88 219.849 145.12C220.121 145.36 220.505 145.48 221.001 145.48C221.401 145.48 221.753 145.392 222.057 145.216C222.377 145.04 222.633 144.8 222.825 144.496C223.017 144.176 223.113 143.808 223.113 143.392V140.608C223.113 140.032 222.961 139.624 222.657 139.384C222.369 139.144 221.865 139.024 221.145 139.024C220.761 139.024 220.329 139.072 219.849 139.168C219.369 139.248 218.833 139.4 218.241 139.624C217.809 139.784 217.441 139.808 217.137 139.696C216.833 139.584 216.593 139.392 216.417 139.12C216.257 138.848 216.177 138.552 216.177 138.232C216.193 137.912 216.297 137.608 216.489 137.32C216.697 137.032 217.009 136.808 217.425 136.648C218.193 136.36 218.897 136.168 219.537 136.072C220.193 135.976 220.793 135.928 221.337 135.928C222.649 135.928 223.729 136.12 224.577 136.504C225.441 136.872 226.081 137.448 226.497 138.232C226.929 139 227.145 139.992 227.145 141.208V146.056C227.145 146.76 226.977 147.296 226.641 147.664C226.305 148.032 225.817 148.216 225.177 148.216C224.521 148.216 224.017 148.032 223.665 147.664C223.329 147.296 223.161 146.76 223.161 146.056V145.432L223.305 145.768C223.225 146.28 223.041 146.72 222.753 147.088C222.465 147.456 222.089 147.744 221.625 147.952C221.161 148.16 220.633 148.264 220.041 148.264ZM231.69 148.216C231.018 148.216 230.498 148.032 230.13 147.664C229.762 147.296 229.578 146.76 229.578 146.056V138.112C229.578 137.424 229.754 136.896 230.106 136.528C230.474 136.16 230.994 135.976 231.666 135.976C232.338 135.976 232.85 136.16 233.202 136.528C233.554 136.896 233.73 137.424 233.73 138.112V139.24L233.466 138.256C233.85 137.504 234.394 136.928 235.098 136.528C235.818 136.128 236.634 135.928 237.546 135.928C238.49 135.928 239.266 136.112 239.874 136.48C240.482 136.832 240.938 137.392 241.242 138.16C241.546 138.912 241.698 139.864 241.698 141.016V146.056C241.698 146.76 241.514 147.296 241.146 147.664C240.778 148.032 240.25 148.216 239.562 148.216C238.874 148.216 238.346 148.032 237.978 147.664C237.61 147.296 237.426 146.76 237.426 146.056V141.184C237.426 140.464 237.298 139.952 237.042 139.648C236.802 139.344 236.442 139.192 235.962 139.192C235.322 139.192 234.81 139.4 234.426 139.816C234.042 140.216 233.85 140.76 233.85 141.448V146.056C233.85 147.496 233.13 148.216 231.69 148.216ZM249.989 152.584C249.109 152.584 248.285 152.52 247.517 152.392C246.749 152.28 246.085 152.112 245.525 151.888C245.061 151.728 244.733 151.496 244.541 151.192C244.349 150.888 244.261 150.568 244.277 150.232C244.293 149.896 244.381 149.592 244.541 149.32C244.717 149.048 244.949 148.848 245.237 148.72C245.525 148.608 245.845 148.616 246.197 148.744C246.901 149.032 247.541 149.216 248.117 149.296C248.693 149.392 249.181 149.44 249.581 149.44C250.557 149.44 251.285 149.232 251.765 148.816C252.261 148.416 252.509 147.784 252.509 146.92V145.408H252.701C252.461 146.08 251.973 146.632 251.237 147.064C250.501 147.48 249.701 147.688 248.837 147.688C247.781 147.688 246.861 147.448 246.077 146.968C245.293 146.472 244.677 145.784 244.229 144.904C243.797 144.024 243.581 142.992 243.581 141.808C243.581 140.912 243.709 140.104 243.965 139.384C244.221 138.664 244.573 138.048 245.021 137.536C245.485 137.024 246.037 136.632 246.677 136.36C247.333 136.072 248.053 135.928 248.837 135.928C249.733 135.928 250.533 136.136 251.237 136.552C251.957 136.968 252.437 137.512 252.677 138.184L252.437 139.168V138.112C252.437 137.424 252.621 136.896 252.989 136.528C253.373 136.16 253.901 135.976 254.573 135.976C255.245 135.976 255.757 136.16 256.109 136.528C256.477 136.896 256.661 137.424 256.661 138.112V146.416C256.661 148.464 256.085 150 254.933 151.024C253.781 152.064 252.133 152.584 249.989 152.584ZM250.157 144.544C250.637 144.544 251.045 144.44 251.381 144.232C251.717 144.008 251.981 143.696 252.173 143.296C252.365 142.88 252.461 142.384 252.461 141.808C252.461 140.944 252.253 140.272 251.837 139.792C251.421 139.312 250.861 139.072 250.157 139.072C249.709 139.072 249.309 139.184 248.957 139.408C248.605 139.616 248.333 139.928 248.141 140.344C247.965 140.744 247.877 141.232 247.877 141.808C247.877 142.672 248.085 143.344 248.501 143.824C248.917 144.304 249.469 144.544 250.157 144.544ZM260.884 143.224C260.404 143.224 260.004 143.064 259.684 142.744C259.364 142.424 259.204 142.024 259.204 141.544C259.204 141.064 259.364 140.672 259.684 140.368C260.004 140.048 260.404 139.888 260.884 139.888H265.636C266.116 139.888 266.516 140.048 266.836 140.368C267.156 140.672 267.316 141.064 267.316 141.544C267.316 142.024 267.156 142.424 266.836 142.744C266.516 143.064 266.116 143.224 265.636 143.224H260.884ZM277.62 148.264C276.708 148.264 275.892 148.048 275.172 147.616C274.468 147.168 274.004 146.584 273.78 145.864L274.044 144.88V146.056C274.044 146.76 273.86 147.296 273.492 147.664C273.14 148.032 272.628 148.216 271.956 148.216C271.268 148.216 270.74 148.032 270.372 147.664C270.02 147.296 269.844 146.76 269.844 146.056V133.024C269.844 132.32 270.028 131.784 270.396 131.416C270.764 131.048 271.284 130.864 271.956 130.864C272.644 130.864 273.172 131.048 273.54 131.416C273.924 131.784 274.116 132.32 274.116 133.024V138.16H273.828C274.068 137.504 274.54 136.968 275.244 136.552C275.948 136.136 276.74 135.928 277.62 135.928C278.644 135.928 279.54 136.176 280.308 136.672C281.092 137.168 281.7 137.872 282.132 138.784C282.564 139.696 282.78 140.8 282.78 142.096C282.78 143.36 282.564 144.456 282.132 145.384C281.7 146.312 281.092 147.024 280.308 147.52C279.54 148.016 278.644 148.264 277.62 148.264ZM276.276 145.12C276.708 145.12 277.084 145.016 277.404 144.808C277.74 144.584 278.004 144.256 278.196 143.824C278.388 143.376 278.484 142.8 278.484 142.096C278.484 141.024 278.276 140.256 277.86 139.792C277.444 139.312 276.916 139.072 276.276 139.072C275.844 139.072 275.46 139.176 275.124 139.384C274.788 139.592 274.524 139.92 274.332 140.368C274.14 140.8 274.044 141.376 274.044 142.096C274.044 143.152 274.252 143.92 274.668 144.4C275.084 144.88 275.62 145.12 276.276 145.12ZM288.831 148.264C287.919 148.264 287.111 148.096 286.407 147.76C285.719 147.424 285.175 146.968 284.775 146.392C284.391 145.8 284.199 145.128 284.199 144.376C284.199 143.512 284.423 142.832 284.871 142.336C285.319 141.84 286.039 141.488 287.031 141.28C288.023 141.056 289.343 140.944 290.991 140.944H292.311V142.96H290.991C290.367 142.96 289.847 143.008 289.431 143.104C289.031 143.184 288.735 143.32 288.543 143.512C288.351 143.688 288.255 143.92 288.255 144.208C288.255 144.576 288.383 144.88 288.639 145.12C288.911 145.36 289.295 145.48 289.791 145.48C290.191 145.48 290.543 145.392 290.847 145.216C291.167 145.04 291.423 144.8 291.615 144.496C291.807 144.176 291.903 143.808 291.903 143.392V140.608C291.903 140.032 291.751 139.624 291.447 139.384C291.159 139.144 290.655 139.024 289.935 139.024C289.551 139.024 289.119 139.072 288.639 139.168C288.159 139.248 287.623 139.4 287.031 139.624C286.599 139.784 286.231 139.808 285.927 139.696C285.623 139.584 285.383 139.392 285.207 139.12C285.047 138.848 284.967 138.552 284.967 138.232C284.983 137.912 285.087 137.608 285.279 137.32C285.487 137.032 285.799 136.808 286.215 136.648C286.983 136.36 287.687 136.168 288.327 136.072C288.983 135.976 289.583 135.928 290.127 135.928C291.439 135.928 292.519 136.12 293.367 136.504C294.231 136.872 294.871 137.448 295.287 138.232C295.719 139 295.935 139.992 295.935 141.208V146.056C295.935 146.76 295.767 147.296 295.431 147.664C295.095 148.032 294.607 148.216 293.967 148.216C293.311 148.216 292.807 148.032 292.455 147.664C292.119 147.296 291.951 146.76 291.951 146.056V145.432L292.095 145.768C292.015 146.28 291.831 146.72 291.543 147.088C291.255 147.456 290.879 147.744 290.415 147.952C289.951 148.16 289.423 148.264 288.831 148.264ZM300.551 148.216C299.847 148.216 299.303 148.032 298.919 147.664C298.551 147.296 298.367 146.76 298.367 146.056V138.112C298.367 137.424 298.543 136.896 298.895 136.528C299.263 136.16 299.783 135.976 300.455 135.976C301.127 135.976 301.639 136.16 301.991 136.528C302.343 136.896 302.519 137.424 302.519 138.112V139.096H302.279C302.439 138.136 302.847 137.376 303.503 136.816C304.175 136.256 305.007 135.96 305.999 135.928C306.463 135.912 306.807 136.032 307.031 136.288C307.271 136.528 307.399 136.984 307.415 137.656C307.415 138.232 307.295 138.688 307.055 139.024C306.815 139.36 306.359 139.56 305.687 139.624L305.135 139.672C304.287 139.752 303.671 139.992 303.287 140.392C302.903 140.776 302.711 141.352 302.711 142.12V146.056C302.711 146.76 302.527 147.296 302.159 147.664C301.791 148.032 301.255 148.216 300.551 148.216ZM312.76 148.264C311.848 148.264 311.04 148.096 310.336 147.76C309.648 147.424 309.104 146.968 308.704 146.392C308.32 145.8 308.128 145.128 308.128 144.376C308.128 143.512 308.352 142.832 308.8 142.336C309.248 141.84 309.968 141.488 310.96 141.28C311.952 141.056 313.272 140.944 314.92 140.944H316.24V142.96H314.92C314.296 142.96 313.776 143.008 313.36 143.104C312.96 143.184 312.664 143.32 312.472 143.512C312.28 143.688 312.184 143.92 312.184 144.208C312.184 144.576 312.312 144.88 312.568 145.12C312.84 145.36 313.224 145.48 313.72 145.48C314.12 145.48 314.472 145.392 314.776 145.216C315.096 145.04 315.352 144.8 315.544 144.496C315.736 144.176 315.832 143.808 315.832 143.392V140.608C315.832 140.032 315.68 139.624 315.376 139.384C315.088 139.144 314.584 139.024 313.864 139.024C313.48 139.024 313.048 139.072 312.568 139.168C312.088 139.248 311.552 139.4 310.96 139.624C310.528 139.784 310.16 139.808 309.856 139.696C309.552 139.584 309.312 139.392 309.136 139.12C308.976 138.848 308.896 138.552 308.896 138.232C308.912 137.912 309.016 137.608 309.208 137.32C309.416 137.032 309.728 136.808 310.144 136.648C310.912 136.36 311.616 136.168 312.256 136.072C312.912 135.976 313.512 135.928 314.056 135.928C315.368 135.928 316.448 136.12 317.296 136.504C318.16 136.872 318.8 137.448 319.216 138.232C319.648 139 319.864 139.992 319.864 141.208V146.056C319.864 146.76 319.696 147.296 319.36 147.664C319.024 148.032 318.536 148.216 317.896 148.216C317.24 148.216 316.736 148.032 316.384 147.664C316.048 147.296 315.88 146.76 315.88 146.056V145.432L316.024 145.768C315.944 146.28 315.76 146.72 315.472 147.088C315.184 147.456 314.808 147.744 314.344 147.952C313.88 148.16 313.352 148.264 312.76 148.264ZM324.409 148.216C323.737 148.216 323.217 148.032 322.849 147.664C322.481 147.296 322.297 146.76 322.297 146.056V138.112C322.297 137.424 322.473 136.896 322.825 136.528C323.193 136.16 323.713 135.976 324.385 135.976C325.057 135.976 325.569 136.16 325.921 136.528C326.273 136.896 326.449 137.424 326.449 138.112V139.24L326.185 138.256C326.569 137.504 327.113 136.928 327.817 136.528C328.537 136.128 329.353 135.928 330.265 135.928C331.209 135.928 331.985 136.112 332.593 136.48C333.201 136.832 333.657 137.392 333.961 138.16C334.265 138.912 334.417 139.864 334.417 141.016V146.056C334.417 146.76 334.233 147.296 333.865 147.664C333.497 148.032 332.969 148.216 332.281 148.216C331.593 148.216 331.065 148.032 330.697 147.664C330.329 147.296 330.145 146.76 330.145 146.056V141.184C330.145 140.464 330.017 139.952 329.761 139.648C329.521 139.344 329.161 139.192 328.681 139.192C328.041 139.192 327.529 139.4 327.145 139.816C326.761 140.216 326.569 140.76 326.569 141.448V146.056C326.569 147.496 325.849 148.216 324.409 148.216ZM342.708 152.584C341.828 152.584 341.004 152.52 340.236 152.392C339.468 152.28 338.804 152.112 338.244 151.888C337.78 151.728 337.452 151.496 337.26 151.192C337.068 150.888 336.98 150.568 336.996 150.232C337.012 149.896 337.1 149.592 337.26 149.32C337.436 149.048 337.668 148.848 337.956 148.72C338.244 148.608 338.564 148.616 338.916 148.744C339.62 149.032 340.26 149.216 340.836 149.296C341.412 149.392 341.9 149.44 342.3 149.44C343.276 149.44 344.004 149.232 344.484 148.816C344.98 148.416 345.228 147.784 345.228 146.92V145.408H345.42C345.18 146.08 344.692 146.632 343.956 147.064C343.22 147.48 342.42 147.688 341.556 147.688C340.5 147.688 339.58 147.448 338.796 146.968C338.012 146.472 337.396 145.784 336.948 144.904C336.516 144.024 336.3 142.992 336.3 141.808C336.3 140.912 336.428 140.104 336.684 139.384C336.94 138.664 337.292 138.048 337.74 137.536C338.204 137.024 338.756 136.632 339.396 136.36C340.052 136.072 340.772 135.928 341.556 135.928C342.452 135.928 343.252 136.136 343.956 136.552C344.676 136.968 345.156 137.512 345.396 138.184L345.156 139.168V138.112C345.156 137.424 345.34 136.896 345.708 136.528C346.092 136.16 346.62 135.976 347.292 135.976C347.964 135.976 348.476 136.16 348.828 136.528C349.196 136.896 349.38 137.424 349.38 138.112V146.416C349.38 148.464 348.804 150 347.652 151.024C346.5 152.064 344.852 152.584 342.708 152.584ZM342.876 144.544C343.356 144.544 343.764 144.44 344.1 144.232C344.436 144.008 344.7 143.696 344.892 143.296C345.084 142.88 345.18 142.384 345.18 141.808C345.18 140.944 344.972 140.272 344.556 139.792C344.14 139.312 343.58 139.072 342.876 139.072C342.428 139.072 342.028 139.184 341.676 139.408C341.324 139.616 341.052 139.928 340.86 140.344C340.684 140.744 340.596 141.232 340.596 141.808C340.596 142.672 340.804 143.344 341.22 143.824C341.636 144.304 342.188 144.544 342.876 144.544ZM354.035 148.216C353.363 148.216 352.843 148.032 352.475 147.664C352.107 147.296 351.923 146.76 351.923 146.056V138.112C351.923 137.424 352.099 136.896 352.451 136.528C352.819 136.16 353.339 135.976 354.011 135.976C354.683 135.976 355.195 136.16 355.547 136.528C355.899 136.896 356.075 137.424 356.075 138.112V139.432L355.811 138.256C356.147 137.552 356.643 136.992 357.299 136.576C357.971 136.144 358.763 135.928 359.675 135.928C360.539 135.928 361.275 136.136 361.883 136.552C362.507 136.968 362.955 137.6 363.227 138.448H362.891C363.259 137.664 363.811 137.048 364.547 136.6C365.283 136.152 366.099 135.928 366.995 135.928C367.923 135.928 368.683 136.112 369.275 136.48C369.867 136.832 370.307 137.392 370.595 138.16C370.899 138.912 371.051 139.864 371.051 141.016V146.056C371.051 146.76 370.859 147.296 370.475 147.664C370.107 148.032 369.579 148.216 368.891 148.216C368.219 148.216 367.699 148.032 367.331 147.664C366.963 147.296 366.779 146.76 366.779 146.056V141.136C366.779 140.448 366.675 139.952 366.467 139.648C366.259 139.344 365.915 139.192 365.435 139.192C364.843 139.192 364.387 139.4 364.067 139.816C363.763 140.232 363.611 140.824 363.611 141.592V146.056C363.611 146.76 363.427 147.296 363.059 147.664C362.691 148.032 362.163 148.216 361.475 148.216C360.787 148.216 360.259 148.032 359.891 147.664C359.523 147.296 359.339 146.76 359.339 146.056V141.136C359.339 140.448 359.235 139.952 359.027 139.648C358.819 139.344 358.475 139.192 357.995 139.192C357.419 139.192 356.971 139.4 356.651 139.816C356.347 140.232 356.195 140.824 356.195 141.592V146.056C356.195 147.496 355.475 148.216 354.035 148.216ZM377.947 148.264C376.923 148.264 376.083 148.08 375.427 147.712C374.771 147.328 374.275 146.76 373.939 146.008C373.619 145.256 373.459 144.304 373.459 143.152V138.112C373.459 137.408 373.643 136.88 374.011 136.528C374.379 136.16 374.907 135.976 375.595 135.976C376.283 135.976 376.811 136.16 377.179 136.528C377.547 136.88 377.731 137.408 377.731 138.112V143.272C377.731 143.848 377.851 144.28 378.091 144.568C378.331 144.856 378.707 145 379.219 145C379.795 145 380.267 144.792 380.635 144.376C381.003 143.96 381.187 143.408 381.187 142.72V138.112C381.187 137.408 381.371 136.88 381.739 136.528C382.107 136.16 382.635 135.976 383.323 135.976C384.011 135.976 384.539 136.16 384.907 136.528C385.275 136.88 385.459 137.408 385.459 138.112V146.056C385.459 147.496 384.771 148.216 383.395 148.216C382.723 148.216 382.203 148.032 381.835 147.664C381.467 147.296 381.283 146.76 381.283 146.056V144.664L381.667 145.84C381.315 146.624 380.819 147.224 380.179 147.64C379.555 148.056 378.811 148.264 377.947 148.264ZM181.733 181.264C180.725 181.264 179.829 181.016 179.045 180.52C178.277 180.024 177.669 179.312 177.221 178.384C176.789 177.456 176.573 176.36 176.573 175.096C176.573 173.8 176.789 172.696 177.221 171.784C177.669 170.872 178.277 170.168 179.045 169.672C179.829 169.176 180.725 168.928 181.733 168.928C182.613 168.928 183.405 169.136 184.109 169.552C184.813 169.968 185.285 170.504 185.525 171.16H185.261V166.024C185.261 165.32 185.445 164.784 185.813 164.416C186.181 164.048 186.709 163.864 187.397 163.864C188.069 163.864 188.589 164.048 188.957 164.416C189.341 164.784 189.533 165.32 189.533 166.024V179.056C189.533 179.76 189.349 180.296 188.981 180.664C188.629 181.032 188.109 181.216 187.421 181.216C186.749 181.216 186.229 181.032 185.861 180.664C185.493 180.296 185.309 179.76 185.309 179.056V177.688L185.573 178.864C185.349 179.584 184.877 180.168 184.157 180.616C183.453 181.048 182.645 181.264 181.733 181.264ZM183.101 178.12C183.533 178.12 183.917 178.016 184.253 177.808C184.589 177.584 184.845 177.256 185.021 176.824C185.213 176.376 185.309 175.8 185.309 175.096C185.309 174.024 185.101 173.256 184.685 172.792C184.269 172.312 183.741 172.072 183.101 172.072C182.669 172.072 182.285 172.176 181.949 172.384C181.613 172.592 181.349 172.92 181.157 173.368C180.965 173.8 180.869 174.376 180.869 175.096C180.869 176.152 181.077 176.92 181.493 177.4C181.909 177.88 182.445 178.12 183.101 178.12ZM198.44 181.264C197 181.264 195.752 181.016 194.696 180.52C193.656 180.008 192.856 179.288 192.296 178.36C191.736 177.432 191.456 176.336 191.456 175.072C191.456 173.856 191.72 172.792 192.248 171.88C192.792 170.952 193.528 170.232 194.456 169.72C195.4 169.192 196.472 168.928 197.672 168.928C198.552 168.928 199.352 169.072 200.072 169.36C200.792 169.632 201.408 170.04 201.92 170.584C202.432 171.112 202.816 171.752 203.072 172.504C203.344 173.256 203.48 174.096 203.48 175.024C203.48 175.344 203.392 175.584 203.216 175.744C203.04 175.888 202.76 175.96 202.376 175.96H195.032V173.944H200.36L199.976 174.256C199.976 173.664 199.896 173.184 199.736 172.816C199.576 172.448 199.336 172.168 199.016 171.976C198.712 171.784 198.328 171.688 197.864 171.688C197.368 171.688 196.936 171.808 196.568 172.048C196.216 172.272 195.944 172.608 195.752 173.056C195.56 173.504 195.464 174.064 195.464 174.736V174.952C195.464 176.088 195.712 176.904 196.208 177.4C196.72 177.88 197.504 178.12 198.56 178.12C198.912 178.12 199.312 178.08 199.76 178C200.224 177.904 200.664 177.776 201.08 177.616C201.496 177.456 201.856 177.432 202.16 177.544C202.464 177.64 202.696 177.816 202.856 178.072C203.032 178.312 203.128 178.592 203.144 178.912C203.16 179.216 203.088 179.52 202.928 179.824C202.768 180.112 202.504 180.336 202.136 180.496C201.576 180.752 200.976 180.944 200.336 181.072C199.712 181.2 199.08 181.264 198.44 181.264ZM207.432 181.216C206.76 181.216 206.24 181.032 205.872 180.664C205.504 180.296 205.32 179.76 205.32 179.056V171.112C205.32 170.424 205.496 169.896 205.848 169.528C206.216 169.16 206.736 168.976 207.408 168.976C208.08 168.976 208.592 169.16 208.944 169.528C209.296 169.896 209.472 170.424 209.472 171.112V172.24L209.208 171.256C209.592 170.504 210.136 169.928 210.84 169.528C211.56 169.128 212.376 168.928 213.288 168.928C214.232 168.928 215.008 169.112 215.616 169.48C216.224 169.832 216.68 170.392 216.984 171.16C217.288 171.912 217.44 172.864 217.44 174.016V179.056C217.44 179.76 217.256 180.296 216.888 180.664C216.52 181.032 215.992 181.216 215.304 181.216C214.616 181.216 214.088 181.032 213.72 180.664C213.352 180.296 213.168 179.76 213.168 179.056V174.184C213.168 173.464 213.04 172.952 212.784 172.648C212.544 172.344 212.184 172.192 211.704 172.192C211.064 172.192 210.552 172.4 210.168 172.816C209.784 173.216 209.592 173.76 209.592 174.448V179.056C209.592 180.496 208.872 181.216 207.432 181.216ZM225.731 185.584C224.851 185.584 224.027 185.52 223.259 185.392C222.491 185.28 221.827 185.112 221.267 184.888C220.803 184.728 220.475 184.496 220.283 184.192C220.091 183.888 220.003 183.568 220.019 183.232C220.035 182.896 220.123 182.592 220.283 182.32C220.459 182.048 220.691 181.848 220.979 181.72C221.267 181.608 221.587 181.616 221.939 181.744C222.643 182.032 223.283 182.216 223.859 182.296C224.435 182.392 224.923 182.44 225.323 182.44C226.299 182.44 227.027 182.232 227.507 181.816C228.003 181.416 228.251 180.784 228.251 179.92V178.408H228.443C228.203 179.08 227.715 179.632 226.979 180.064C226.243 180.48 225.443 180.688 224.579 180.688C223.523 180.688 222.603 180.448 221.819 179.968C221.035 179.472 220.419 178.784 219.971 177.904C219.539 177.024 219.323 175.992 219.323 174.808C219.323 173.912 219.451 173.104 219.707 172.384C219.963 171.664 220.315 171.048 220.763 170.536C221.227 170.024 221.779 169.632 222.419 169.36C223.075 169.072 223.795 168.928 224.579 168.928C225.475 168.928 226.275 169.136 226.979 169.552C227.699 169.968 228.179 170.512 228.419 171.184L228.179 172.168V171.112C228.179 170.424 228.363 169.896 228.731 169.528C229.115 169.16 229.643 168.976 230.315 168.976C230.987 168.976 231.499 169.16 231.851 169.528C232.219 169.896 232.403 170.424 232.403 171.112V179.416C232.403 181.464 231.827 183 230.675 184.024C229.523 185.064 227.875 185.584 225.731 185.584ZM225.899 177.544C226.379 177.544 226.787 177.44 227.123 177.232C227.459 177.008 227.723 176.696 227.915 176.296C228.107 175.88 228.203 175.384 228.203 174.808C228.203 173.944 227.995 173.272 227.579 172.792C227.163 172.312 226.603 172.072 225.899 172.072C225.451 172.072 225.051 172.184 224.699 172.408C224.347 172.616 224.075 172.928 223.883 173.344C223.707 173.744 223.619 174.232 223.619 174.808C223.619 175.672 223.827 176.344 224.243 176.824C224.659 177.304 225.211 177.544 225.899 177.544ZM239.002 181.264C238.09 181.264 237.282 181.096 236.578 180.76C235.89 180.424 235.346 179.968 234.946 179.392C234.562 178.8 234.37 178.128 234.37 177.376C234.37 176.512 234.594 175.832 235.042 175.336C235.49 174.84 236.21 174.488 237.202 174.28C238.194 174.056 239.514 173.944 241.162 173.944H242.482V175.96H241.162C240.538 175.96 240.018 176.008 239.602 176.104C239.202 176.184 238.906 176.32 238.714 176.512C238.522 176.688 238.426 176.92 238.426 177.208C238.426 177.576 238.554 177.88 238.81 178.12C239.082 178.36 239.466 178.48 239.962 178.48C240.362 178.48 240.714 178.392 241.018 178.216C241.338 178.04 241.594 177.8 241.786 177.496C241.978 177.176 242.074 176.808 242.074 176.392V173.608C242.074 173.032 241.922 172.624 241.618 172.384C241.33 172.144 240.826 172.024 240.106 172.024C239.722 172.024 239.29 172.072 238.81 172.168C238.33 172.248 237.794 172.4 237.202 172.624C236.77 172.784 236.402 172.808 236.098 172.696C235.794 172.584 235.554 172.392 235.378 172.12C235.218 171.848 235.138 171.552 235.138 171.232C235.154 170.912 235.258 170.608 235.45 170.32C235.658 170.032 235.97 169.808 236.386 169.648C237.154 169.36 237.858 169.168 238.498 169.072C239.154 168.976 239.754 168.928 240.298 168.928C241.61 168.928 242.69 169.12 243.538 169.504C244.402 169.872 245.042 170.448 245.458 171.232C245.89 172 246.106 172.992 246.106 174.208V179.056C246.106 179.76 245.938 180.296 245.602 180.664C245.266 181.032 244.778 181.216 244.138 181.216C243.482 181.216 242.978 181.032 242.626 180.664C242.29 180.296 242.122 179.76 242.122 179.056V178.432L242.266 178.768C242.186 179.28 242.002 179.72 241.714 180.088C241.426 180.456 241.05 180.744 240.586 180.952C240.122 181.16 239.594 181.264 239.002 181.264ZM250.651 181.216C249.979 181.216 249.459 181.032 249.091 180.664C248.723 180.296 248.539 179.76 248.539 179.056V171.112C248.539 170.424 248.715 169.896 249.067 169.528C249.435 169.16 249.955 168.976 250.627 168.976C251.299 168.976 251.811 169.16 252.163 169.528C252.515 169.896 252.691 170.424 252.691 171.112V172.24L252.427 171.256C252.811 170.504 253.355 169.928 254.059 169.528C254.779 169.128 255.595 168.928 256.507 168.928C257.451 168.928 258.227 169.112 258.835 169.48C259.443 169.832 259.899 170.392 260.203 171.16C260.507 171.912 260.659 172.864 260.659 174.016V179.056C260.659 179.76 260.475 180.296 260.107 180.664C259.739 181.032 259.211 181.216 258.523 181.216C257.835 181.216 257.307 181.032 256.939 180.664C256.571 180.296 256.387 179.76 256.387 179.056V174.184C256.387 173.464 256.259 172.952 256.003 172.648C255.763 172.344 255.403 172.192 254.923 172.192C254.283 172.192 253.771 172.4 253.387 172.816C253.003 173.216 252.811 173.76 252.811 174.448V179.056C252.811 180.496 252.091 181.216 250.651 181.216ZM277.737 181.264C276.825 181.264 276.009 181.048 275.289 180.616C274.585 180.168 274.121 179.584 273.897 178.864L274.161 177.88V179.056C274.161 179.76 273.977 180.296 273.609 180.664C273.257 181.032 272.745 181.216 272.073 181.216C271.385 181.216 270.857 181.032 270.489 180.664C270.137 180.296 269.961 179.76 269.961 179.056V166.024C269.961 165.32 270.145 164.784 270.513 164.416C270.881 164.048 271.401 163.864 272.073 163.864C272.761 163.864 273.289 164.048 273.657 164.416C274.041 164.784 274.233 165.32 274.233 166.024V171.16H273.945C274.185 170.504 274.657 169.968 275.361 169.552C276.065 169.136 276.857 168.928 277.737 168.928C278.761 168.928 279.657 169.176 280.425 169.672C281.209 170.168 281.817 170.872 282.249 171.784C282.681 172.696 282.897 173.8 282.897 175.096C282.897 176.36 282.681 177.456 282.249 178.384C281.817 179.312 281.209 180.024 280.425 180.52C279.657 181.016 278.761 181.264 277.737 181.264ZM276.393 178.12C276.825 178.12 277.201 178.016 277.521 177.808C277.857 177.584 278.121 177.256 278.313 176.824C278.505 176.376 278.601 175.8 278.601 175.096C278.601 174.024 278.393 173.256 277.977 172.792C277.561 172.312 277.033 172.072 276.393 172.072C275.961 172.072 275.577 172.176 275.241 172.384C274.905 172.592 274.641 172.92 274.449 173.368C274.257 173.8 274.161 174.376 274.161 175.096C274.161 176.152 274.369 176.92 274.785 177.4C275.201 177.88 275.737 178.12 276.393 178.12ZM288.948 181.264C288.036 181.264 287.228 181.096 286.524 180.76C285.836 180.424 285.292 179.968 284.892 179.392C284.508 178.8 284.316 178.128 284.316 177.376C284.316 176.512 284.54 175.832 284.988 175.336C285.436 174.84 286.156 174.488 287.148 174.28C288.14 174.056 289.46 173.944 291.108 173.944H292.428V175.96H291.108C290.484 175.96 289.964 176.008 289.548 176.104C289.148 176.184 288.852 176.32 288.66 176.512C288.468 176.688 288.372 176.92 288.372 177.208C288.372 177.576 288.5 177.88 288.756 178.12C289.028 178.36 289.412 178.48 289.908 178.48C290.308 178.48 290.66 178.392 290.964 178.216C291.284 178.04 291.54 177.8 291.732 177.496C291.924 177.176 292.02 176.808 292.02 176.392V173.608C292.02 173.032 291.868 172.624 291.564 172.384C291.276 172.144 290.772 172.024 290.052 172.024C289.668 172.024 289.236 172.072 288.756 172.168C288.276 172.248 287.74 172.4 287.148 172.624C286.716 172.784 286.348 172.808 286.044 172.696C285.74 172.584 285.5 172.392 285.324 172.12C285.164 171.848 285.084 171.552 285.084 171.232C285.1 170.912 285.204 170.608 285.396 170.32C285.604 170.032 285.916 169.808 286.332 169.648C287.1 169.36 287.804 169.168 288.444 169.072C289.1 168.976 289.7 168.928 290.244 168.928C291.556 168.928 292.636 169.12 293.484 169.504C294.348 169.872 294.988 170.448 295.404 171.232C295.836 172 296.052 172.992 296.052 174.208V179.056C296.052 179.76 295.884 180.296 295.548 180.664C295.212 181.032 294.724 181.216 294.084 181.216C293.428 181.216 292.924 181.032 292.572 180.664C292.236 180.296 292.068 179.76 292.068 179.056V178.432L292.212 178.768C292.132 179.28 291.948 179.72 291.66 180.088C291.372 180.456 290.996 180.744 290.532 180.952C290.068 181.16 289.54 181.264 288.948 181.264ZM300.596 181.216C299.924 181.216 299.404 181.016 299.036 180.616C298.668 180.216 298.484 179.64 298.484 178.888V171.304C298.484 170.552 298.668 169.976 299.036 169.576C299.404 169.176 299.924 168.976 300.596 168.976C301.284 168.976 301.812 169.176 302.18 169.576C302.564 169.976 302.756 170.552 302.756 171.304V178.888C302.756 179.64 302.572 180.216 302.204 180.616C301.836 181.016 301.3 181.216 300.596 181.216ZM300.596 167.272C299.844 167.272 299.26 167.096 298.844 166.744C298.444 166.392 298.244 165.88 298.244 165.208C298.244 164.552 298.444 164.048 298.844 163.696C299.26 163.344 299.844 163.168 300.596 163.168C301.38 163.168 301.972 163.344 302.372 163.696C302.772 164.048 302.972 164.552 302.972 165.208C302.972 165.88 302.772 166.392 302.372 166.744C301.972 167.096 301.38 167.272 300.596 167.272ZM307.346 181.216C306.674 181.216 306.154 181.032 305.786 180.664C305.418 180.296 305.234 179.76 305.234 179.056V166.024C305.234 165.32 305.418 164.784 305.786 164.416C306.154 164.048 306.674 163.864 307.346 163.864C308.034 163.864 308.562 164.048 308.93 164.416C309.314 164.784 309.506 165.32 309.506 166.024V173.944H309.554L312.482 170.392C312.882 169.912 313.25 169.56 313.586 169.336C313.938 169.096 314.41 168.976 315.002 168.976C315.594 168.976 316.05 169.12 316.37 169.408C316.69 169.696 316.858 170.056 316.874 170.488C316.89 170.92 316.714 171.352 316.346 171.784L313.178 175.528V174.04L316.73 178.504C317.082 178.952 317.226 179.392 317.162 179.824C317.098 180.24 316.89 180.576 316.538 180.832C316.202 181.088 315.77 181.216 315.242 181.216C314.602 181.216 314.09 181.104 313.706 180.88C313.322 180.64 312.938 180.272 312.554 179.776L309.554 176.08H309.506V179.056C309.506 180.496 308.786 181.216 307.346 181.216ZM321.172 175.456C320.756 175.456 320.42 175.32 320.164 175.048C319.924 174.776 319.772 174.4 319.708 173.92L318.868 166.672C318.756 165.84 318.908 165.168 319.324 164.656C319.74 164.128 320.356 163.864 321.172 163.864C322.004 163.864 322.62 164.128 323.02 164.656C323.42 165.168 323.564 165.84 323.452 166.672L322.636 173.92C322.572 174.4 322.42 174.776 322.18 175.048C321.94 175.32 321.604 175.456 321.172 175.456ZM321.172 181.144C320.452 181.144 319.876 180.928 319.444 180.496C319.028 180.064 318.82 179.496 318.82 178.792C318.82 178.104 319.028 177.552 319.444 177.136C319.876 176.704 320.452 176.488 321.172 176.488C321.924 176.488 322.5 176.704 322.9 177.136C323.316 177.552 323.524 178.104 323.524 178.792C323.524 179.496 323.316 180.064 322.9 180.496C322.5 180.928 321.924 181.144 321.172 181.144Z" fill="#E1E1E1"/>
</g>
<defs>
<clipPath id="clip0_412_570">
<rect width="480" height="227" fill="white" transform="translate(-25)"/>
</clipPath>
</defs>
</svg>
