<svg width="1920" height="388" viewBox="0 0 1920 388" fill="none" xmlns="http://www.w3.org/2000/svg">
<g clip-path="url(#clip0_395_571)">
<rect width="1920" height="388" fill="#B22D30"/>
<path d="M578.863 255.942H652.565C653.426 255.941 654.286 255.996 655.14 256.105C654.851 254.073 654.153 252.121 653.089 250.366C652.024 248.611 650.615 247.09 648.947 245.894C647.279 244.699 645.386 243.853 643.382 243.409C641.378 242.964 639.305 242.93 637.288 243.309L576.675 253.657H576.605C572.801 254.385 569.417 256.537 567.146 259.675C570.568 257.242 574.664 255.936 578.863 255.942ZM652.565 261.47H578.863C574.954 261.474 571.208 263.028 568.444 265.792C565.681 268.555 564.126 272.302 564.122 276.21V320.432C564.126 324.34 565.681 328.087 568.444 330.85C571.208 333.614 574.954 335.168 578.863 335.172H652.565C656.473 335.168 660.22 333.614 662.984 330.85C665.747 328.087 667.302 324.34 667.306 320.432V276.21C667.302 272.302 665.747 268.555 662.984 265.792C660.22 263.028 656.473 261.474 652.565 261.47ZM641.625 305.691C640.167 305.691 638.742 305.259 637.53 304.449C636.318 303.639 635.374 302.488 634.816 301.141C634.258 299.795 634.112 298.313 634.396 296.883C634.681 295.453 635.383 294.14 636.414 293.109C637.444 292.079 638.758 291.377 640.187 291.092C641.617 290.808 643.099 290.954 644.446 291.512C645.792 292.07 646.943 293.014 647.753 294.226C648.563 295.438 648.995 296.863 648.995 298.321C648.995 300.276 648.219 302.15 646.837 303.533C645.454 304.915 643.58 305.691 641.625 305.691Z" fill="#E1E1E1"/>
<path d="M564.237 291.757V268.84C564.237 263.849 567.001 255.481 576.594 253.669C584.736 252.142 592.797 252.142 592.797 252.142C592.797 252.142 598.094 255.827 593.718 255.827C589.342 255.827 589.457 261.47 593.718 261.47C597.979 261.47 593.718 266.882 593.718 266.882L576.559 286.344L564.237 291.757Z" fill="#E1E1E1"/>
<path d="M625.53 173.978C625.82 173.378 625.84 172.678 625.586 172.032C625.332 171.386 624.825 170.847 624.176 170.534C623.528 170.221 622.791 170.16 622.127 170.363C621.464 170.567 620.928 171.018 620.638 171.619L615.178 182.938L607.84 179.399C607.191 179.086 606.454 179.024 605.791 179.228C605.127 179.431 604.592 179.882 604.302 180.483C604.012 181.083 603.992 181.784 604.246 182.429C604.5 183.075 605.007 183.614 605.656 183.927L615.44 188.646C616.088 188.959 616.825 189.021 617.489 188.817C618.152 188.614 618.688 188.163 618.978 187.562L625.53 173.978Z" fill="#E1E1E1"/>
<path d="M587.645 217.101C583.145 214.93 581.12 209.789 583.132 205.619L587.194 197.197C585.345 193.163 584.388 188.854 584.386 184.55C584.383 180.247 585.336 176.047 587.181 172.224C591.062 164.178 598.327 158.768 606.732 156.694L610.797 148.268C612.806 144.102 618.087 142.48 622.593 144.653L645.418 155.664C649.919 157.835 651.944 162.975 649.932 167.146L645.869 175.568C648.855 182.079 649.484 189.233 647.651 195.851C648.026 195.968 648.375 196.159 648.674 196.412C648.973 196.664 649.215 196.972 649.384 197.315C649.552 197.658 649.642 198.027 649.649 198.396C649.655 198.766 649.577 199.128 649.421 199.457L647.237 203.985C647.078 204.313 646.844 204.601 646.551 204.827C646.258 205.053 645.912 205.212 645.539 205.294C645.166 205.376 644.773 205.378 644.389 205.3C644.004 205.222 643.637 205.066 643.313 204.844C639.274 210.398 633.284 214.359 626.329 216.075L622.267 224.497C620.257 228.663 614.976 230.285 610.471 228.111L587.645 217.101ZM640.991 198.181C643.888 192.177 644.088 185.175 641.55 178.717C639.011 172.258 633.94 166.872 627.453 163.742C620.966 160.613 613.594 159.997 606.959 162.031C600.324 164.064 594.969 168.579 592.072 174.584C589.176 180.588 588.975 187.59 591.514 194.048C594.053 200.507 599.124 205.893 605.611 209.022C612.098 212.151 619.47 212.767 626.105 210.734C632.74 208.701 638.095 204.186 640.991 198.181Z" fill="#E1E1E1"/>
<path d="M758.996 159.193L699.071 174.111C692.008 175.87 687.671 183.097 689.433 190.173L717.19 301.667C718.951 308.743 726.171 313.093 733.234 311.335L793.159 296.416C800.221 294.658 804.558 287.43 802.797 280.355L775.04 168.861C773.278 161.785 766.059 157.435 758.996 159.193ZM713.514 177.347L747.756 168.822L748.824 173.11L714.581 181.635L713.514 177.347ZM761.061 295.299C758.79 295.864 756.388 295.503 754.382 294.294C752.376 293.085 750.931 291.128 750.365 288.854C749.799 286.579 750.158 284.173 751.363 282.165C752.568 280.157 754.52 278.711 756.791 278.146C759.061 277.581 761.463 277.942 763.469 279.151C765.475 280.36 766.92 282.317 767.486 284.591C768.053 286.866 767.694 289.272 766.489 291.28C765.284 293.288 763.331 294.734 761.061 295.299ZM788.898 261.045L720.413 278.095L699.061 192.33L767.547 175.28L788.898 261.045Z" fill="#E1E1E1"/>
<path d="M923.264 186.47C921.984 186.534 920.992 186.214 920.288 185.51C919.616 184.774 919.28 183.846 919.28 182.726C919.28 181.862 919.52 181.11 920 180.47C920.48 179.83 921.2 179.478 922.16 179.414L923.504 179.318C924.656 179.254 925.504 178.982 926.048 178.502C926.592 177.99 926.864 177.158 926.864 176.006V156.278C926.864 154.806 927.248 153.702 928.016 152.966C928.784 152.198 929.872 151.814 931.28 151.814C932.688 151.814 933.776 152.198 934.544 152.966C935.312 153.702 935.696 154.806 935.696 156.278V175.862C935.696 178.07 935.296 179.942 934.496 181.478C933.696 182.982 932.496 184.15 930.896 184.982C929.328 185.782 927.36 186.246 924.992 186.374L923.264 186.47ZM949.407 186.614C947.583 186.614 945.967 186.278 944.559 185.606C943.183 184.934 942.095 184.022 941.295 182.87C940.527 181.686 940.143 180.342 940.143 178.838C940.143 177.11 940.591 175.75 941.487 174.758C942.383 173.766 943.823 173.062 945.807 172.646C947.791 172.198 950.431 171.974 953.727 171.974H956.367V176.006H953.727C952.479 176.006 951.439 176.102 950.607 176.294C949.807 176.454 949.215 176.726 948.831 177.11C948.447 177.462 948.255 177.926 948.255 178.502C948.255 179.238 948.511 179.846 949.023 180.326C949.567 180.806 950.335 181.046 951.327 181.046C952.127 181.046 952.831 180.87 953.439 180.518C954.079 180.166 954.591 179.686 954.975 179.078C955.359 178.438 955.551 177.702 955.551 176.87V171.302C955.551 170.15 955.247 169.334 954.639 168.854C954.063 168.374 953.055 168.134 951.615 168.134C950.847 168.134 949.983 168.23 949.023 168.422C948.063 168.582 946.991 168.886 945.807 169.334C944.943 169.654 944.207 169.702 943.599 169.478C942.991 169.254 942.511 168.87 942.159 168.326C941.839 167.782 941.679 167.19 941.679 166.55C941.711 165.91 941.919 165.302 942.303 164.726C942.719 164.15 943.343 163.702 944.175 163.382C945.711 162.806 947.119 162.422 948.399 162.23C949.711 162.038 950.911 161.942 951.999 161.942C954.623 161.942 956.783 162.326 958.479 163.094C960.207 163.83 961.487 164.982 962.319 166.55C963.183 168.086 963.615 170.07 963.615 172.502V182.198C963.615 183.606 963.279 184.678 962.607 185.414C961.935 186.15 960.959 186.518 959.679 186.518C958.367 186.518 957.359 186.15 956.655 185.414C955.983 184.678 955.647 183.606 955.647 182.198V180.95L955.935 181.622C955.775 182.646 955.407 183.526 954.831 184.262C954.255 184.998 953.503 185.574 952.575 185.99C951.647 186.406 950.591 186.614 949.407 186.614ZM980.192 195.254C978.432 195.254 976.784 195.126 975.248 194.87C973.712 194.646 972.384 194.31 971.264 193.862C970.336 193.542 969.68 193.078 969.296 192.47C968.912 191.862 968.736 191.222 968.768 190.55C968.8 189.878 968.976 189.27 969.296 188.726C969.648 188.182 970.112 187.782 970.688 187.526C971.264 187.302 971.904 187.318 972.608 187.574C974.016 188.15 975.296 188.518 976.448 188.678C977.6 188.87 978.576 188.966 979.376 188.966C981.328 188.966 982.784 188.55 983.744 187.718C984.736 186.918 985.232 185.654 985.232 183.926V180.902H985.616C985.136 182.246 984.16 183.35 982.688 184.214C981.216 185.046 979.616 185.462 977.888 185.462C975.776 185.462 973.936 184.982 972.368 184.022C970.8 183.03 969.568 181.654 968.672 179.894C967.808 178.134 967.376 176.07 967.376 173.702C967.376 171.91 967.632 170.294 968.144 168.854C968.656 167.414 969.36 166.182 970.256 165.158C971.184 164.134 972.288 163.35 973.568 162.806C974.88 162.23 976.32 161.942 977.888 161.942C979.68 161.942 981.28 162.358 982.688 163.19C984.128 164.022 985.088 165.11 985.568 166.454L985.088 168.422V166.31C985.088 164.934 985.456 163.878 986.192 163.142C986.96 162.406 988.016 162.038 989.36 162.038C990.704 162.038 991.728 162.406 992.432 163.142C993.168 163.878 993.536 164.934 993.536 166.31V182.918C993.536 187.014 992.384 190.086 990.08 192.134C987.776 194.214 984.48 195.254 980.192 195.254ZM980.528 179.174C981.488 179.174 982.304 178.966 982.976 178.55C983.648 178.102 984.176 177.478 984.56 176.678C984.944 175.846 985.136 174.854 985.136 173.702C985.136 171.974 984.72 170.63 983.888 169.67C983.056 168.71 981.936 168.23 980.528 168.23C979.632 168.23 978.832 168.454 978.128 168.902C977.424 169.318 976.88 169.942 976.496 170.774C976.144 171.574 975.968 172.55 975.968 173.702C975.968 175.43 976.384 176.774 977.216 177.734C978.048 178.694 979.152 179.174 980.528 179.174ZM1006.73 186.614C1004.91 186.614 1003.29 186.278 1001.89 185.606C1000.51 184.934 999.423 184.022 998.623 182.87C997.855 181.686 997.471 180.342 997.471 178.838C997.471 177.11 997.919 175.75 998.815 174.758C999.711 173.766 1001.15 173.062 1003.13 172.646C1005.12 172.198 1007.76 171.974 1011.05 171.974H1013.69V176.006H1011.05C1009.81 176.006 1008.77 176.102 1007.93 176.294C1007.13 176.454 1006.54 176.726 1006.16 177.11C1005.77 177.462 1005.58 177.926 1005.58 178.502C1005.58 179.238 1005.84 179.846 1006.35 180.326C1006.89 180.806 1007.66 181.046 1008.65 181.046C1009.45 181.046 1010.16 180.87 1010.77 180.518C1011.41 180.166 1011.92 179.686 1012.3 179.078C1012.69 178.438 1012.88 177.702 1012.88 176.87V171.302C1012.88 170.15 1012.57 169.334 1011.97 168.854C1011.39 168.374 1010.38 168.134 1008.94 168.134C1008.17 168.134 1007.31 168.23 1006.35 168.422C1005.39 168.582 1004.32 168.886 1003.13 169.334C1002.27 169.654 1001.53 169.702 1000.93 169.478C1000.32 169.254 999.839 168.87 999.487 168.326C999.167 167.782 999.007 167.19 999.007 166.55C999.039 165.91 999.247 165.302 999.631 164.726C1000.05 164.15 1000.67 163.702 1001.5 163.382C1003.04 162.806 1004.45 162.422 1005.73 162.23C1007.04 162.038 1008.24 161.942 1009.33 161.942C1011.95 161.942 1014.11 162.326 1015.81 163.094C1017.53 163.83 1018.81 164.982 1019.65 166.55C1020.51 168.086 1020.94 170.07 1020.94 172.502V182.198C1020.94 183.606 1020.61 184.678 1019.93 185.414C1019.26 186.15 1018.29 186.518 1017.01 186.518C1015.69 186.518 1014.69 186.15 1013.98 185.414C1013.31 184.678 1012.97 183.606 1012.97 182.198V180.95L1013.26 181.622C1013.1 182.646 1012.73 183.526 1012.16 184.262C1011.58 184.998 1010.83 185.574 1009.9 185.99C1008.97 186.406 1007.92 186.614 1006.73 186.614ZM1034.78 186.614C1031.71 186.614 1029.44 185.798 1027.97 184.166C1026.53 182.502 1025.81 180.006 1025.81 176.678V156.134C1025.81 154.726 1026.18 153.654 1026.91 152.918C1027.65 152.182 1028.69 151.814 1030.03 151.814C1031.41 151.814 1032.46 152.182 1033.2 152.918C1033.97 153.654 1034.35 154.726 1034.35 156.134V176.39C1034.35 177.574 1034.58 178.438 1035.02 178.982C1035.5 179.526 1036.11 179.798 1036.85 179.798C1037.07 179.798 1037.3 179.782 1037.52 179.75C1037.78 179.686 1038.05 179.638 1038.34 179.606C1038.88 179.606 1039.28 179.814 1039.54 180.23C1039.82 180.646 1039.97 181.494 1039.97 182.774C1039.97 183.894 1039.74 184.742 1039.3 185.318C1038.85 185.862 1038.16 186.214 1037.23 186.374C1036.98 186.406 1036.61 186.454 1036.13 186.518C1035.65 186.582 1035.2 186.614 1034.78 186.614ZM1050.7 186.614C1048.88 186.614 1047.26 186.278 1045.86 185.606C1044.48 184.934 1043.39 184.022 1042.59 182.87C1041.82 181.686 1041.44 180.342 1041.44 178.838C1041.44 177.11 1041.89 175.75 1042.78 174.758C1043.68 173.766 1045.12 173.062 1047.1 172.646C1049.09 172.198 1051.73 171.974 1055.02 171.974H1057.66V176.006H1055.02C1053.78 176.006 1052.74 176.102 1051.9 176.294C1051.1 176.454 1050.51 176.726 1050.13 177.11C1049.74 177.462 1049.55 177.926 1049.55 178.502C1049.55 179.238 1049.81 179.846 1050.32 180.326C1050.86 180.806 1051.63 181.046 1052.62 181.046C1053.42 181.046 1054.13 180.87 1054.74 180.518C1055.38 180.166 1055.89 179.686 1056.27 179.078C1056.66 178.438 1056.85 177.702 1056.85 176.87V171.302C1056.85 170.15 1056.54 169.334 1055.94 168.854C1055.36 168.374 1054.35 168.134 1052.91 168.134C1052.14 168.134 1051.28 168.23 1050.32 168.422C1049.36 168.582 1048.29 168.886 1047.1 169.334C1046.24 169.654 1045.5 169.702 1044.9 169.478C1044.29 169.254 1043.81 168.87 1043.46 168.326C1043.14 167.782 1042.98 167.19 1042.98 166.55C1043.01 165.91 1043.22 165.302 1043.6 164.726C1044.02 164.15 1044.64 163.702 1045.47 163.382C1047.01 162.806 1048.42 162.422 1049.7 162.23C1051.01 162.038 1052.21 161.942 1053.3 161.942C1055.92 161.942 1058.08 162.326 1059.78 163.094C1061.5 163.83 1062.78 164.982 1063.62 166.55C1064.48 168.086 1064.91 170.07 1064.91 172.502V182.198C1064.91 183.606 1064.58 184.678 1063.9 185.414C1063.23 186.15 1062.26 186.518 1060.98 186.518C1059.66 186.518 1058.66 186.15 1057.95 185.414C1057.28 184.678 1056.94 183.606 1056.94 182.198V180.95L1057.23 181.622C1057.07 182.646 1056.7 183.526 1056.13 184.262C1055.55 184.998 1054.8 185.574 1053.87 185.99C1052.94 186.406 1051.89 186.614 1050.7 186.614ZM1074 186.518C1072.66 186.518 1071.62 186.15 1070.88 185.414C1070.14 184.678 1069.78 183.606 1069.78 182.198V156.134C1069.78 154.726 1070.14 153.654 1070.88 152.918C1071.62 152.182 1072.66 151.814 1074 151.814C1075.38 151.814 1076.43 152.182 1077.17 152.918C1077.94 153.654 1078.32 154.726 1078.32 156.134V166.598H1077.55C1078.32 165.094 1079.41 163.942 1080.82 163.142C1082.26 162.342 1083.89 161.942 1085.71 161.942C1087.6 161.942 1089.15 162.31 1090.37 163.046C1091.58 163.75 1092.5 164.87 1093.1 166.406C1093.71 167.91 1094.02 169.814 1094.02 172.118V182.198C1094.02 183.606 1093.65 184.678 1092.91 185.414C1092.18 186.15 1091.12 186.518 1089.74 186.518C1088.37 186.518 1087.31 186.15 1086.58 185.414C1085.84 184.678 1085.47 183.606 1085.47 182.198V172.454C1085.47 171.014 1085.22 169.99 1084.7 169.382C1084.22 168.774 1083.5 168.47 1082.54 168.47C1081.26 168.47 1080.24 168.886 1079.47 169.718C1078.7 170.518 1078.32 171.606 1078.32 172.982V182.198C1078.32 185.078 1076.88 186.518 1074 186.518ZM938.048 251.614C936.224 251.614 934.592 251.182 933.152 250.318C931.744 249.422 930.816 248.254 930.368 246.814L930.896 244.846V247.198C930.896 248.606 930.528 249.678 929.792 250.414C929.088 251.15 928.064 251.518 926.72 251.518C925.344 251.518 924.288 251.15 923.552 250.414C922.848 249.678 922.496 248.606 922.496 247.198V221.134C922.496 219.726 922.864 218.654 923.6 217.918C924.336 217.182 925.376 216.814 926.72 216.814C928.096 216.814 929.152 217.182 929.888 217.918C930.656 218.654 931.04 219.726 931.04 221.134V231.406H930.464C930.944 230.094 931.888 229.022 933.296 228.19C934.704 227.358 936.288 226.942 938.048 226.942C940.096 226.942 941.888 227.438 943.424 228.43C944.992 229.422 946.208 230.83 947.072 232.654C947.936 234.478 948.368 236.686 948.368 239.278C948.368 241.806 947.936 243.998 947.072 245.854C946.208 247.71 944.992 249.134 943.424 250.126C941.888 251.118 940.096 251.614 938.048 251.614ZM935.36 245.326C936.224 245.326 936.976 245.118 937.616 244.702C938.288 244.254 938.816 243.598 939.2 242.734C939.584 241.838 939.776 240.686 939.776 239.278C939.776 237.134 939.36 235.598 938.528 234.67C937.696 233.71 936.64 233.23 935.36 233.23C934.496 233.23 933.728 233.438 933.056 233.854C932.384 234.27 931.856 234.926 931.472 235.822C931.088 236.686 930.896 237.838 930.896 239.278C930.896 241.39 931.312 242.926 932.144 243.886C932.976 244.846 934.048 245.326 935.36 245.326ZM960.469 251.614C958.645 251.614 957.029 251.278 955.621 250.606C954.245 249.934 953.157 249.022 952.357 247.87C951.589 246.686 951.205 245.342 951.205 243.838C951.205 242.11 951.653 240.75 952.549 239.758C953.445 238.766 954.885 238.062 956.869 237.646C958.853 237.198 961.493 236.974 964.789 236.974H967.429V241.006H964.789C963.541 241.006 962.501 241.102 961.669 241.294C960.869 241.454 960.277 241.726 959.893 242.11C959.509 242.462 959.317 242.926 959.317 243.502C959.317 244.238 959.573 244.846 960.085 245.326C960.629 245.806 961.397 246.046 962.389 246.046C963.189 246.046 963.893 245.87 964.501 245.518C965.141 245.166 965.653 244.686 966.037 244.078C966.421 243.438 966.613 242.702 966.613 241.87V236.302C966.613 235.15 966.309 234.334 965.701 233.854C965.125 233.374 964.117 233.134 962.677 233.134C961.909 233.134 961.045 233.23 960.085 233.422C959.125 233.582 958.053 233.886 956.869 234.334C956.005 234.654 955.269 234.702 954.661 234.478C954.053 234.254 953.573 233.87 953.221 233.326C952.901 232.782 952.741 232.19 952.741 231.55C952.773 230.91 952.981 230.302 953.365 229.726C953.781 229.15 954.405 228.702 955.237 228.382C956.773 227.806 958.181 227.422 959.461 227.23C960.773 227.038 961.973 226.942 963.061 226.942C965.685 226.942 967.845 227.326 969.541 228.094C971.269 228.83 972.549 229.982 973.381 231.55C974.245 233.086 974.677 235.07 974.677 237.502V247.198C974.677 248.606 974.341 249.678 973.669 250.414C972.997 251.15 972.021 251.518 970.741 251.518C969.429 251.518 968.421 251.15 967.717 250.414C967.045 249.678 966.709 248.606 966.709 247.198V245.95L966.997 246.622C966.837 247.646 966.469 248.526 965.893 249.262C965.317 249.998 964.565 250.574 963.637 250.99C962.709 251.406 961.653 251.614 960.469 251.614ZM983.91 251.518C982.502 251.518 981.414 251.15 980.646 250.414C979.91 249.678 979.542 248.606 979.542 247.198V231.31C979.542 229.934 979.894 228.878 980.598 228.142C981.334 227.406 982.374 227.038 983.718 227.038C985.062 227.038 986.086 227.406 986.79 228.142C987.494 228.878 987.846 229.934 987.846 231.31V233.278H987.366C987.686 231.358 988.502 229.838 989.814 228.718C991.158 227.598 992.822 227.006 994.806 226.942C995.734 226.91 996.422 227.15 996.87 227.662C997.35 228.142 997.606 229.054 997.638 230.398C997.638 231.55 997.398 232.462 996.918 233.134C996.438 233.806 995.526 234.206 994.182 234.334L993.078 234.43C991.382 234.59 990.15 235.07 989.382 235.87C988.614 236.638 988.23 237.79 988.23 239.326V247.198C988.23 248.606 987.862 249.678 987.126 250.414C986.39 251.15 985.318 251.518 983.91 251.518ZM1008.33 251.614C1006.5 251.614 1004.89 251.278 1003.48 250.606C1002.1 249.934 1001.02 249.022 1000.22 247.87C999.449 246.686 999.065 245.342 999.065 243.838C999.065 242.11 999.513 240.75 1000.41 239.758C1001.3 238.766 1002.74 238.062 1004.73 237.646C1006.71 237.198 1009.35 236.974 1012.65 236.974H1015.29V241.006H1012.65C1011.4 241.006 1010.36 241.102 1009.53 241.294C1008.73 241.454 1008.14 241.726 1007.75 242.11C1007.37 242.462 1007.18 242.926 1007.18 243.502C1007.18 244.238 1007.43 244.846 1007.94 245.326C1008.49 245.806 1009.26 246.046 1010.25 246.046C1011.05 246.046 1011.75 245.87 1012.36 245.518C1013 245.166 1013.51 244.686 1013.9 244.078C1014.28 243.438 1014.47 242.702 1014.47 241.87V236.302C1014.47 235.15 1014.17 234.334 1013.56 233.854C1012.98 233.374 1011.98 233.134 1010.54 233.134C1009.77 233.134 1008.9 233.23 1007.94 233.422C1006.98 233.582 1005.91 233.886 1004.73 234.334C1003.86 234.654 1003.13 234.702 1002.52 234.478C1001.91 234.254 1001.43 233.87 1001.08 233.326C1000.76 232.782 1000.6 232.19 1000.6 231.55C1000.63 230.91 1000.84 230.302 1001.22 229.726C1001.64 229.15 1002.26 228.702 1003.1 228.382C1004.63 227.806 1006.04 227.422 1007.32 227.23C1008.63 227.038 1009.83 226.942 1010.92 226.942C1013.54 226.942 1015.7 227.326 1017.4 228.094C1019.13 228.83 1020.41 229.982 1021.24 231.55C1022.1 233.086 1022.54 235.07 1022.54 237.502V247.198C1022.54 248.606 1022.2 249.678 1021.53 250.414C1020.86 251.15 1019.88 251.518 1018.6 251.518C1017.29 251.518 1016.28 251.15 1015.58 250.414C1014.9 249.678 1014.57 248.606 1014.57 247.198V245.95L1014.86 246.622C1014.7 247.646 1014.33 248.526 1013.75 249.262C1013.18 249.998 1012.42 250.574 1011.5 250.99C1010.57 251.406 1009.51 251.614 1008.33 251.614ZM1031.63 251.518C1030.28 251.518 1029.24 251.15 1028.51 250.414C1027.77 249.678 1027.4 248.606 1027.4 247.198V231.31C1027.4 229.934 1027.75 228.878 1028.46 228.142C1029.19 227.406 1030.23 227.038 1031.58 227.038C1032.92 227.038 1033.95 227.406 1034.65 228.142C1035.35 228.878 1035.71 229.934 1035.71 231.31V233.566L1035.18 231.598C1035.95 230.094 1037.03 228.942 1038.44 228.142C1039.88 227.342 1041.51 226.942 1043.34 226.942C1045.23 226.942 1046.78 227.31 1047.99 228.046C1049.21 228.75 1050.12 229.87 1050.73 231.406C1051.34 232.91 1051.64 234.814 1051.64 237.118V247.198C1051.64 248.606 1051.27 249.678 1050.54 250.414C1049.8 251.15 1048.75 251.518 1047.37 251.518C1045.99 251.518 1044.94 251.15 1044.2 250.414C1043.47 249.678 1043.1 248.606 1043.1 247.198V237.454C1043.1 236.014 1042.84 234.99 1042.33 234.382C1041.85 233.774 1041.13 233.47 1040.17 233.47C1038.89 233.47 1037.87 233.886 1037.1 234.718C1036.33 235.518 1035.95 236.606 1035.95 237.982V247.198C1035.95 250.078 1034.51 251.518 1031.63 251.518ZM1068.22 260.254C1066.46 260.254 1064.82 260.126 1063.28 259.87C1061.74 259.646 1060.42 259.31 1059.3 258.862C1058.37 258.542 1057.71 258.078 1057.33 257.47C1056.94 256.862 1056.77 256.222 1056.8 255.55C1056.83 254.878 1057.01 254.27 1057.33 253.726C1057.68 253.182 1058.14 252.782 1058.72 252.526C1059.3 252.302 1059.94 252.318 1060.64 252.574C1062.05 253.15 1063.33 253.518 1064.48 253.678C1065.63 253.87 1066.61 253.966 1067.41 253.966C1069.36 253.966 1070.82 253.55 1071.78 252.718C1072.77 251.918 1073.26 250.654 1073.26 248.926V245.902H1073.65C1073.17 247.246 1072.19 248.35 1070.72 249.214C1069.25 250.046 1067.65 250.462 1065.92 250.462C1063.81 250.462 1061.97 249.982 1060.4 249.022C1058.83 248.03 1057.6 246.654 1056.7 244.894C1055.84 243.134 1055.41 241.07 1055.41 238.702C1055.41 236.91 1055.66 235.294 1056.18 233.854C1056.69 232.414 1057.39 231.182 1058.29 230.158C1059.22 229.134 1060.32 228.35 1061.6 227.806C1062.91 227.23 1064.35 226.942 1065.92 226.942C1067.71 226.942 1069.31 227.358 1070.72 228.19C1072.16 229.022 1073.12 230.11 1073.6 231.454L1073.12 233.422V231.31C1073.12 229.934 1073.49 228.878 1074.22 228.142C1074.99 227.406 1076.05 227.038 1077.39 227.038C1078.74 227.038 1079.76 227.406 1080.46 228.142C1081.2 228.878 1081.57 229.934 1081.57 231.31V247.918C1081.57 252.014 1080.42 255.086 1078.11 257.134C1075.81 259.214 1072.51 260.254 1068.22 260.254ZM1068.56 244.174C1069.52 244.174 1070.34 243.966 1071.01 243.55C1071.68 243.102 1072.21 242.478 1072.59 241.678C1072.98 240.846 1073.17 239.854 1073.17 238.702C1073.17 236.974 1072.75 235.63 1071.92 234.67C1071.09 233.71 1069.97 233.23 1068.56 233.23C1067.66 233.23 1066.86 233.454 1066.16 233.902C1065.46 234.318 1064.91 234.942 1064.53 235.774C1064.18 236.574 1064 237.55 1064 238.702C1064 240.43 1064.42 241.774 1065.25 242.734C1066.08 243.694 1067.18 244.174 1068.56 244.174ZM1090.01 241.534C1089.05 241.534 1088.25 241.214 1087.61 240.574C1086.97 239.934 1086.65 239.134 1086.65 238.174C1086.65 237.214 1086.97 236.43 1087.61 235.822C1088.25 235.182 1089.05 234.862 1090.01 234.862H1099.52C1100.48 234.862 1101.28 235.182 1101.92 235.822C1102.56 236.43 1102.88 237.214 1102.88 238.174C1102.88 239.134 1102.56 239.934 1101.92 240.574C1101.28 241.214 1100.48 241.534 1099.52 241.534H1090.01ZM1123.49 251.614C1121.66 251.614 1120.03 251.182 1118.59 250.318C1117.18 249.422 1116.25 248.254 1115.81 246.814L1116.33 244.846V247.198C1116.33 248.606 1115.97 249.678 1115.23 250.414C1114.53 251.15 1113.5 251.518 1112.16 251.518C1110.78 251.518 1109.73 251.15 1108.99 250.414C1108.29 249.678 1107.93 248.606 1107.93 247.198V221.134C1107.93 219.726 1108.3 218.654 1109.04 217.918C1109.77 217.182 1110.81 216.814 1112.16 216.814C1113.53 216.814 1114.59 217.182 1115.33 217.918C1116.09 218.654 1116.48 219.726 1116.48 221.134V231.406H1115.9C1116.38 230.094 1117.33 229.022 1118.73 228.19C1120.14 227.358 1121.73 226.942 1123.49 226.942C1125.53 226.942 1127.33 227.438 1128.86 228.43C1130.43 229.422 1131.65 230.83 1132.51 232.654C1133.37 234.478 1133.81 236.686 1133.81 239.278C1133.81 241.806 1133.37 243.998 1132.51 245.854C1131.65 247.71 1130.43 249.134 1128.86 250.126C1127.33 251.118 1125.53 251.614 1123.49 251.614ZM1120.8 245.326C1121.66 245.326 1122.41 245.118 1123.05 244.702C1123.73 244.254 1124.25 243.598 1124.64 242.734C1125.02 241.838 1125.21 240.686 1125.21 239.278C1125.21 237.134 1124.8 235.598 1123.97 234.67C1123.13 233.71 1122.08 233.23 1120.8 233.23C1119.93 233.23 1119.17 233.438 1118.49 233.854C1117.82 234.27 1117.29 234.926 1116.91 235.822C1116.53 236.686 1116.33 237.838 1116.33 239.278C1116.33 241.39 1116.75 242.926 1117.58 243.886C1118.41 244.846 1119.49 245.326 1120.8 245.326ZM1145.91 251.614C1144.08 251.614 1142.47 251.278 1141.06 250.606C1139.68 249.934 1138.59 249.022 1137.79 247.87C1137.03 246.686 1136.64 245.342 1136.64 243.838C1136.64 242.11 1137.09 240.75 1137.99 239.758C1138.88 238.766 1140.32 238.062 1142.31 237.646C1144.29 237.198 1146.93 236.974 1150.23 236.974H1152.87V241.006H1150.23C1148.98 241.006 1147.94 241.102 1147.11 241.294C1146.31 241.454 1145.71 241.726 1145.33 242.11C1144.95 242.462 1144.75 242.926 1144.75 243.502C1144.75 244.238 1145.01 244.846 1145.52 245.326C1146.07 245.806 1146.83 246.046 1147.83 246.046C1148.63 246.046 1149.33 245.87 1149.94 245.518C1150.58 245.166 1151.09 244.686 1151.47 244.078C1151.86 243.438 1152.05 242.702 1152.05 241.87V236.302C1152.05 235.15 1151.75 234.334 1151.14 233.854C1150.56 233.374 1149.55 233.134 1148.11 233.134C1147.35 233.134 1146.48 233.23 1145.52 233.422C1144.56 233.582 1143.49 233.886 1142.31 234.334C1141.44 234.654 1140.71 234.702 1140.1 234.478C1139.49 234.254 1139.01 233.87 1138.66 233.326C1138.34 232.782 1138.18 232.19 1138.18 231.55C1138.21 230.91 1138.42 230.302 1138.8 229.726C1139.22 229.15 1139.84 228.702 1140.67 228.382C1142.21 227.806 1143.62 227.422 1144.9 227.23C1146.21 227.038 1147.41 226.942 1148.5 226.942C1151.12 226.942 1153.28 227.326 1154.98 228.094C1156.71 228.83 1157.99 229.982 1158.82 231.55C1159.68 233.086 1160.11 235.07 1160.11 237.502V247.198C1160.11 248.606 1159.78 249.678 1159.11 250.414C1158.43 251.15 1157.46 251.518 1156.18 251.518C1154.87 251.518 1153.86 251.15 1153.15 250.414C1152.48 249.678 1152.15 248.606 1152.15 247.198V245.95L1152.43 246.622C1152.27 247.646 1151.91 248.526 1151.33 249.262C1150.75 249.998 1150 250.574 1149.07 250.99C1148.15 251.406 1147.09 251.614 1145.91 251.614ZM1169.35 251.518C1167.94 251.518 1166.85 251.15 1166.08 250.414C1165.35 249.678 1164.98 248.606 1164.98 247.198V231.31C1164.98 229.934 1165.33 228.878 1166.04 228.142C1166.77 227.406 1167.81 227.038 1169.16 227.038C1170.5 227.038 1171.52 227.406 1172.23 228.142C1172.93 228.878 1173.28 229.934 1173.28 231.31V233.278H1172.8C1173.12 231.358 1173.94 229.838 1175.25 228.718C1176.6 227.598 1178.26 227.006 1180.24 226.942C1181.17 226.91 1181.86 227.15 1182.31 227.662C1182.79 228.142 1183.04 229.054 1183.08 230.398C1183.08 231.55 1182.84 232.462 1182.36 233.134C1181.88 233.806 1180.96 234.206 1179.62 234.334L1178.52 234.43C1176.82 234.59 1175.59 235.07 1174.82 235.87C1174.05 236.638 1173.67 237.79 1173.67 239.326V247.198C1173.67 248.606 1173.3 249.678 1172.56 250.414C1171.83 251.15 1170.76 251.518 1169.35 251.518ZM1193.77 251.614C1191.94 251.614 1190.33 251.278 1188.92 250.606C1187.54 249.934 1186.45 249.022 1185.65 247.87C1184.89 246.686 1184.5 245.342 1184.5 243.838C1184.5 242.11 1184.95 240.75 1185.85 239.758C1186.74 238.766 1188.18 238.062 1190.17 237.646C1192.15 237.198 1194.79 236.974 1198.09 236.974H1200.73V241.006H1198.09C1196.84 241.006 1195.8 241.102 1194.97 241.294C1194.17 241.454 1193.57 241.726 1193.19 242.11C1192.81 242.462 1192.61 242.926 1192.61 243.502C1192.61 244.238 1192.87 244.846 1193.38 245.326C1193.93 245.806 1194.69 246.046 1195.69 246.046C1196.49 246.046 1197.19 245.87 1197.8 245.518C1198.44 245.166 1198.95 244.686 1199.33 244.078C1199.72 243.438 1199.91 242.702 1199.91 241.87V236.302C1199.91 235.15 1199.61 234.334 1199 233.854C1198.42 233.374 1197.41 233.134 1195.97 233.134C1195.21 233.134 1194.34 233.23 1193.38 233.422C1192.42 233.582 1191.35 233.886 1190.17 234.334C1189.3 234.654 1188.57 234.702 1187.96 234.478C1187.35 234.254 1186.87 233.87 1186.52 233.326C1186.2 232.782 1186.04 232.19 1186.04 231.55C1186.07 230.91 1186.28 230.302 1186.66 229.726C1187.08 229.15 1187.7 228.702 1188.53 228.382C1190.07 227.806 1191.48 227.422 1192.76 227.23C1194.07 227.038 1195.27 226.942 1196.36 226.942C1198.98 226.942 1201.14 227.326 1202.84 228.094C1204.57 228.83 1205.85 229.982 1206.68 231.55C1207.54 233.086 1207.97 235.07 1207.97 237.502V247.198C1207.97 248.606 1207.64 249.678 1206.97 250.414C1206.29 251.15 1205.32 251.518 1204.04 251.518C1202.73 251.518 1201.72 251.15 1201.01 250.414C1200.34 249.678 1200.01 248.606 1200.01 247.198V245.95L1200.29 246.622C1200.13 247.646 1199.77 248.526 1199.19 249.262C1198.61 249.998 1197.86 250.574 1196.93 250.99C1196.01 251.406 1194.95 251.614 1193.77 251.614ZM1217.06 251.518C1215.72 251.518 1214.68 251.15 1213.94 250.414C1213.21 249.678 1212.84 248.606 1212.84 247.198V231.31C1212.84 229.934 1213.19 228.878 1213.9 228.142C1214.63 227.406 1215.67 227.038 1217.02 227.038C1218.36 227.038 1219.38 227.406 1220.09 228.142C1220.79 228.878 1221.14 229.934 1221.14 231.31V233.566L1220.62 231.598C1221.38 230.094 1222.47 228.942 1223.88 228.142C1225.32 227.342 1226.95 226.942 1228.78 226.942C1230.66 226.942 1232.22 227.31 1233.43 228.046C1234.65 228.75 1235.56 229.87 1236.17 231.406C1236.78 232.91 1237.08 234.814 1237.08 237.118V247.198C1237.08 248.606 1236.71 249.678 1235.98 250.414C1235.24 251.15 1234.18 251.518 1232.81 251.518C1231.43 251.518 1230.38 251.15 1229.64 250.414C1228.9 249.678 1228.54 248.606 1228.54 247.198V237.454C1228.54 236.014 1228.28 234.99 1227.77 234.382C1227.29 233.774 1226.57 233.47 1225.61 233.47C1224.33 233.47 1223.3 233.886 1222.54 234.718C1221.77 235.518 1221.38 236.606 1221.38 237.982V247.198C1221.38 250.078 1219.94 251.518 1217.06 251.518ZM1253.66 260.254C1251.9 260.254 1250.25 260.126 1248.72 259.87C1247.18 259.646 1245.85 259.31 1244.73 258.862C1243.8 258.542 1243.15 258.078 1242.76 257.47C1242.38 256.862 1242.2 256.222 1242.24 255.55C1242.27 254.878 1242.44 254.27 1242.76 253.726C1243.12 253.182 1243.58 252.782 1244.16 252.526C1244.73 252.302 1245.37 252.318 1246.08 252.574C1247.48 253.15 1248.76 253.518 1249.92 253.678C1251.07 253.87 1252.04 253.966 1252.84 253.966C1254.8 253.966 1256.25 253.55 1257.21 252.718C1258.2 251.918 1258.7 250.654 1258.7 248.926V245.902H1259.08C1258.6 247.246 1257.63 248.35 1256.16 249.214C1254.68 250.046 1253.08 250.462 1251.36 250.462C1249.24 250.462 1247.4 249.982 1245.84 249.022C1244.27 248.03 1243.04 246.654 1242.14 244.894C1241.28 243.134 1240.84 241.07 1240.84 238.702C1240.84 236.91 1241.1 235.294 1241.61 233.854C1242.12 232.414 1242.83 231.182 1243.72 230.158C1244.65 229.134 1245.76 228.35 1247.04 227.806C1248.35 227.23 1249.79 226.942 1251.36 226.942C1253.15 226.942 1254.75 227.358 1256.16 228.19C1257.6 229.022 1258.56 230.11 1259.04 231.454L1258.56 233.422V231.31C1258.56 229.934 1258.92 228.878 1259.66 228.142C1260.43 227.406 1261.48 227.038 1262.83 227.038C1264.17 227.038 1265.2 227.406 1265.9 228.142C1266.64 228.878 1267 229.934 1267 231.31V247.918C1267 252.014 1265.85 255.086 1263.55 257.134C1261.24 259.214 1257.95 260.254 1253.66 260.254ZM1254 244.174C1254.96 244.174 1255.77 243.966 1256.44 243.55C1257.12 243.102 1257.64 242.478 1258.03 241.678C1258.41 240.846 1258.6 239.854 1258.6 238.702C1258.6 236.974 1258.19 235.63 1257.36 234.67C1256.52 233.71 1255.4 233.23 1254 233.23C1253.1 233.23 1252.3 233.454 1251.6 233.902C1250.89 234.318 1250.35 234.942 1249.96 235.774C1249.61 236.574 1249.44 237.55 1249.44 238.702C1249.44 240.43 1249.85 241.774 1250.68 242.734C1251.52 243.694 1252.62 244.174 1254 244.174ZM1276.32 251.518C1274.97 251.518 1273.93 251.15 1273.2 250.414C1272.46 249.678 1272.09 248.606 1272.09 247.198V231.31C1272.09 229.934 1272.44 228.878 1273.15 228.142C1273.88 227.406 1274.92 227.038 1276.27 227.038C1277.61 227.038 1278.64 227.406 1279.34 228.142C1280.04 228.878 1280.4 229.934 1280.4 231.31V233.95L1279.87 231.598C1280.54 230.19 1281.53 229.07 1282.84 228.238C1284.19 227.374 1285.77 226.942 1287.6 226.942C1289.32 226.942 1290.8 227.358 1292.01 228.19C1293.26 229.022 1294.16 230.286 1294.7 231.982H1294.03C1294.76 230.414 1295.87 229.182 1297.34 228.286C1298.81 227.39 1300.44 226.942 1302.24 226.942C1304.09 226.942 1305.61 227.31 1306.8 228.046C1307.98 228.75 1308.86 229.87 1309.44 231.406C1310.04 232.91 1310.35 234.814 1310.35 237.118V247.198C1310.35 248.606 1309.96 249.678 1309.2 250.414C1308.46 251.15 1307.4 251.518 1306.03 251.518C1304.68 251.518 1303.64 251.15 1302.91 250.414C1302.17 249.678 1301.8 248.606 1301.8 247.198V237.358C1301.8 235.982 1301.6 234.99 1301.18 234.382C1300.76 233.774 1300.08 233.47 1299.12 233.47C1297.93 233.47 1297.02 233.886 1296.38 234.718C1295.77 235.55 1295.47 236.734 1295.47 238.27V247.198C1295.47 248.606 1295.1 249.678 1294.36 250.414C1293.63 251.15 1292.57 251.518 1291.2 251.518C1289.82 251.518 1288.76 251.15 1288.03 250.414C1287.29 249.678 1286.92 248.606 1286.92 247.198V237.358C1286.92 235.982 1286.72 234.99 1286.3 234.382C1285.88 233.774 1285.2 233.47 1284.24 233.47C1283.08 233.47 1282.19 233.886 1281.55 234.718C1280.94 235.55 1280.64 236.734 1280.64 238.27V247.198C1280.64 250.078 1279.2 251.518 1276.32 251.518ZM1324.14 251.614C1322.09 251.614 1320.41 251.246 1319.1 250.51C1317.79 249.742 1316.8 248.606 1316.12 247.102C1315.48 245.598 1315.16 243.694 1315.16 241.39V231.31C1315.16 229.902 1315.53 228.846 1316.27 228.142C1317 227.406 1318.06 227.038 1319.44 227.038C1320.81 227.038 1321.87 227.406 1322.6 228.142C1323.34 228.846 1323.71 229.902 1323.71 231.31V241.63C1323.71 242.782 1323.95 243.646 1324.43 244.222C1324.91 244.798 1325.66 245.086 1326.68 245.086C1327.84 245.086 1328.78 244.67 1329.52 243.838C1330.25 243.006 1330.62 241.902 1330.62 240.526V231.31C1330.62 229.902 1330.99 228.846 1331.72 228.142C1332.46 227.406 1333.52 227.038 1334.89 227.038C1336.27 227.038 1337.32 227.406 1338.06 228.142C1338.8 228.846 1339.16 229.902 1339.16 231.31V247.198C1339.16 250.078 1337.79 251.518 1335.04 251.518C1333.69 251.518 1332.65 251.15 1331.92 250.414C1331.18 249.678 1330.81 248.606 1330.81 247.198V244.414L1331.58 246.766C1330.88 248.334 1329.88 249.534 1328.6 250.366C1327.36 251.198 1325.87 251.614 1324.14 251.614ZM931.712 316.614C929.696 316.614 927.904 316.118 926.336 315.126C924.8 314.134 923.584 312.71 922.688 310.854C921.824 308.998 921.392 306.806 921.392 304.278C921.392 301.686 921.824 299.478 922.688 297.654C923.584 295.83 924.8 294.422 926.336 293.43C927.904 292.438 929.696 291.942 931.712 291.942C933.472 291.942 935.056 292.358 936.464 293.19C937.872 294.022 938.816 295.094 939.296 296.406H938.768V286.134C938.768 284.726 939.136 283.654 939.872 282.918C940.608 282.182 941.664 281.814 943.04 281.814C944.384 281.814 945.424 282.182 946.16 282.918C946.928 283.654 947.312 284.726 947.312 286.134V312.198C947.312 313.606 946.944 314.678 946.208 315.414C945.504 316.15 944.464 316.518 943.088 316.518C941.744 316.518 940.704 316.15 939.968 315.414C939.232 314.678 938.864 313.606 938.864 312.198V309.462L939.392 311.814C938.944 313.254 938 314.422 936.56 315.318C935.152 316.182 933.536 316.614 931.712 316.614ZM934.448 310.326C935.312 310.326 936.08 310.118 936.752 309.702C937.424 309.254 937.936 308.598 938.288 307.734C938.672 306.838 938.864 305.686 938.864 304.278C938.864 302.134 938.448 300.598 937.616 299.67C936.784 298.71 935.728 298.23 934.448 298.23C933.584 298.23 932.816 298.438 932.144 298.854C931.472 299.27 930.944 299.926 930.56 300.822C930.176 301.686 929.984 302.838 929.984 304.278C929.984 306.39 930.4 307.926 931.232 308.886C932.064 309.846 933.136 310.326 934.448 310.326ZM965.125 316.614C962.245 316.614 959.749 316.118 957.637 315.126C955.557 314.102 953.957 312.662 952.837 310.806C951.717 308.95 951.157 306.758 951.157 304.23C951.157 301.798 951.685 299.67 952.741 297.846C953.829 295.99 955.301 294.55 957.157 293.526C959.045 292.47 961.189 291.942 963.589 291.942C965.349 291.942 966.949 292.23 968.389 292.806C969.829 293.35 971.061 294.166 972.085 295.254C973.109 296.31 973.877 297.59 974.389 299.094C974.933 300.598 975.205 302.278 975.205 304.134C975.205 304.774 975.029 305.254 974.677 305.574C974.325 305.862 973.765 306.006 972.997 306.006H958.309V301.974H968.965L968.197 302.598C968.197 301.414 968.037 300.454 967.717 299.718C967.397 298.982 966.917 298.422 966.277 298.038C965.669 297.654 964.901 297.462 963.973 297.462C962.981 297.462 962.117 297.702 961.381 298.182C960.677 298.63 960.133 299.302 959.749 300.198C959.365 301.094 959.173 302.214 959.173 303.558V303.99C959.173 306.262 959.669 307.894 960.661 308.886C961.685 309.846 963.253 310.326 965.365 310.326C966.069 310.326 966.869 310.246 967.765 310.086C968.693 309.894 969.573 309.638 970.405 309.318C971.237 308.998 971.957 308.95 972.565 309.174C973.173 309.366 973.637 309.718 973.957 310.23C974.309 310.71 974.501 311.27 974.533 311.91C974.565 312.518 974.421 313.126 974.101 313.734C973.781 314.31 973.253 314.758 972.517 315.078C971.397 315.59 970.197 315.974 968.917 316.23C967.669 316.486 966.405 316.614 965.125 316.614ZM983.11 316.518C981.766 316.518 980.726 316.15 979.99 315.414C979.254 314.678 978.886 313.606 978.886 312.198V296.31C978.886 294.934 979.238 293.878 979.942 293.142C980.678 292.406 981.718 292.038 983.062 292.038C984.406 292.038 985.43 292.406 986.134 293.142C986.838 293.878 987.19 294.934 987.19 296.31V298.566L986.662 296.598C987.43 295.094 988.518 293.942 989.926 293.142C991.366 292.342 992.998 291.942 994.822 291.942C996.71 291.942 998.262 292.31 999.478 293.046C1000.69 293.75 1001.61 294.87 1002.21 296.406C1002.82 297.91 1003.13 299.814 1003.13 302.118V312.198C1003.13 313.606 1002.76 314.678 1002.02 315.414C1001.29 316.15 1000.23 316.518 998.854 316.518C997.478 316.518 996.422 316.15 995.686 315.414C994.95 314.678 994.582 313.606 994.582 312.198V302.454C994.582 301.014 994.326 299.99 993.814 299.382C993.334 298.774 992.614 298.47 991.654 298.47C990.374 298.47 989.35 298.886 988.582 299.718C987.814 300.518 987.43 301.606 987.43 302.982V312.198C987.43 315.078 985.99 316.518 983.11 316.518ZM1019.71 325.254C1017.95 325.254 1016.3 325.126 1014.76 324.87C1013.23 324.646 1011.9 324.31 1010.78 323.862C1009.85 323.542 1009.2 323.078 1008.81 322.47C1008.43 321.862 1008.25 321.222 1008.28 320.55C1008.32 319.878 1008.49 319.27 1008.81 318.726C1009.16 318.182 1009.63 317.782 1010.2 317.526C1010.78 317.302 1011.42 317.318 1012.12 317.574C1013.53 318.15 1014.81 318.518 1015.96 318.678C1017.12 318.87 1018.09 318.966 1018.89 318.966C1020.84 318.966 1022.3 318.55 1023.26 317.718C1024.25 316.918 1024.75 315.654 1024.75 313.926V310.902H1025.13C1024.65 312.246 1023.68 313.35 1022.2 314.214C1020.73 315.046 1019.13 315.462 1017.4 315.462C1015.29 315.462 1013.45 314.982 1011.88 314.022C1010.32 313.03 1009.08 311.654 1008.19 309.894C1007.32 308.134 1006.89 306.07 1006.89 303.702C1006.89 301.91 1007.15 300.294 1007.66 298.854C1008.17 297.414 1008.88 296.182 1009.77 295.158C1010.7 294.134 1011.8 293.35 1013.08 292.806C1014.4 292.23 1015.84 291.942 1017.4 291.942C1019.2 291.942 1020.8 292.358 1022.2 293.19C1023.64 294.022 1024.6 295.11 1025.08 296.454L1024.6 298.422V296.31C1024.6 294.934 1024.97 293.878 1025.71 293.142C1026.48 292.406 1027.53 292.038 1028.88 292.038C1030.22 292.038 1031.24 292.406 1031.95 293.142C1032.68 293.878 1033.05 294.934 1033.05 296.31V312.918C1033.05 317.014 1031.9 320.086 1029.6 322.134C1027.29 324.214 1024 325.254 1019.71 325.254ZM1020.04 309.174C1021 309.174 1021.82 308.966 1022.49 308.55C1023.16 308.102 1023.69 307.478 1024.08 306.678C1024.46 305.846 1024.65 304.854 1024.65 303.702C1024.65 301.974 1024.24 300.63 1023.4 299.67C1022.57 298.71 1021.45 298.23 1020.04 298.23C1019.15 298.23 1018.35 298.454 1017.64 298.902C1016.94 299.318 1016.4 299.942 1016.01 300.774C1015.66 301.574 1015.48 302.55 1015.48 303.702C1015.48 305.43 1015.9 306.774 1016.73 307.734C1017.56 308.694 1018.67 309.174 1020.04 309.174ZM1046.25 316.614C1044.43 316.614 1042.81 316.278 1041.4 315.606C1040.03 314.934 1038.94 314.022 1038.14 312.87C1037.37 311.686 1036.99 310.342 1036.99 308.838C1036.99 307.11 1037.43 305.75 1038.33 304.758C1039.23 303.766 1040.67 303.062 1042.65 302.646C1044.63 302.198 1047.27 301.974 1050.57 301.974H1053.21V306.006H1050.57C1049.32 306.006 1048.28 306.102 1047.45 306.294C1046.65 306.454 1046.06 306.726 1045.67 307.11C1045.29 307.462 1045.1 307.926 1045.1 308.502C1045.1 309.238 1045.35 309.846 1045.87 310.326C1046.41 310.806 1047.18 311.046 1048.17 311.046C1048.97 311.046 1049.67 310.87 1050.28 310.518C1050.92 310.166 1051.43 309.686 1051.82 309.078C1052.2 308.438 1052.39 307.702 1052.39 306.87V301.302C1052.39 300.15 1052.09 299.334 1051.48 298.854C1050.91 298.374 1049.9 298.134 1048.46 298.134C1047.69 298.134 1046.83 298.23 1045.87 298.422C1044.91 298.582 1043.83 298.886 1042.65 299.334C1041.79 299.654 1041.05 299.702 1040.44 299.478C1039.83 299.254 1039.35 298.87 1039 298.326C1038.68 297.782 1038.52 297.19 1038.52 296.55C1038.55 295.91 1038.76 295.302 1039.15 294.726C1039.56 294.15 1040.19 293.702 1041.02 293.382C1042.55 292.806 1043.96 292.422 1045.24 292.23C1046.55 292.038 1047.75 291.942 1048.84 291.942C1051.47 291.942 1053.63 292.326 1055.32 293.094C1057.05 293.83 1058.33 294.982 1059.16 296.55C1060.03 298.086 1060.46 300.07 1060.46 302.502V312.198C1060.46 313.606 1060.12 314.678 1059.45 315.414C1058.78 316.15 1057.8 316.518 1056.52 316.518C1055.21 316.518 1054.2 316.15 1053.5 315.414C1052.83 314.678 1052.49 313.606 1052.49 312.198V310.95L1052.78 311.622C1052.62 312.646 1052.25 313.526 1051.67 314.262C1051.1 314.998 1050.35 315.574 1049.42 315.99C1048.49 316.406 1047.43 316.614 1046.25 316.614ZM1069.55 316.518C1068.2 316.518 1067.16 316.15 1066.43 315.414C1065.69 314.678 1065.32 313.606 1065.32 312.198V296.31C1065.32 294.934 1065.68 293.878 1066.38 293.142C1067.12 292.406 1068.16 292.038 1069.5 292.038C1070.84 292.038 1071.87 292.406 1072.57 293.142C1073.28 293.878 1073.63 294.934 1073.63 296.31V298.566L1073.1 296.598C1073.87 295.094 1074.96 293.942 1076.36 293.142C1077.8 292.342 1079.44 291.942 1081.26 291.942C1083.15 291.942 1084.7 292.31 1085.92 293.046C1087.13 293.75 1088.04 294.87 1088.65 296.406C1089.26 297.91 1089.56 299.814 1089.56 302.118V312.198C1089.56 313.606 1089.2 314.678 1088.46 315.414C1087.72 316.15 1086.67 316.518 1085.29 316.518C1083.92 316.518 1082.86 316.15 1082.12 315.414C1081.39 314.678 1081.02 313.606 1081.02 312.198V302.454C1081.02 301.014 1080.76 299.99 1080.25 299.382C1079.77 298.774 1079.05 298.47 1078.09 298.47C1076.81 298.47 1075.79 298.886 1075.02 299.718C1074.25 300.518 1073.87 301.606 1073.87 302.982V312.198C1073.87 315.078 1072.43 316.518 1069.55 316.518ZM1123.72 316.614C1121.9 316.614 1120.26 316.182 1118.82 315.318C1117.42 314.422 1116.49 313.254 1116.04 311.814L1116.57 309.846V312.198C1116.57 313.606 1116.2 314.678 1115.46 315.414C1114.76 316.15 1113.74 316.518 1112.39 316.518C1111.02 316.518 1109.96 316.15 1109.22 315.414C1108.52 314.678 1108.17 313.606 1108.17 312.198V286.134C1108.17 284.726 1108.54 283.654 1109.27 282.918C1110.01 282.182 1111.05 281.814 1112.39 281.814C1113.77 281.814 1114.82 282.182 1115.56 282.918C1116.33 283.654 1116.71 284.726 1116.71 286.134V296.406H1116.14C1116.62 295.094 1117.56 294.022 1118.97 293.19C1120.38 292.358 1121.96 291.942 1123.72 291.942C1125.77 291.942 1127.56 292.438 1129.1 293.43C1130.66 294.422 1131.88 295.83 1132.74 297.654C1133.61 299.478 1134.04 301.686 1134.04 304.278C1134.04 306.806 1133.61 308.998 1132.74 310.854C1131.88 312.71 1130.66 314.134 1129.1 315.126C1127.56 316.118 1125.77 316.614 1123.72 316.614ZM1121.03 310.326C1121.9 310.326 1122.65 310.118 1123.29 309.702C1123.96 309.254 1124.49 308.598 1124.87 307.734C1125.26 306.838 1125.45 305.686 1125.45 304.278C1125.45 302.134 1125.03 300.598 1124.2 299.67C1123.37 298.71 1122.31 298.23 1121.03 298.23C1120.17 298.23 1119.4 298.438 1118.73 298.854C1118.06 299.27 1117.53 299.926 1117.14 300.822C1116.76 301.686 1116.57 302.838 1116.57 304.278C1116.57 306.39 1116.98 307.926 1117.82 308.886C1118.65 309.846 1119.72 310.326 1121.03 310.326ZM1146.14 316.614C1144.32 316.614 1142.7 316.278 1141.29 315.606C1139.92 314.934 1138.83 314.022 1138.03 312.87C1137.26 311.686 1136.88 310.342 1136.88 308.838C1136.88 307.11 1137.33 305.75 1138.22 304.758C1139.12 303.766 1140.56 303.062 1142.54 302.646C1144.53 302.198 1147.17 301.974 1150.46 301.974H1153.1V306.006H1150.46C1149.21 306.006 1148.17 306.102 1147.34 306.294C1146.54 306.454 1145.95 306.726 1145.57 307.11C1145.18 307.462 1144.99 307.926 1144.99 308.502C1144.99 309.238 1145.25 309.846 1145.76 310.326C1146.3 310.806 1147.07 311.046 1148.06 311.046C1148.86 311.046 1149.57 310.87 1150.17 310.518C1150.81 310.166 1151.33 309.686 1151.71 309.078C1152.09 308.438 1152.29 307.702 1152.29 306.87V301.302C1152.29 300.15 1151.98 299.334 1151.37 298.854C1150.8 298.374 1149.79 298.134 1148.35 298.134C1147.58 298.134 1146.72 298.23 1145.76 298.422C1144.8 298.582 1143.73 298.886 1142.54 299.334C1141.68 299.654 1140.94 299.702 1140.33 299.478C1139.73 299.254 1139.25 298.87 1138.89 298.326C1138.57 297.782 1138.41 297.19 1138.41 296.55C1138.45 295.91 1138.65 295.302 1139.04 294.726C1139.45 294.15 1140.08 293.702 1140.91 293.382C1142.45 292.806 1143.85 292.422 1145.13 292.23C1146.45 292.038 1147.65 291.942 1148.73 291.942C1151.36 291.942 1153.52 292.326 1155.21 293.094C1156.94 293.83 1158.22 294.982 1159.05 296.55C1159.92 298.086 1160.35 300.07 1160.35 302.502V312.198C1160.35 313.606 1160.01 314.678 1159.34 315.414C1158.67 316.15 1157.69 316.518 1156.41 316.518C1155.1 316.518 1154.09 316.15 1153.39 315.414C1152.72 314.678 1152.38 313.606 1152.38 312.198V310.95L1152.67 311.622C1152.51 312.646 1152.14 313.526 1151.57 314.262C1150.99 314.998 1150.24 315.574 1149.31 315.99C1148.38 316.406 1147.33 316.614 1146.14 316.614ZM1169.44 316.518C1168.09 316.518 1167.05 316.118 1166.32 315.318C1165.58 314.518 1165.21 313.366 1165.21 311.862V296.694C1165.21 295.19 1165.58 294.038 1166.32 293.238C1167.05 292.438 1168.09 292.038 1169.44 292.038C1170.81 292.038 1171.87 292.438 1172.61 293.238C1173.37 294.038 1173.76 295.19 1173.76 296.694V311.862C1173.76 313.366 1173.39 314.518 1172.65 315.318C1171.92 316.118 1170.85 316.518 1169.44 316.518ZM1169.44 288.63C1167.93 288.63 1166.77 288.278 1165.93 287.574C1165.13 286.87 1164.73 285.846 1164.73 284.502C1164.73 283.19 1165.13 282.182 1165.93 281.478C1166.77 280.774 1167.93 280.422 1169.44 280.422C1171.01 280.422 1172.19 280.774 1172.99 281.478C1173.79 282.182 1174.19 283.19 1174.19 284.502C1174.19 285.846 1173.79 286.87 1172.99 287.574C1172.19 288.278 1171.01 288.63 1169.44 288.63ZM1182.94 316.518C1181.59 316.518 1180.55 316.15 1179.82 315.414C1179.08 314.678 1178.71 313.606 1178.71 312.198V286.134C1178.71 284.726 1179.08 283.654 1179.82 282.918C1180.55 282.182 1181.59 281.814 1182.94 281.814C1184.31 281.814 1185.37 282.182 1186.11 282.918C1186.87 283.654 1187.26 284.726 1187.26 286.134V301.974H1187.35L1193.21 294.87C1194.01 293.91 1194.75 293.206 1195.42 292.758C1196.12 292.278 1197.07 292.038 1198.25 292.038C1199.43 292.038 1200.35 292.326 1200.99 292.902C1201.63 293.478 1201.96 294.198 1201.99 295.062C1202.03 295.926 1201.67 296.79 1200.94 297.654L1194.6 305.142V302.166L1201.71 311.094C1202.41 311.99 1202.7 312.87 1202.57 313.734C1202.44 314.566 1202.03 315.238 1201.32 315.75C1200.65 316.262 1199.79 316.518 1198.73 316.518C1197.45 316.518 1196.43 316.294 1195.66 315.846C1194.89 315.366 1194.12 314.63 1193.35 313.638L1187.35 306.246H1187.26V312.198C1187.26 315.078 1185.82 316.518 1182.94 316.518ZM1210.59 304.998C1209.76 304.998 1209.09 304.726 1208.57 304.182C1208.09 303.638 1207.79 302.886 1207.66 301.926L1205.98 287.43C1205.76 285.766 1206.06 284.422 1206.89 283.398C1207.73 282.342 1208.96 281.814 1210.59 281.814C1212.25 281.814 1213.49 282.342 1214.29 283.398C1215.09 284.422 1215.37 285.766 1215.15 287.43L1213.52 301.926C1213.39 302.886 1213.09 303.638 1212.61 304.182C1212.13 304.726 1211.45 304.998 1210.59 304.998ZM1210.59 316.374C1209.15 316.374 1208 315.942 1207.13 315.078C1206.3 314.214 1205.89 313.078 1205.89 311.67C1205.89 310.294 1206.3 309.19 1207.13 308.358C1208 307.494 1209.15 307.062 1210.59 307.062C1212.09 307.062 1213.25 307.494 1214.05 308.358C1214.88 309.19 1215.29 310.294 1215.29 311.67C1215.29 313.078 1214.88 314.214 1214.05 315.078C1213.25 315.942 1212.09 316.374 1210.59 316.374Z" fill="#E1E1E1"/>
<circle cx="1896" cy="379" r="250" fill="#BF4F51"/>
<circle cx="-23" cy="55" r="250" fill="#BF4F51"/>
</g>
<defs>
<clipPath id="clip0_395_571">
<rect width="1920" height="388" fill="white"/>
</clipPath>
</defs>
</svg>
