<svg width="744" height="314" viewBox="0 0 744 314" fill="none" xmlns="http://www.w3.org/2000/svg">
<g clip-path="url(#clip0_412_587)">
<rect width="792" height="314" fill="#B22D30"/>
<circle cx="-51" cy="155" r="141" fill="#BF4F51"/>
<path d="M79.1392 169.501H129.835C130.428 169.501 131.019 169.539 131.607 169.614C131.407 168.216 130.927 166.873 130.195 165.666C129.463 164.459 128.494 163.413 127.347 162.59C126.199 161.768 124.897 161.186 123.519 160.88C122.14 160.575 120.715 160.551 119.327 160.812L77.6342 167.93H77.5867C74.9696 168.43 72.6423 169.911 71.0801 172.069C73.4337 170.395 76.251 169.498 79.1392 169.501ZM129.835 173.303H79.1392C76.451 173.306 73.8738 174.376 71.973 176.276C70.0721 178.177 69.0029 180.754 69 183.443V213.86C69.0029 216.549 70.0721 219.126 71.973 221.027C73.8738 222.927 76.451 223.997 79.1392 224H129.835C132.524 223.997 135.101 222.927 137.002 221.027C138.902 219.126 139.972 216.549 139.975 213.86V183.443C139.972 180.754 138.902 178.177 137.002 176.276C135.101 174.376 132.524 173.306 129.835 173.303ZM122.31 203.721C121.307 203.721 120.327 203.424 119.494 202.867C118.66 202.31 118.01 201.518 117.626 200.592C117.243 199.665 117.142 198.646 117.338 197.662C117.534 196.679 118.016 195.776 118.725 195.067C119.434 194.358 120.338 193.875 121.321 193.679C122.304 193.484 123.324 193.584 124.25 193.968C125.177 194.351 125.968 195.001 126.525 195.835C127.082 196.669 127.38 197.649 127.38 198.651C127.38 199.996 126.846 201.286 125.895 202.236C124.944 203.187 123.655 203.721 122.31 203.721Z" fill="#E1E1E1"/>
<path d="M69.0796 194.136V178.373C69.0796 174.939 70.9807 169.184 77.5791 167.937C83.1794 166.887 88.7243 166.887 88.7243 166.887C88.7243 166.887 92.3681 169.422 89.358 169.422C86.3479 169.422 86.4272 173.303 89.358 173.303C92.2889 173.303 89.358 177.026 89.358 177.026L77.5553 190.413L69.0796 194.136Z" fill="#E1E1E1"/>
<path d="M111.239 113.123C111.439 112.71 111.452 112.228 111.278 111.784C111.103 111.34 110.754 110.969 110.308 110.754C109.862 110.539 109.355 110.497 108.898 110.636C108.442 110.776 108.074 111.087 107.874 111.5L104.118 119.286L99.0712 116.851C98.625 116.636 98.1179 116.594 97.6615 116.734C97.2051 116.874 96.8368 117.184 96.6376 117.597C96.4383 118.01 96.4245 118.492 96.5992 118.936C96.7738 119.38 97.1226 119.751 97.5688 119.966L104.299 123.212C104.745 123.428 105.252 123.47 105.708 123.33C106.165 123.19 106.533 122.88 106.732 122.467L111.239 113.123Z" fill="#E1E1E1"/>
<path d="M85.1803 142.785C82.0847 141.291 80.6919 137.756 82.0756 134.887L84.8701 129.094C83.5982 126.319 82.9399 123.355 82.9383 120.395C82.9367 117.435 83.5917 114.546 84.8606 111.916C87.5304 106.382 92.5274 102.661 98.3091 101.234L101.105 95.4382C102.487 92.5729 106.12 91.4572 109.219 92.9521L124.919 100.526C128.015 102.019 129.408 105.555 128.024 108.423L125.229 114.216C127.283 118.695 127.715 123.616 126.455 128.168C126.713 128.248 126.953 128.38 127.159 128.554C127.365 128.728 127.531 128.94 127.647 129.175C127.762 129.411 127.825 129.665 127.829 129.919C127.834 130.173 127.78 130.422 127.672 130.648L126.17 133.763C126.061 133.989 125.9 134.187 125.698 134.342C125.497 134.498 125.259 134.607 125.002 134.664C124.745 134.72 124.475 134.721 124.211 134.668C123.947 134.614 123.694 134.507 123.471 134.354C120.693 138.174 116.573 140.899 111.789 142.079L108.994 147.872C107.612 150.738 103.98 151.853 100.881 150.358L85.1803 142.785ZM121.874 129.771C123.866 125.641 124.004 120.825 122.258 116.382C120.512 111.94 117.024 108.235 112.562 106.083C108.1 103.93 103.029 103.507 98.465 104.905C93.9011 106.303 90.2178 109.409 88.2255 113.539C86.2332 117.67 86.095 122.486 87.8414 126.928C89.5878 131.371 93.0757 135.076 97.5377 137.228C102 139.38 107.071 139.804 111.634 138.406C116.198 137.007 119.882 133.901 121.874 129.771Z" fill="#E1E1E1"/>
<path d="M203.043 102.953L161.824 113.215C156.966 114.424 153.983 119.396 155.194 124.262L174.287 200.953C175.498 205.82 180.464 208.813 185.322 207.603L226.542 197.341C231.4 196.132 234.383 191.16 233.171 186.294L214.079 109.603C212.867 104.736 207.901 101.743 203.043 102.953ZM171.758 115.44L195.312 109.576L196.046 112.526L172.492 118.39L171.758 115.44ZM204.463 196.573C202.902 196.962 201.249 196.713 199.869 195.882C198.49 195.05 197.496 193.704 197.106 192.14C196.717 190.575 196.964 188.92 197.792 187.539C198.621 186.158 199.964 185.163 201.526 184.774C203.088 184.386 204.74 184.634 206.12 185.466C207.5 186.297 208.494 187.643 208.883 189.208C209.273 190.772 209.026 192.427 208.197 193.809C207.368 195.19 206.025 196.184 204.463 196.573ZM223.611 173.011L176.504 184.739L161.817 125.746L208.925 114.018L223.611 173.011Z" fill="#E1E1E1"/>
<path d="M283.095 114.32C282.028 114.373 281.201 114.107 280.615 113.52C280.055 112.907 279.775 112.133 279.775 111.2C279.775 110.48 279.975 109.853 280.375 109.32C280.775 108.787 281.375 108.493 282.175 108.44L283.295 108.36C284.255 108.307 284.961 108.08 285.415 107.68C285.868 107.253 286.095 106.56 286.095 105.6V89.16C286.095 87.9333 286.415 87.0133 287.055 86.4C287.695 85.76 288.601 85.44 289.775 85.44C290.948 85.44 291.855 85.76 292.495 86.4C293.135 87.0133 293.455 87.9333 293.455 89.16V105.48C293.455 107.32 293.121 108.88 292.455 110.16C291.788 111.413 290.788 112.387 289.455 113.08C288.148 113.747 286.508 114.133 284.535 114.24L283.095 114.32ZM304.88 114.44C303.36 114.44 302.014 114.16 300.84 113.6C299.694 113.04 298.787 112.28 298.12 111.32C297.48 110.333 297.16 109.213 297.16 107.96C297.16 106.52 297.534 105.387 298.28 104.56C299.027 103.733 300.227 103.147 301.88 102.8C303.534 102.427 305.734 102.24 308.48 102.24H310.68V105.6H308.48C307.44 105.6 306.574 105.68 305.88 105.84C305.214 105.973 304.72 106.2 304.4 106.52C304.08 106.813 303.92 107.2 303.92 107.68C303.92 108.293 304.134 108.8 304.56 109.2C305.014 109.6 305.654 109.8 306.48 109.8C307.147 109.8 307.734 109.653 308.24 109.36C308.774 109.067 309.2 108.667 309.52 108.16C309.84 107.627 310 107.013 310 106.32V101.68C310 100.72 309.747 100.04 309.24 99.64C308.76 99.24 307.92 99.04 306.72 99.04C306.08 99.04 305.36 99.12 304.56 99.28C303.76 99.4133 302.867 99.6667 301.88 100.04C301.16 100.307 300.547 100.347 300.04 100.16C299.534 99.9733 299.134 99.6533 298.84 99.2C298.574 98.7467 298.44 98.2533 298.44 97.72C298.467 97.1867 298.64 96.68 298.96 96.2C299.307 95.72 299.827 95.3467 300.52 95.08C301.8 94.6 302.974 94.28 304.04 94.12C305.134 93.96 306.134 93.88 307.04 93.88C309.227 93.88 311.027 94.2 312.44 94.84C313.88 95.4533 314.947 96.4133 315.64 97.72C316.36 99 316.72 100.653 316.72 102.68V110.76C316.72 111.933 316.44 112.827 315.88 113.44C315.32 114.053 314.507 114.36 313.44 114.36C312.347 114.36 311.507 114.053 310.92 113.44C310.36 112.827 310.08 111.933 310.08 110.76V109.72L310.32 110.28C310.187 111.133 309.88 111.867 309.4 112.48C308.92 113.093 308.294 113.573 307.52 113.92C306.747 114.267 305.867 114.44 304.88 114.44ZM330.535 121.64C329.068 121.64 327.695 121.533 326.415 121.32C325.135 121.133 324.028 120.853 323.095 120.48C322.321 120.213 321.775 119.827 321.455 119.32C321.135 118.813 320.988 118.28 321.015 117.72C321.041 117.16 321.188 116.653 321.455 116.2C321.748 115.747 322.135 115.413 322.615 115.2C323.095 115.013 323.628 115.027 324.215 115.24C325.388 115.72 326.455 116.027 327.415 116.16C328.375 116.32 329.188 116.4 329.855 116.4C331.481 116.4 332.695 116.053 333.495 115.36C334.321 114.693 334.735 113.64 334.735 112.2V109.68H335.055C334.655 110.8 333.841 111.72 332.615 112.44C331.388 113.133 330.055 113.48 328.615 113.48C326.855 113.48 325.321 113.08 324.015 112.28C322.708 111.453 321.681 110.307 320.935 108.84C320.215 107.373 319.855 105.653 319.855 103.68C319.855 102.187 320.068 100.84 320.495 99.64C320.921 98.44 321.508 97.4133 322.255 96.56C323.028 95.7067 323.948 95.0533 325.015 94.6C326.108 94.12 327.308 93.88 328.615 93.88C330.108 93.88 331.441 94.2267 332.615 94.92C333.815 95.6133 334.615 96.52 335.015 97.64L334.615 99.28V97.52C334.615 96.3733 334.921 95.4933 335.535 94.88C336.175 94.2667 337.055 93.96 338.175 93.96C339.295 93.96 340.148 94.2667 340.735 94.88C341.348 95.4933 341.655 96.3733 341.655 97.52V111.36C341.655 114.773 340.695 117.333 338.775 119.04C336.855 120.773 334.108 121.64 330.535 121.64ZM330.815 108.24C331.615 108.24 332.295 108.067 332.855 107.72C333.415 107.347 333.855 106.827 334.175 106.16C334.495 105.467 334.655 104.64 334.655 103.68C334.655 102.24 334.308 101.12 333.615 100.32C332.921 99.52 331.988 99.12 330.815 99.12C330.068 99.12 329.401 99.3067 328.815 99.68C328.228 100.027 327.775 100.547 327.455 101.24C327.161 101.907 327.015 102.72 327.015 103.68C327.015 105.12 327.361 106.24 328.055 107.04C328.748 107.84 329.668 108.24 330.815 108.24ZM352.654 114.44C351.134 114.44 349.787 114.16 348.614 113.6C347.467 113.04 346.561 112.28 345.894 111.32C345.254 110.333 344.934 109.213 344.934 107.96C344.934 106.52 345.307 105.387 346.054 104.56C346.801 103.733 348.001 103.147 349.654 102.8C351.307 102.427 353.507 102.24 356.254 102.24H358.454V105.6H356.254C355.214 105.6 354.347 105.68 353.654 105.84C352.987 105.973 352.494 106.2 352.174 106.52C351.854 106.813 351.694 107.2 351.694 107.68C351.694 108.293 351.907 108.8 352.334 109.2C352.787 109.6 353.427 109.8 354.254 109.8C354.921 109.8 355.507 109.653 356.014 109.36C356.547 109.067 356.974 108.667 357.294 108.16C357.614 107.627 357.774 107.013 357.774 106.32V101.68C357.774 100.72 357.521 100.04 357.014 99.64C356.534 99.24 355.694 99.04 354.494 99.04C353.854 99.04 353.134 99.12 352.334 99.28C351.534 99.4133 350.641 99.6667 349.654 100.04C348.934 100.307 348.321 100.347 347.814 100.16C347.307 99.9733 346.907 99.6533 346.614 99.2C346.347 98.7467 346.214 98.2533 346.214 97.72C346.241 97.1867 346.414 96.68 346.734 96.2C347.081 95.72 347.601 95.3467 348.294 95.08C349.574 94.6 350.747 94.28 351.814 94.12C352.907 93.96 353.907 93.88 354.814 93.88C357.001 93.88 358.801 94.2 360.214 94.84C361.654 95.4533 362.721 96.4133 363.414 97.72C364.134 99 364.494 100.653 364.494 102.68V110.76C364.494 111.933 364.214 112.827 363.654 113.44C363.094 114.053 362.281 114.36 361.214 114.36C360.121 114.36 359.281 114.053 358.694 113.44C358.134 112.827 357.854 111.933 357.854 110.76V109.72L358.094 110.28C357.961 111.133 357.654 111.867 357.174 112.48C356.694 113.093 356.067 113.573 355.294 113.92C354.521 114.267 353.641 114.44 352.654 114.44ZM376.028 114.44C373.468 114.44 371.575 113.76 370.348 112.4C369.148 111.013 368.548 108.933 368.548 106.16V89.04C368.548 87.8667 368.855 86.9733 369.468 86.36C370.082 85.7467 370.948 85.44 372.068 85.44C373.215 85.44 374.095 85.7467 374.708 86.36C375.348 86.9733 375.668 87.8667 375.668 89.04V105.92C375.668 106.907 375.855 107.627 376.228 108.08C376.628 108.533 377.135 108.76 377.748 108.76C377.935 108.76 378.122 108.747 378.308 108.72C378.522 108.667 378.748 108.627 378.988 108.6C379.442 108.6 379.775 108.773 379.988 109.12C380.228 109.467 380.348 110.173 380.348 111.24C380.348 112.173 380.162 112.88 379.788 113.36C379.415 113.813 378.842 114.107 378.068 114.24C377.855 114.267 377.548 114.307 377.148 114.36C376.748 114.413 376.375 114.44 376.028 114.44ZM389.295 114.44C387.775 114.44 386.428 114.16 385.255 113.6C384.108 113.04 383.201 112.28 382.535 111.32C381.895 110.333 381.575 109.213 381.575 107.96C381.575 106.52 381.948 105.387 382.695 104.56C383.441 103.733 384.641 103.147 386.295 102.8C387.948 102.427 390.148 102.24 392.895 102.24H395.095V105.6H392.895C391.855 105.6 390.988 105.68 390.295 105.84C389.628 105.973 389.135 106.2 388.815 106.52C388.495 106.813 388.335 107.2 388.335 107.68C388.335 108.293 388.548 108.8 388.975 109.2C389.428 109.6 390.068 109.8 390.895 109.8C391.561 109.8 392.148 109.653 392.655 109.36C393.188 109.067 393.615 108.667 393.935 108.16C394.255 107.627 394.415 107.013 394.415 106.32V101.68C394.415 100.72 394.161 100.04 393.655 99.64C393.175 99.24 392.335 99.04 391.135 99.04C390.495 99.04 389.775 99.12 388.975 99.28C388.175 99.4133 387.281 99.6667 386.295 100.04C385.575 100.307 384.961 100.347 384.455 100.16C383.948 99.9733 383.548 99.6533 383.255 99.2C382.988 98.7467 382.855 98.2533 382.855 97.72C382.881 97.1867 383.055 96.68 383.375 96.2C383.721 95.72 384.241 95.3467 384.935 95.08C386.215 94.6 387.388 94.28 388.455 94.12C389.548 93.96 390.548 93.88 391.455 93.88C393.641 93.88 395.441 94.2 396.855 94.84C398.295 95.4533 399.361 96.4133 400.055 97.72C400.775 99 401.135 100.653 401.135 102.68V110.76C401.135 111.933 400.855 112.827 400.295 113.44C399.735 114.053 398.921 114.36 397.855 114.36C396.761 114.36 395.921 114.053 395.335 113.44C394.775 112.827 394.495 111.933 394.495 110.76V109.72L394.735 110.28C394.601 111.133 394.295 111.867 393.815 112.48C393.335 113.093 392.708 113.573 391.935 113.92C391.161 114.267 390.281 114.44 389.295 114.44ZM408.709 114.36C407.589 114.36 406.722 114.053 406.109 113.44C405.496 112.827 405.189 111.933 405.189 110.76V89.04C405.189 87.8667 405.496 86.9733 406.109 86.36C406.722 85.7467 407.589 85.44 408.709 85.44C409.856 85.44 410.736 85.7467 411.349 86.36C411.989 86.9733 412.309 87.8667 412.309 89.04V97.76H411.669C412.309 96.5067 413.216 95.5467 414.389 94.88C415.589 94.2133 416.949 93.88 418.469 93.88C420.042 93.88 421.336 94.1867 422.349 94.8C423.362 95.3867 424.122 96.32 424.629 97.6C425.136 98.8533 425.389 100.44 425.389 102.36V110.76C425.389 111.933 425.082 112.827 424.469 113.44C423.856 114.053 422.976 114.36 421.829 114.36C420.682 114.36 419.802 114.053 419.189 113.44C418.576 112.827 418.269 111.933 418.269 110.76V102.64C418.269 101.44 418.056 100.587 417.629 100.08C417.229 99.5733 416.629 99.32 415.829 99.32C414.762 99.32 413.909 99.6667 413.269 100.36C412.629 101.027 412.309 101.933 412.309 103.08V110.76C412.309 113.16 411.109 114.36 408.709 114.36ZM295.415 169.44C293.895 169.44 292.535 169.08 291.335 168.36C290.161 167.613 289.388 166.64 289.015 165.44L289.455 163.8V165.76C289.455 166.933 289.148 167.827 288.535 168.44C287.948 169.053 287.095 169.36 285.975 169.36C284.828 169.36 283.948 169.053 283.335 168.44C282.748 167.827 282.455 166.933 282.455 165.76V144.04C282.455 142.867 282.761 141.973 283.375 141.36C283.988 140.747 284.855 140.44 285.975 140.44C287.121 140.44 288.001 140.747 288.615 141.36C289.255 141.973 289.575 142.867 289.575 144.04V152.6H289.095C289.495 151.507 290.281 150.613 291.455 149.92C292.628 149.227 293.948 148.88 295.415 148.88C297.121 148.88 298.615 149.293 299.895 150.12C301.201 150.947 302.215 152.12 302.935 153.64C303.655 155.16 304.015 157 304.015 159.16C304.015 161.267 303.655 163.093 302.935 164.64C302.215 166.187 301.201 167.373 299.895 168.2C298.615 169.027 297.121 169.44 295.415 169.44ZM293.175 164.2C293.895 164.2 294.521 164.027 295.055 163.68C295.615 163.307 296.055 162.76 296.375 162.04C296.695 161.293 296.855 160.333 296.855 159.16C296.855 157.373 296.508 156.093 295.815 155.32C295.121 154.52 294.241 154.12 293.175 154.12C292.455 154.12 291.815 154.293 291.255 154.64C290.695 154.987 290.255 155.533 289.935 156.28C289.615 157 289.455 157.96 289.455 159.16C289.455 160.92 289.801 162.2 290.495 163C291.188 163.8 292.081 164.2 293.175 164.2ZM314.099 169.44C312.579 169.44 311.233 169.16 310.059 168.6C308.913 168.04 308.006 167.28 307.339 166.32C306.699 165.333 306.379 164.213 306.379 162.96C306.379 161.52 306.753 160.387 307.499 159.56C308.246 158.733 309.446 158.147 311.099 157.8C312.753 157.427 314.953 157.24 317.699 157.24H319.899V160.6H317.699C316.659 160.6 315.793 160.68 315.099 160.84C314.433 160.973 313.939 161.2 313.619 161.52C313.299 161.813 313.139 162.2 313.139 162.68C313.139 163.293 313.353 163.8 313.779 164.2C314.233 164.6 314.873 164.8 315.699 164.8C316.366 164.8 316.953 164.653 317.459 164.36C317.993 164.067 318.419 163.667 318.739 163.16C319.059 162.627 319.219 162.013 319.219 161.32V156.68C319.219 155.72 318.966 155.04 318.459 154.64C317.979 154.24 317.139 154.04 315.939 154.04C315.299 154.04 314.579 154.12 313.779 154.28C312.979 154.413 312.086 154.667 311.099 155.04C310.379 155.307 309.766 155.347 309.259 155.16C308.753 154.973 308.353 154.653 308.059 154.2C307.793 153.747 307.659 153.253 307.659 152.72C307.686 152.187 307.859 151.68 308.179 151.2C308.526 150.72 309.046 150.347 309.739 150.08C311.019 149.6 312.193 149.28 313.259 149.12C314.353 148.96 315.353 148.88 316.259 148.88C318.446 148.88 320.246 149.2 321.659 149.84C323.099 150.453 324.166 151.413 324.859 152.72C325.579 154 325.939 155.653 325.939 157.68V165.76C325.939 166.933 325.659 167.827 325.099 168.44C324.539 169.053 323.726 169.36 322.659 169.36C321.566 169.36 320.726 169.053 320.139 168.44C319.579 167.827 319.299 166.933 319.299 165.76V164.72L319.539 165.28C319.406 166.133 319.099 166.867 318.619 167.48C318.139 168.093 317.513 168.573 316.739 168.92C315.966 169.267 315.086 169.44 314.099 169.44ZM333.634 169.36C332.46 169.36 331.554 169.053 330.914 168.44C330.3 167.827 329.994 166.933 329.994 165.76V152.52C329.994 151.373 330.287 150.493 330.874 149.88C331.487 149.267 332.354 148.96 333.474 148.96C334.594 148.96 335.447 149.267 336.034 149.88C336.62 150.493 336.914 151.373 336.914 152.52V154.16H336.514C336.78 152.56 337.46 151.293 338.554 150.36C339.674 149.427 341.06 148.933 342.714 148.88C343.487 148.853 344.06 149.053 344.434 149.48C344.834 149.88 345.047 150.64 345.074 151.76C345.074 152.72 344.874 153.48 344.474 154.04C344.074 154.6 343.314 154.933 342.194 155.04L341.274 155.12C339.86 155.253 338.834 155.653 338.194 156.32C337.554 156.96 337.234 157.92 337.234 159.2V165.76C337.234 166.933 336.927 167.827 336.314 168.44C335.7 169.053 334.807 169.36 333.634 169.36ZM353.982 169.44C352.462 169.44 351.115 169.16 349.942 168.6C348.795 168.04 347.889 167.28 347.222 166.32C346.582 165.333 346.262 164.213 346.262 162.96C346.262 161.52 346.635 160.387 347.382 159.56C348.129 158.733 349.329 158.147 350.982 157.8C352.635 157.427 354.835 157.24 357.582 157.24H359.782V160.6H357.582C356.542 160.6 355.675 160.68 354.982 160.84C354.315 160.973 353.822 161.2 353.502 161.52C353.182 161.813 353.022 162.2 353.022 162.68C353.022 163.293 353.235 163.8 353.662 164.2C354.115 164.6 354.755 164.8 355.582 164.8C356.249 164.8 356.835 164.653 357.342 164.36C357.875 164.067 358.302 163.667 358.622 163.16C358.942 162.627 359.102 162.013 359.102 161.32V156.68C359.102 155.72 358.849 155.04 358.342 154.64C357.862 154.24 357.022 154.04 355.822 154.04C355.182 154.04 354.462 154.12 353.662 154.28C352.862 154.413 351.969 154.667 350.982 155.04C350.262 155.307 349.649 155.347 349.142 155.16C348.635 154.973 348.235 154.653 347.942 154.2C347.675 153.747 347.542 153.253 347.542 152.72C347.569 152.187 347.742 151.68 348.062 151.2C348.409 150.72 348.929 150.347 349.622 150.08C350.902 149.6 352.075 149.28 353.142 149.12C354.235 148.96 355.235 148.88 356.142 148.88C358.329 148.88 360.129 149.2 361.542 149.84C362.982 150.453 364.049 151.413 364.742 152.72C365.462 154 365.822 155.653 365.822 157.68V165.76C365.822 166.933 365.542 167.827 364.982 168.44C364.422 169.053 363.609 169.36 362.542 169.36C361.449 169.36 360.609 169.053 360.022 168.44C359.462 167.827 359.182 166.933 359.182 165.76V164.72L359.422 165.28C359.289 166.133 358.982 166.867 358.502 167.48C358.022 168.093 357.395 168.573 356.622 168.92C355.849 169.267 354.969 169.44 353.982 169.44ZM373.396 169.36C372.276 169.36 371.41 169.053 370.796 168.44C370.183 167.827 369.876 166.933 369.876 165.76V152.52C369.876 151.373 370.17 150.493 370.756 149.88C371.37 149.267 372.236 148.96 373.356 148.96C374.476 148.96 375.33 149.267 375.916 149.88C376.503 150.493 376.796 151.373 376.796 152.52V154.4L376.356 152.76C376.996 151.507 377.903 150.547 379.076 149.88C380.276 149.213 381.636 148.88 383.156 148.88C384.73 148.88 386.023 149.187 387.036 149.8C388.05 150.387 388.81 151.32 389.316 152.6C389.823 153.853 390.076 155.44 390.076 157.36V165.76C390.076 166.933 389.77 167.827 389.156 168.44C388.543 169.053 387.663 169.36 386.516 169.36C385.37 169.36 384.49 169.053 383.876 168.44C383.263 167.827 382.956 166.933 382.956 165.76V157.64C382.956 156.44 382.743 155.587 382.316 155.08C381.916 154.573 381.316 154.32 380.516 154.32C379.45 154.32 378.596 154.667 377.956 155.36C377.316 156.027 376.996 156.933 376.996 158.08V165.76C376.996 168.16 375.796 169.36 373.396 169.36ZM403.894 176.64C402.428 176.64 401.054 176.533 399.774 176.32C398.494 176.133 397.388 175.853 396.454 175.48C395.681 175.213 395.134 174.827 394.814 174.32C394.494 173.813 394.348 173.28 394.374 172.72C394.401 172.16 394.548 171.653 394.814 171.2C395.108 170.747 395.494 170.413 395.974 170.2C396.454 170.013 396.988 170.027 397.574 170.24C398.748 170.72 399.814 171.027 400.774 171.16C401.734 171.32 402.548 171.4 403.214 171.4C404.841 171.4 406.054 171.053 406.854 170.36C407.681 169.693 408.094 168.64 408.094 167.2V164.68H408.414C408.014 165.8 407.201 166.72 405.974 167.44C404.748 168.133 403.414 168.48 401.974 168.48C400.214 168.48 398.681 168.08 397.374 167.28C396.068 166.453 395.041 165.307 394.294 163.84C393.574 162.373 393.214 160.653 393.214 158.68C393.214 157.187 393.428 155.84 393.854 154.64C394.281 153.44 394.868 152.413 395.614 151.56C396.388 150.707 397.308 150.053 398.374 149.6C399.468 149.12 400.668 148.88 401.974 148.88C403.468 148.88 404.801 149.227 405.974 149.92C407.174 150.613 407.974 151.52 408.374 152.64L407.974 154.28V152.52C407.974 151.373 408.281 150.493 408.894 149.88C409.534 149.267 410.414 148.96 411.534 148.96C412.654 148.96 413.508 149.267 414.094 149.88C414.708 150.493 415.014 151.373 415.014 152.52V166.36C415.014 169.773 414.054 172.333 412.134 174.04C410.214 175.773 407.468 176.64 403.894 176.64ZM404.174 163.24C404.974 163.24 405.654 163.067 406.214 162.72C406.774 162.347 407.214 161.827 407.534 161.16C407.854 160.467 408.014 159.64 408.014 158.68C408.014 157.24 407.668 156.12 406.974 155.32C406.281 154.52 405.348 154.12 404.174 154.12C403.428 154.12 402.761 154.307 402.174 154.68C401.588 155.027 401.134 155.547 400.814 156.24C400.521 156.907 400.374 157.72 400.374 158.68C400.374 160.12 400.721 161.24 401.414 162.04C402.108 162.84 403.028 163.24 404.174 163.24ZM422.053 161.04C421.253 161.04 420.587 160.773 420.053 160.24C419.52 159.707 419.253 159.04 419.253 158.24C419.253 157.44 419.52 156.787 420.053 156.28C420.587 155.747 421.253 155.48 422.053 155.48H429.973C430.773 155.48 431.44 155.747 431.973 156.28C432.507 156.787 432.773 157.44 432.773 158.24C432.773 159.04 432.507 159.707 431.973 160.24C431.44 160.773 430.773 161.04 429.973 161.04H422.053ZM449.946 169.44C448.426 169.44 447.066 169.08 445.866 168.36C444.692 167.613 443.919 166.64 443.546 165.44L443.986 163.8V165.76C443.986 166.933 443.679 167.827 443.066 168.44C442.479 169.053 441.626 169.36 440.506 169.36C439.359 169.36 438.479 169.053 437.866 168.44C437.279 167.827 436.986 166.933 436.986 165.76V144.04C436.986 142.867 437.292 141.973 437.906 141.36C438.519 140.747 439.386 140.44 440.506 140.44C441.652 140.44 442.532 140.747 443.146 141.36C443.786 141.973 444.106 142.867 444.106 144.04V152.6H443.626C444.026 151.507 444.812 150.613 445.986 149.92C447.159 149.227 448.479 148.88 449.946 148.88C451.652 148.88 453.146 149.293 454.426 150.12C455.732 150.947 456.746 152.12 457.466 153.64C458.186 155.16 458.546 157 458.546 159.16C458.546 161.267 458.186 163.093 457.466 164.64C456.746 166.187 455.732 167.373 454.426 168.2C453.146 169.027 451.652 169.44 449.946 169.44ZM447.706 164.2C448.426 164.2 449.052 164.027 449.586 163.68C450.146 163.307 450.586 162.76 450.906 162.04C451.226 161.293 451.386 160.333 451.386 159.16C451.386 157.373 451.039 156.093 450.346 155.32C449.652 154.52 448.772 154.12 447.706 154.12C446.986 154.12 446.346 154.293 445.786 154.64C445.226 154.987 444.786 155.533 444.466 156.28C444.146 157 443.986 157.96 443.986 159.16C443.986 160.92 444.332 162.2 445.026 163C445.719 163.8 446.612 164.2 447.706 164.2ZM468.63 169.44C467.11 169.44 465.764 169.16 464.59 168.6C463.444 168.04 462.537 167.28 461.87 166.32C461.23 165.333 460.91 164.213 460.91 162.96C460.91 161.52 461.284 160.387 462.03 159.56C462.777 158.733 463.977 158.147 465.63 157.8C467.284 157.427 469.484 157.24 472.23 157.24H474.43V160.6H472.23C471.19 160.6 470.324 160.68 469.63 160.84C468.964 160.973 468.47 161.2 468.15 161.52C467.83 161.813 467.67 162.2 467.67 162.68C467.67 163.293 467.884 163.8 468.31 164.2C468.764 164.6 469.404 164.8 470.23 164.8C470.897 164.8 471.484 164.653 471.99 164.36C472.524 164.067 472.95 163.667 473.27 163.16C473.59 162.627 473.75 162.013 473.75 161.32V156.68C473.75 155.72 473.497 155.04 472.99 154.64C472.51 154.24 471.67 154.04 470.47 154.04C469.83 154.04 469.11 154.12 468.31 154.28C467.51 154.413 466.617 154.667 465.63 155.04C464.91 155.307 464.297 155.347 463.79 155.16C463.284 154.973 462.884 154.653 462.59 154.2C462.324 153.747 462.19 153.253 462.19 152.72C462.217 152.187 462.39 151.68 462.71 151.2C463.057 150.72 463.577 150.347 464.27 150.08C465.55 149.6 466.724 149.28 467.79 149.12C468.884 148.96 469.884 148.88 470.79 148.88C472.977 148.88 474.777 149.2 476.19 149.84C477.63 150.453 478.697 151.413 479.39 152.72C480.11 154 480.47 155.653 480.47 157.68V165.76C480.47 166.933 480.19 167.827 479.63 168.44C479.07 169.053 478.257 169.36 477.19 169.36C476.097 169.36 475.257 169.053 474.67 168.44C474.11 167.827 473.83 166.933 473.83 165.76V164.72L474.07 165.28C473.937 166.133 473.63 166.867 473.15 167.48C472.67 168.093 472.044 168.573 471.27 168.92C470.497 169.267 469.617 169.44 468.63 169.44ZM488.165 169.36C486.991 169.36 486.085 169.053 485.445 168.44C484.831 167.827 484.525 166.933 484.525 165.76V152.52C484.525 151.373 484.818 150.493 485.405 149.88C486.018 149.267 486.885 148.96 488.005 148.96C489.125 148.96 489.978 149.267 490.565 149.88C491.151 150.493 491.445 151.373 491.445 152.52V154.16H491.045C491.311 152.56 491.991 151.293 493.085 150.36C494.205 149.427 495.591 148.933 497.245 148.88C498.018 148.853 498.591 149.053 498.965 149.48C499.365 149.88 499.578 150.64 499.605 151.76C499.605 152.72 499.405 153.48 499.005 154.04C498.605 154.6 497.845 154.933 496.725 155.04L495.805 155.12C494.391 155.253 493.365 155.653 492.725 156.32C492.085 156.96 491.765 157.92 491.765 159.2V165.76C491.765 166.933 491.458 167.827 490.845 168.44C490.231 169.053 489.338 169.36 488.165 169.36ZM508.513 169.44C506.993 169.44 505.647 169.16 504.473 168.6C503.327 168.04 502.42 167.28 501.753 166.32C501.113 165.333 500.793 164.213 500.793 162.96C500.793 161.52 501.167 160.387 501.913 159.56C502.66 158.733 503.86 158.147 505.513 157.8C507.167 157.427 509.367 157.24 512.113 157.24H514.313V160.6H512.113C511.073 160.6 510.207 160.68 509.513 160.84C508.847 160.973 508.353 161.2 508.033 161.52C507.713 161.813 507.553 162.2 507.553 162.68C507.553 163.293 507.767 163.8 508.193 164.2C508.647 164.6 509.287 164.8 510.113 164.8C510.78 164.8 511.367 164.653 511.873 164.36C512.407 164.067 512.833 163.667 513.153 163.16C513.473 162.627 513.633 162.013 513.633 161.32V156.68C513.633 155.72 513.38 155.04 512.873 154.64C512.393 154.24 511.553 154.04 510.353 154.04C509.713 154.04 508.993 154.12 508.193 154.28C507.393 154.413 506.5 154.667 505.513 155.04C504.793 155.307 504.18 155.347 503.673 155.16C503.167 154.973 502.767 154.653 502.473 154.2C502.207 153.747 502.073 153.253 502.073 152.72C502.1 152.187 502.273 151.68 502.593 151.2C502.94 150.72 503.46 150.347 504.153 150.08C505.433 149.6 506.607 149.28 507.673 149.12C508.767 148.96 509.767 148.88 510.673 148.88C512.86 148.88 514.66 149.2 516.073 149.84C517.513 150.453 518.58 151.413 519.273 152.72C519.993 154 520.353 155.653 520.353 157.68V165.76C520.353 166.933 520.073 167.827 519.513 168.44C518.953 169.053 518.14 169.36 517.073 169.36C515.98 169.36 515.14 169.053 514.553 168.44C513.993 167.827 513.713 166.933 513.713 165.76V164.72L513.953 165.28C513.82 166.133 513.513 166.867 513.033 167.48C512.553 168.093 511.927 168.573 511.153 168.92C510.38 169.267 509.5 169.44 508.513 169.44ZM527.928 169.36C526.808 169.36 525.941 169.053 525.328 168.44C524.714 167.827 524.408 166.933 524.408 165.76V152.52C524.408 151.373 524.701 150.493 525.288 149.88C525.901 149.267 526.768 148.96 527.888 148.96C529.008 148.96 529.861 149.267 530.448 149.88C531.034 150.493 531.328 151.373 531.328 152.52V154.4L530.888 152.76C531.528 151.507 532.434 150.547 533.608 149.88C534.808 149.213 536.168 148.88 537.688 148.88C539.261 148.88 540.554 149.187 541.568 149.8C542.581 150.387 543.341 151.32 543.848 152.6C544.354 153.853 544.608 155.44 544.608 157.36V165.76C544.608 166.933 544.301 167.827 543.688 168.44C543.074 169.053 542.194 169.36 541.048 169.36C539.901 169.36 539.021 169.053 538.408 168.44C537.794 167.827 537.488 166.933 537.488 165.76V157.64C537.488 156.44 537.274 155.587 536.848 155.08C536.448 154.573 535.848 154.32 535.048 154.32C533.981 154.32 533.128 154.667 532.488 155.36C531.848 156.027 531.528 156.933 531.528 158.08V165.76C531.528 168.16 530.328 169.36 527.928 169.36ZM558.425 176.64C556.959 176.64 555.585 176.533 554.305 176.32C553.025 176.133 551.919 175.853 550.985 175.48C550.212 175.213 549.665 174.827 549.345 174.32C549.025 173.813 548.879 173.28 548.905 172.72C548.932 172.16 549.079 171.653 549.345 171.2C549.639 170.747 550.025 170.413 550.505 170.2C550.985 170.013 551.519 170.027 552.105 170.24C553.279 170.72 554.345 171.027 555.305 171.16C556.265 171.32 557.079 171.4 557.745 171.4C559.372 171.4 560.585 171.053 561.385 170.36C562.212 169.693 562.625 168.64 562.625 167.2V164.68H562.945C562.545 165.8 561.732 166.72 560.505 167.44C559.279 168.133 557.945 168.48 556.505 168.48C554.745 168.48 553.212 168.08 551.905 167.28C550.599 166.453 549.572 165.307 548.825 163.84C548.105 162.373 547.745 160.653 547.745 158.68C547.745 157.187 547.959 155.84 548.385 154.64C548.812 153.44 549.399 152.413 550.145 151.56C550.919 150.707 551.839 150.053 552.905 149.6C553.999 149.12 555.199 148.88 556.505 148.88C557.999 148.88 559.332 149.227 560.505 149.92C561.705 150.613 562.505 151.52 562.905 152.64L562.505 154.28V152.52C562.505 151.373 562.812 150.493 563.425 149.88C564.065 149.267 564.945 148.96 566.065 148.96C567.185 148.96 568.039 149.267 568.625 149.88C569.239 150.493 569.545 151.373 569.545 152.52V166.36C569.545 169.773 568.585 172.333 566.665 174.04C564.745 175.773 561.999 176.64 558.425 176.64ZM558.705 163.24C559.505 163.24 560.185 163.067 560.745 162.72C561.305 162.347 561.745 161.827 562.065 161.16C562.385 160.467 562.545 159.64 562.545 158.68C562.545 157.24 562.199 156.12 561.505 155.32C560.812 154.52 559.879 154.12 558.705 154.12C557.959 154.12 557.292 154.307 556.705 154.68C556.119 155.027 555.665 155.547 555.345 156.24C555.052 156.907 554.905 157.72 554.905 158.68C554.905 160.12 555.252 161.24 555.945 162.04C556.639 162.84 557.559 163.24 558.705 163.24ZM577.305 169.36C576.185 169.36 575.318 169.053 574.705 168.44C574.091 167.827 573.785 166.933 573.785 165.76V152.52C573.785 151.373 574.078 150.493 574.665 149.88C575.278 149.267 576.145 148.96 577.265 148.96C578.385 148.96 579.238 149.267 579.825 149.88C580.411 150.493 580.705 151.373 580.705 152.52V154.72L580.265 152.76C580.825 151.587 581.651 150.653 582.745 149.96C583.865 149.24 585.185 148.88 586.705 148.88C588.145 148.88 589.371 149.227 590.385 149.92C591.425 150.613 592.171 151.667 592.625 153.08H592.065C592.678 151.773 593.598 150.747 594.825 150C596.051 149.253 597.411 148.88 598.905 148.88C600.451 148.88 601.718 149.187 602.705 149.8C603.691 150.387 604.425 151.32 604.905 152.6C605.411 153.853 605.665 155.44 605.665 157.36V165.76C605.665 166.933 605.345 167.827 604.705 168.44C604.091 169.053 603.211 169.36 602.065 169.36C600.945 169.36 600.078 169.053 599.465 168.44C598.851 167.827 598.545 166.933 598.545 165.76V157.56C598.545 156.413 598.371 155.587 598.025 155.08C597.678 154.573 597.105 154.32 596.305 154.32C595.318 154.32 594.558 154.667 594.025 155.36C593.518 156.053 593.265 157.04 593.265 158.32V165.76C593.265 166.933 592.958 167.827 592.345 168.44C591.731 169.053 590.851 169.36 589.705 169.36C588.558 169.36 587.678 169.053 587.065 168.44C586.451 167.827 586.145 166.933 586.145 165.76V157.56C586.145 156.413 585.971 155.587 585.625 155.08C585.278 154.573 584.705 154.32 583.905 154.32C582.945 154.32 582.198 154.667 581.665 155.36C581.158 156.053 580.905 157.04 580.905 158.32V165.76C580.905 168.16 579.705 169.36 577.305 169.36ZM617.158 169.44C615.452 169.44 614.052 169.133 612.958 168.52C611.865 167.88 611.038 166.933 610.478 165.68C609.945 164.427 609.678 162.84 609.678 160.92V152.52C609.678 151.347 609.985 150.467 610.598 149.88C611.212 149.267 612.092 148.96 613.238 148.96C614.385 148.96 615.265 149.267 615.878 149.88C616.492 150.467 616.798 151.347 616.798 152.52V161.12C616.798 162.08 616.998 162.8 617.398 163.28C617.798 163.76 618.425 164 619.278 164C620.238 164 621.025 163.653 621.638 162.96C622.252 162.267 622.558 161.347 622.558 160.2V152.52C622.558 151.347 622.865 150.467 623.478 149.88C624.092 149.267 624.972 148.96 626.118 148.96C627.265 148.96 628.145 149.267 628.758 149.88C629.372 150.467 629.678 151.347 629.678 152.52V165.76C629.678 168.16 628.532 169.36 626.238 169.36C625.118 169.36 624.252 169.053 623.638 168.44C623.025 167.827 622.718 166.933 622.718 165.76V163.44L623.358 165.4C622.772 166.707 621.945 167.707 620.878 168.4C619.838 169.093 618.598 169.44 617.158 169.44ZM290.135 224.44C288.455 224.44 286.961 224.027 285.655 223.2C284.375 222.373 283.361 221.187 282.615 219.64C281.895 218.093 281.535 216.267 281.535 214.16C281.535 212 281.895 210.16 282.615 208.64C283.361 207.12 284.375 205.947 285.655 205.12C286.961 204.293 288.455 203.88 290.135 203.88C291.601 203.88 292.921 204.227 294.095 204.92C295.268 205.613 296.055 206.507 296.455 207.6H296.015V199.04C296.015 197.867 296.321 196.973 296.935 196.36C297.548 195.747 298.428 195.44 299.575 195.44C300.695 195.44 301.561 195.747 302.175 196.36C302.815 196.973 303.135 197.867 303.135 199.04V220.76C303.135 221.933 302.828 222.827 302.215 223.44C301.628 224.053 300.761 224.36 299.615 224.36C298.495 224.36 297.628 224.053 297.015 223.44C296.401 222.827 296.095 221.933 296.095 220.76V218.48L296.535 220.44C296.161 221.64 295.375 222.613 294.175 223.36C293.001 224.08 291.655 224.44 290.135 224.44ZM292.415 219.2C293.135 219.2 293.775 219.027 294.335 218.68C294.895 218.307 295.321 217.76 295.615 217.04C295.935 216.293 296.095 215.333 296.095 214.16C296.095 212.373 295.748 211.093 295.055 210.32C294.361 209.52 293.481 209.12 292.415 209.12C291.695 209.12 291.055 209.293 290.495 209.64C289.935 209.987 289.495 210.533 289.175 211.28C288.855 212 288.695 212.96 288.695 214.16C288.695 215.92 289.041 217.2 289.735 218C290.428 218.8 291.321 219.2 292.415 219.2ZM317.979 224.44C315.579 224.44 313.499 224.027 311.739 223.2C310.006 222.347 308.673 221.147 307.739 219.6C306.806 218.053 306.339 216.227 306.339 214.12C306.339 212.093 306.779 210.32 307.659 208.8C308.566 207.253 309.793 206.053 311.339 205.2C312.913 204.32 314.699 203.88 316.699 203.88C318.166 203.88 319.499 204.12 320.699 204.6C321.899 205.053 322.926 205.733 323.779 206.64C324.633 207.52 325.273 208.587 325.699 209.84C326.153 211.093 326.379 212.493 326.379 214.04C326.379 214.573 326.233 214.973 325.939 215.24C325.646 215.48 325.179 215.6 324.539 215.6H312.299V212.24H321.179L320.539 212.76C320.539 211.773 320.406 210.973 320.139 210.36C319.873 209.747 319.473 209.28 318.939 208.96C318.433 208.64 317.793 208.48 317.019 208.48C316.193 208.48 315.473 208.68 314.859 209.08C314.273 209.453 313.819 210.013 313.499 210.76C313.179 211.507 313.019 212.44 313.019 213.56V213.92C313.019 215.813 313.433 217.173 314.259 218C315.113 218.8 316.419 219.2 318.179 219.2C318.766 219.2 319.433 219.133 320.179 219C320.953 218.84 321.686 218.627 322.379 218.36C323.073 218.093 323.673 218.053 324.179 218.24C324.686 218.4 325.073 218.693 325.339 219.12C325.633 219.52 325.793 219.987 325.819 220.52C325.846 221.027 325.726 221.533 325.459 222.04C325.193 222.52 324.753 222.893 324.139 223.16C323.206 223.587 322.206 223.907 321.139 224.12C320.099 224.333 319.046 224.44 317.979 224.44ZM332.967 224.36C331.847 224.36 330.98 224.053 330.367 223.44C329.753 222.827 329.447 221.933 329.447 220.76V207.52C329.447 206.373 329.74 205.493 330.327 204.88C330.94 204.267 331.807 203.96 332.927 203.96C334.047 203.96 334.9 204.267 335.487 204.88C336.073 205.493 336.367 206.373 336.367 207.52V209.4L335.927 207.76C336.567 206.507 337.473 205.547 338.647 204.88C339.847 204.213 341.207 203.88 342.727 203.88C344.3 203.88 345.593 204.187 346.607 204.8C347.62 205.387 348.38 206.32 348.887 207.6C349.393 208.853 349.647 210.44 349.647 212.36V220.76C349.647 221.933 349.34 222.827 348.727 223.44C348.113 224.053 347.233 224.36 346.087 224.36C344.94 224.36 344.06 224.053 343.447 223.44C342.833 222.827 342.527 221.933 342.527 220.76V212.64C342.527 211.44 342.313 210.587 341.887 210.08C341.487 209.573 340.887 209.32 340.087 209.32C339.02 209.32 338.167 209.667 337.527 210.36C336.887 211.027 336.567 211.933 336.567 213.08V220.76C336.567 223.16 335.367 224.36 332.967 224.36ZM363.465 231.64C361.998 231.64 360.625 231.533 359.345 231.32C358.065 231.133 356.958 230.853 356.025 230.48C355.251 230.213 354.705 229.827 354.385 229.32C354.065 228.813 353.918 228.28 353.945 227.72C353.971 227.16 354.118 226.653 354.385 226.2C354.678 225.747 355.065 225.413 355.545 225.2C356.025 225.013 356.558 225.027 357.145 225.24C358.318 225.72 359.385 226.027 360.345 226.16C361.305 226.32 362.118 226.4 362.785 226.4C364.411 226.4 365.625 226.053 366.425 225.36C367.251 224.693 367.665 223.64 367.665 222.2V219.68H367.985C367.585 220.8 366.771 221.72 365.545 222.44C364.318 223.133 362.985 223.48 361.545 223.48C359.785 223.48 358.251 223.08 356.945 222.28C355.638 221.453 354.611 220.307 353.865 218.84C353.145 217.373 352.785 215.653 352.785 213.68C352.785 212.187 352.998 210.84 353.425 209.64C353.851 208.44 354.438 207.413 355.185 206.56C355.958 205.707 356.878 205.053 357.945 204.6C359.038 204.12 360.238 203.88 361.545 203.88C363.038 203.88 364.371 204.227 365.545 204.92C366.745 205.613 367.545 206.52 367.945 207.64L367.545 209.28V207.52C367.545 206.373 367.851 205.493 368.465 204.88C369.105 204.267 369.985 203.96 371.105 203.96C372.225 203.96 373.078 204.267 373.665 204.88C374.278 205.493 374.585 206.373 374.585 207.52V221.36C374.585 224.773 373.625 227.333 371.705 229.04C369.785 230.773 367.038 231.64 363.465 231.64ZM363.745 218.24C364.545 218.24 365.225 218.067 365.785 217.72C366.345 217.347 366.785 216.827 367.105 216.16C367.425 215.467 367.585 214.64 367.585 213.68C367.585 212.24 367.238 211.12 366.545 210.32C365.851 209.52 364.918 209.12 363.745 209.12C362.998 209.12 362.331 209.307 361.745 209.68C361.158 210.027 360.705 210.547 360.385 211.24C360.091 211.907 359.945 212.72 359.945 213.68C359.945 215.12 360.291 216.24 360.985 217.04C361.678 217.84 362.598 218.24 363.745 218.24ZM385.584 224.44C384.064 224.44 382.717 224.16 381.544 223.6C380.397 223.04 379.49 222.28 378.824 221.32C378.184 220.333 377.864 219.213 377.864 217.96C377.864 216.52 378.237 215.387 378.984 214.56C379.73 213.733 380.93 213.147 382.584 212.8C384.237 212.427 386.437 212.24 389.184 212.24H391.384V215.6H389.184C388.144 215.6 387.277 215.68 386.584 215.84C385.917 215.973 385.424 216.2 385.104 216.52C384.784 216.813 384.624 217.2 384.624 217.68C384.624 218.293 384.837 218.8 385.264 219.2C385.717 219.6 386.357 219.8 387.184 219.8C387.85 219.8 388.437 219.653 388.944 219.36C389.477 219.067 389.904 218.667 390.224 218.16C390.544 217.627 390.704 217.013 390.704 216.32V211.68C390.704 210.72 390.45 210.04 389.944 209.64C389.464 209.24 388.624 209.04 387.424 209.04C386.784 209.04 386.064 209.12 385.264 209.28C384.464 209.413 383.57 209.667 382.584 210.04C381.864 210.307 381.25 210.347 380.744 210.16C380.237 209.973 379.837 209.653 379.544 209.2C379.277 208.747 379.144 208.253 379.144 207.72C379.17 207.187 379.344 206.68 379.664 206.2C380.01 205.72 380.53 205.347 381.224 205.08C382.504 204.6 383.677 204.28 384.744 204.12C385.837 203.96 386.837 203.88 387.744 203.88C389.93 203.88 391.73 204.2 393.144 204.84C394.584 205.453 395.65 206.413 396.344 207.72C397.064 209 397.424 210.653 397.424 212.68V220.76C397.424 221.933 397.144 222.827 396.584 223.44C396.024 224.053 395.21 224.36 394.144 224.36C393.05 224.36 392.21 224.053 391.624 223.44C391.064 222.827 390.784 221.933 390.784 220.76V219.72L391.024 220.28C390.89 221.133 390.584 221.867 390.104 222.48C389.624 223.093 388.997 223.573 388.224 223.92C387.45 224.267 386.57 224.44 385.584 224.44ZM404.998 224.36C403.878 224.36 403.011 224.053 402.398 223.44C401.785 222.827 401.478 221.933 401.478 220.76V207.52C401.478 206.373 401.771 205.493 402.358 204.88C402.971 204.267 403.838 203.96 404.958 203.96C406.078 203.96 406.931 204.267 407.518 204.88C408.105 205.493 408.398 206.373 408.398 207.52V209.4L407.958 207.76C408.598 206.507 409.505 205.547 410.678 204.88C411.878 204.213 413.238 203.88 414.758 203.88C416.331 203.88 417.625 204.187 418.638 204.8C419.651 205.387 420.411 206.32 420.918 207.6C421.425 208.853 421.678 210.44 421.678 212.36V220.76C421.678 221.933 421.371 222.827 420.758 223.44C420.145 224.053 419.265 224.36 418.118 224.36C416.971 224.36 416.091 224.053 415.478 223.44C414.865 222.827 414.558 221.933 414.558 220.76V212.64C414.558 211.44 414.345 210.587 413.918 210.08C413.518 209.573 412.918 209.32 412.118 209.32C411.051 209.32 410.198 209.667 409.558 210.36C408.918 211.027 408.598 211.933 408.598 213.08V220.76C408.598 223.16 407.398 224.36 404.998 224.36ZM450.141 224.44C448.621 224.44 447.261 224.08 446.061 223.36C444.888 222.613 444.114 221.64 443.741 220.44L444.181 218.8V220.76C444.181 221.933 443.874 222.827 443.261 223.44C442.674 224.053 441.821 224.36 440.701 224.36C439.554 224.36 438.674 224.053 438.061 223.44C437.474 222.827 437.181 221.933 437.181 220.76V199.04C437.181 197.867 437.488 196.973 438.101 196.36C438.714 195.747 439.581 195.44 440.701 195.44C441.848 195.44 442.728 195.747 443.341 196.36C443.981 196.973 444.301 197.867 444.301 199.04V207.6H443.821C444.221 206.507 445.008 205.613 446.181 204.92C447.354 204.227 448.674 203.88 450.141 203.88C451.848 203.88 453.341 204.293 454.621 205.12C455.928 205.947 456.941 207.12 457.661 208.64C458.381 210.16 458.741 212 458.741 214.16C458.741 216.267 458.381 218.093 457.661 219.64C456.941 221.187 455.928 222.373 454.621 223.2C453.341 224.027 451.848 224.44 450.141 224.44ZM447.901 219.2C448.621 219.2 449.248 219.027 449.781 218.68C450.341 218.307 450.781 217.76 451.101 217.04C451.421 216.293 451.581 215.333 451.581 214.16C451.581 212.373 451.234 211.093 450.541 210.32C449.848 209.52 448.968 209.12 447.901 209.12C447.181 209.12 446.541 209.293 445.981 209.64C445.421 209.987 444.981 210.533 444.661 211.28C444.341 212 444.181 212.96 444.181 214.16C444.181 215.92 444.528 217.2 445.221 218C445.914 218.8 446.808 219.2 447.901 219.2ZM468.826 224.44C467.306 224.44 465.959 224.16 464.786 223.6C463.639 223.04 462.732 222.28 462.066 221.32C461.426 220.333 461.106 219.213 461.106 217.96C461.106 216.52 461.479 215.387 462.226 214.56C462.972 213.733 464.172 213.147 465.826 212.8C467.479 212.427 469.679 212.24 472.426 212.24H474.626V215.6H472.426C471.386 215.6 470.519 215.68 469.826 215.84C469.159 215.973 468.666 216.2 468.346 216.52C468.026 216.813 467.866 217.2 467.866 217.68C467.866 218.293 468.079 218.8 468.506 219.2C468.959 219.6 469.599 219.8 470.426 219.8C471.092 219.8 471.679 219.653 472.186 219.36C472.719 219.067 473.146 218.667 473.466 218.16C473.786 217.627 473.946 217.013 473.946 216.32V211.68C473.946 210.72 473.692 210.04 473.186 209.64C472.706 209.24 471.866 209.04 470.666 209.04C470.026 209.04 469.306 209.12 468.506 209.28C467.706 209.413 466.812 209.667 465.826 210.04C465.106 210.307 464.492 210.347 463.986 210.16C463.479 209.973 463.079 209.653 462.786 209.2C462.519 208.747 462.386 208.253 462.386 207.72C462.412 207.187 462.586 206.68 462.906 206.2C463.252 205.72 463.772 205.347 464.466 205.08C465.746 204.6 466.919 204.28 467.986 204.12C469.079 203.96 470.079 203.88 470.986 203.88C473.172 203.88 474.972 204.2 476.386 204.84C477.826 205.453 478.892 206.413 479.586 207.72C480.306 209 480.666 210.653 480.666 212.68V220.76C480.666 221.933 480.386 222.827 479.826 223.44C479.266 224.053 478.452 224.36 477.386 224.36C476.292 224.36 475.452 224.053 474.866 223.44C474.306 222.827 474.026 221.933 474.026 220.76V219.72L474.266 220.28C474.132 221.133 473.826 221.867 473.346 222.48C472.866 223.093 472.239 223.573 471.466 223.92C470.692 224.267 469.812 224.44 468.826 224.44ZM488.24 224.36C487.12 224.36 486.253 224.027 485.64 223.36C485.027 222.693 484.72 221.733 484.72 220.48V207.84C484.72 206.587 485.027 205.627 485.64 204.96C486.253 204.293 487.12 203.96 488.24 203.96C489.387 203.96 490.267 204.293 490.88 204.96C491.52 205.627 491.84 206.587 491.84 207.84V220.48C491.84 221.733 491.533 222.693 490.92 223.36C490.307 224.027 489.413 224.36 488.24 224.36ZM488.24 201.12C486.987 201.12 486.013 200.827 485.32 200.24C484.653 199.653 484.32 198.8 484.32 197.68C484.32 196.587 484.653 195.747 485.32 195.16C486.013 194.573 486.987 194.28 488.24 194.28C489.547 194.28 490.533 194.573 491.2 195.16C491.867 195.747 492.2 196.587 492.2 197.68C492.2 198.8 491.867 199.653 491.2 200.24C490.533 200.827 489.547 201.12 488.24 201.12ZM499.49 224.36C498.37 224.36 497.503 224.053 496.89 223.44C496.277 222.827 495.97 221.933 495.97 220.76V199.04C495.97 197.867 496.277 196.973 496.89 196.36C497.503 195.747 498.37 195.44 499.49 195.44C500.637 195.44 501.517 195.747 502.13 196.36C502.77 196.973 503.09 197.867 503.09 199.04V212.24H503.17L508.05 206.32C508.717 205.52 509.33 204.933 509.89 204.56C510.477 204.16 511.263 203.96 512.25 203.96C513.237 203.96 513.997 204.2 514.53 204.68C515.063 205.16 515.343 205.76 515.37 206.48C515.397 207.2 515.103 207.92 514.49 208.64L509.21 214.88V212.4L515.13 219.84C515.717 220.587 515.957 221.32 515.85 222.04C515.743 222.733 515.397 223.293 514.81 223.72C514.25 224.147 513.53 224.36 512.65 224.36C511.583 224.36 510.73 224.173 510.09 223.8C509.45 223.4 508.81 222.787 508.17 221.96L503.17 215.8H503.09V220.76C503.09 223.16 501.89 224.36 499.49 224.36ZM522.533 214.76C521.84 214.76 521.28 214.533 520.853 214.08C520.453 213.627 520.2 213 520.093 212.2L518.693 200.12C518.507 198.733 518.76 197.613 519.453 196.76C520.147 195.88 521.173 195.44 522.533 195.44C523.92 195.44 524.947 195.88 525.613 196.76C526.28 197.613 526.52 198.733 526.333 200.12L524.973 212.2C524.867 213 524.613 213.627 524.213 214.08C523.813 214.533 523.253 214.76 522.533 214.76ZM522.533 224.24C521.333 224.24 520.373 223.88 519.653 223.16C518.96 222.44 518.613 221.493 518.613 220.32C518.613 219.173 518.96 218.253 519.653 217.56C520.373 216.84 521.333 216.48 522.533 216.48C523.787 216.48 524.747 216.84 525.413 217.56C526.107 218.253 526.453 219.173 526.453 220.32C526.453 221.493 526.107 222.44 525.413 223.16C524.747 223.88 523.787 224.24 522.533 224.24Z" fill="#E1E1E1"/>
</g>
<defs>
<clipPath id="clip0_412_587">
<rect width="792" height="314" fill="white"/>
</clipPath>
</defs>
</svg>
