<svg width="413" height="354" viewBox="0 0 413 354" fill="none" xmlns="http://www.w3.org/2000/svg">
<g clip-path="url(#clip0_61_1080)">
<path d="M121.373 350.306C128.003 344.697 132.03 335.835 130.974 327.209C129.918 318.582 123.376 310.651 114.891 308.819C106.407 306.988 96.7343 312.059 94.1572 320.358C92.7389 304.357 91.1045 287.686 82.6086 274.06C74.9157 261.722 61.5916 252.894 47.1512 251.314C32.7108 249.735 17.5069 255.7 8.50101 267.112C-0.504921 278.525 -2.70998 295.116 3.59754 308.219C8.24407 317.871 16.8046 325.054 25.7739 330.898C54.757 349.623 89.5185 357.237 123.662 352.341" fill="#F2F2F2"/>
<path d="M22.781 256.031C34.6961 265.748 45.627 276.617 55.4154 288.479C70.7344 306.979 83.1306 327.722 92.1724 349.983C92.8342 351.607 90.2005 352.314 89.546 350.708C83.7961 336.633 76.6825 323.156 68.307 310.471C55.2464 290.654 39.2453 272.947 20.8551 257.959C19.4954 256.85 21.4325 254.931 22.781 256.031Z" fill="white"/>
<path d="M125.952 350.306C119.322 344.697 115.295 335.835 116.351 327.209C117.407 318.582 123.948 310.651 132.433 308.819C140.918 306.988 150.59 312.059 153.168 320.358C154.586 304.357 156.22 287.686 164.716 274.06C172.409 261.722 185.733 252.894 200.174 251.314C214.614 249.735 229.818 255.7 238.824 267.112C247.83 278.525 250.035 295.116 243.727 308.219C239.081 317.871 230.52 325.054 221.551 330.898C192.568 349.623 157.806 357.237 123.662 352.341" fill="#F2F2F2"/>
<path d="M224.544 256.031C212.629 265.748 201.698 276.617 191.91 288.479C176.591 306.979 164.194 327.722 155.153 349.983C154.491 351.607 157.125 352.314 157.779 350.708C172.573 314.528 196.19 282.64 226.47 257.959C227.83 256.85 225.893 254.931 224.544 256.031Z" fill="white"/>
<path d="M145.626 159.246C157.891 159.246 167.834 149.29 167.834 137.009C167.834 124.728 157.891 114.772 145.626 114.772C133.361 114.772 123.418 124.728 123.418 137.009C123.418 149.29 133.361 159.246 145.626 159.246Z" fill="#F2F2F2"/>
<path d="M77.1521 60.3541H230.16V68.7362H96.6849C88.8371 68.7362 81.0661 70.284 73.8156 73.2911C66.5651 76.2982 59.9772 80.7059 54.4279 86.2624C48.8786 91.8188 44.4767 98.4154 41.4734 105.675C38.4702 112.935 36.9245 120.716 36.9245 128.574V223.805H20.182C19.442 223.805 18.7322 223.511 18.2089 222.987C17.6856 222.463 17.3916 221.752 17.3916 221.011V120.192C17.3916 112.334 18.9373 104.553 21.9406 97.2931C24.9438 90.0332 29.3458 83.4367 34.895 77.8802C40.4443 72.3237 47.0323 67.9161 54.2827 64.9089C61.5332 61.9018 69.3042 60.354 77.1521 60.3541Z" fill="#F2F2F2"/>
<path d="M106.583 350.772V223.447H143.835V350.772C143.834 351.628 143.494 352.448 142.89 353.053C142.285 353.659 141.466 353.999 140.611 354H109.806C108.952 353.999 108.132 353.659 107.528 353.053C106.923 352.448 106.583 351.628 106.583 350.772Z" fill="#3F3D56"/>
<path d="M9.51123 220.936V117.401C9.52982 100.919 16.077 85.1177 27.7164 73.4631C39.3559 61.8085 55.137 55.2527 71.5976 55.2341H229.444V224.523H13.0932C12.1435 224.522 11.2331 224.144 10.5616 223.471C9.89006 222.799 9.51232 221.887 9.51123 220.936ZM228.011 56.6687H71.5976C55.5169 56.687 40.0999 63.0914 28.7291 74.4771C17.3583 85.8627 10.9622 101.3 10.944 117.401V220.936C10.9446 221.507 11.1713 222.054 11.5742 222.457C11.9771 222.861 12.5234 223.088 13.0932 223.088H228.011V56.6687Z" fill="#3F3D56"/>
<path d="M145.626 148.486C142.207 148.482 138.93 147.121 136.512 144.7C134.095 142.28 132.735 138.998 132.731 135.574V43.0395C132.731 42.469 132.504 41.922 132.101 41.5185C131.698 41.1151 131.152 40.8882 130.582 40.8875H80.4345C79.4848 40.8864 78.5744 40.5082 77.9029 39.8358C77.2314 39.1634 76.8536 38.2518 76.8525 37.3009V3.58663C76.8536 2.63573 77.2314 1.7241 77.9029 1.05171C78.5744 0.379326 79.4848 0.00110112 80.4345 0H154.939C155.889 0.00108786 156.799 0.379313 157.471 1.0517C158.143 1.72409 158.52 2.63573 158.521 3.58663V135.574C158.518 138.998 157.158 142.28 154.74 144.7C152.323 147.121 149.045 148.482 145.626 148.486Z" fill="#F03636"/>
<path d="M235.175 53.7994C245.983 53.7767 256.356 58.0537 264.014 65.6895C271.672 73.3253 275.987 83.6945 276.01 94.5158V212.379H356.246C359.469 212.373 362.563 213.648 364.847 215.925C367.131 218.203 368.418 221.295 368.424 224.523H194.341V94.5158C194.364 83.6945 198.678 73.3253 206.336 65.6895C213.994 58.0537 224.368 53.7767 235.175 53.7994Z" fill="#3F3D56"/>
<path d="M225.376 120.918L233.832 155.892L399.234 115.799L390.778 80.8253C390.676 80.3977 390.468 80.0028 390.172 79.6774C389.877 79.352 389.504 79.1065 389.089 78.9638C388.782 78.8558 388.458 78.8069 388.133 78.8198L292.524 29.2512C291.964 28.9648 291.32 28.8882 290.708 29.0355C290.097 29.1827 289.558 29.544 289.188 30.0541L243.11 94.3937L225.739 118.656C225.708 118.698 225.686 118.747 225.675 118.799C225.664 118.85 225.664 118.904 225.675 118.956C225.322 119.545 225.214 120.25 225.376 120.918Z" fill="white"/>
<path d="M225.675 118.956C225.684 119.001 225.701 119.045 225.726 119.083C225.751 119.122 225.783 119.156 225.821 119.182C225.866 119.213 225.916 119.234 225.97 119.245C226.023 119.255 226.078 119.255 226.131 119.244C226.218 119.221 226.294 119.168 226.345 119.095L226.405 119.012L227.31 117.746L243.736 94.8169L289.8 30.492C290.063 30.1275 290.448 29.8694 290.884 29.7646C291.321 29.6598 291.781 29.7153 292.18 29.9209L387.049 79.1055L387.9 79.5479C387.934 79.5624 387.97 79.5748 388.006 79.585C388.07 79.5733 388.135 79.567 388.2 79.5663C388.289 79.5365 388.363 79.4736 388.408 79.3907C388.431 79.3471 388.445 79.2993 388.45 79.25C388.454 79.2008 388.449 79.1512 388.435 79.104C388.42 79.0568 388.396 79.0129 388.365 78.9749C388.333 78.9369 388.295 78.9054 388.251 78.8824L388.133 78.8198L292.524 29.2512C291.964 28.9648 291.32 28.8882 290.708 29.0355C290.096 29.1827 289.557 29.544 289.188 30.0541L243.11 94.3937L225.739 118.656C225.708 118.698 225.686 118.747 225.675 118.799C225.664 118.85 225.664 118.904 225.675 118.956Z" fill="#3F3D56"/>
<path d="M275.35 122.522L279.032 122.931L306.357 125.962L324.472 127.97L325.542 128.089L348.146 110.411L349.012 109.733L354.35 105.559L373.344 90.7054L373.459 89.6621L380.214 28.6076C380.306 27.7669 380.062 26.9239 379.534 26.2635C379.007 25.603 378.239 25.179 377.4 25.0844L287.237 15.0837C286.398 14.9919 285.556 15.2369 284.897 15.7652C284.237 16.2935 283.814 17.0619 283.719 17.9022L278.954 60.9686L276.312 84.8454L273.948 106.206L272.852 116.126L272.532 119C272.441 119.841 272.686 120.684 273.214 121.344C273.743 122.004 274.511 122.428 275.35 122.522Z" fill="#E6E6E6"/>
<path d="M300.127 69.0051L339.182 73.3363L353.033 74.8719C353.644 74.9397 354.263 74.8863 354.854 74.7146C355.445 74.5429 355.996 74.2564 356.476 73.8714C356.957 73.4864 357.356 73.0104 357.653 72.4707C357.95 71.931 358.137 71.338 358.205 70.7257C358.273 70.1134 358.219 69.4938 358.048 68.9021C357.876 68.3105 357.59 67.7584 357.206 67.2775C356.821 66.7966 356.346 66.3963 355.807 66.0993C355.268 65.8023 354.676 65.6146 354.064 65.5467L336.837 63.6364L301.161 59.6754C299.926 59.5387 298.687 59.8988 297.717 60.6765C296.747 61.4542 296.125 62.5859 295.988 63.8227C295.851 65.0594 296.209 66.3001 296.986 67.2719C297.762 68.2437 298.892 68.8671 300.127 69.0051Z" fill="white"/>
<path d="M297.903 86.3041C298.004 86.3221 298.105 86.3402 298.207 86.35L343.544 91.3792L351.114 92.2205C352.349 92.3573 353.589 91.9971 354.559 91.2192C355.529 90.4412 356.151 89.3091 356.288 88.0721C356.424 86.835 356.065 85.5942 355.288 84.6227C354.511 83.6512 353.38 83.0285 352.145 82.8917L341.199 81.6792L305.286 77.6946L299.243 77.024C298.034 76.889 296.82 77.2299 295.858 77.9747C294.896 78.7194 294.261 79.8097 294.087 81.0149C293.913 82.2201 294.214 83.4458 294.926 84.4328C295.638 85.4199 296.706 86.0909 297.903 86.3041Z" fill="white"/>
<path d="M292.772 101.643C293.143 102.261 293.652 102.784 294.259 103.173C294.865 103.562 295.553 103.806 296.268 103.885L314.851 105.946L347.946 109.617L347.953 109.615L349.011 109.733L354.35 105.558C354.383 105.241 354.384 104.922 354.351 104.604C354.238 103.539 353.766 102.545 353.012 101.785C352.259 101.026 351.268 100.546 350.205 100.427L345.608 99.9154L327.371 97.8946L314.249 96.4374L297.299 94.5564C296.43 94.4601 295.552 94.609 294.763 94.9863C293.975 95.3636 293.307 95.9543 292.836 96.6915C292.366 97.4287 292.11 98.2831 292.099 99.1581C292.087 100.033 292.32 100.894 292.772 101.643Z" fill="white"/>
<path d="M318.873 47.8596L328.59 48.9373L332.882 49.4146L339.366 50.133C340.601 50.2699 341.84 49.9097 342.81 49.1317C343.781 48.3537 344.403 47.2216 344.539 45.9846C344.676 44.7475 344.316 43.5067 343.539 42.5352C342.762 41.5637 341.632 40.941 340.396 40.8042L319.908 38.5336C318.673 38.3961 317.434 38.7555 316.463 39.5328C315.493 40.3101 314.871 41.4416 314.733 42.6783C314.596 43.915 314.955 45.1557 315.731 46.1274C316.508 47.099 317.638 47.7222 318.873 47.8596Z" fill="white"/>
<path d="M239.414 73.8356L251.261 122.839L271.034 126.603L289.325 130.09L308.95 133.829L315.22 135.024C315.587 135.094 315.965 135.084 316.328 134.996C316.691 134.908 317.032 134.744 317.326 134.514L322.357 130.579L325.542 128.089L348.146 110.411L333.773 50.9633C333.631 50.3719 333.322 49.8341 332.882 49.4145C332.496 49.0433 332.023 48.7753 331.507 48.6353C330.99 48.4952 330.447 48.4876 329.927 48.6131L241.761 69.9842C240.94 70.1837 240.231 70.7014 239.791 71.4236C239.351 72.1457 239.215 73.0132 239.414 73.8356Z" fill="#F03636"/>
<path d="M266.579 112.819C266.873 114.028 267.633 115.071 268.694 115.719C269.754 116.367 271.028 116.567 272.236 116.275L323.97 103.735C325.177 103.441 326.218 102.68 326.865 101.618C327.512 100.556 327.712 99.2809 327.421 98.0716C327.408 98.0117 327.391 97.9526 327.371 97.8947C327.041 96.7288 326.272 95.7362 325.227 95.1249C324.182 94.5136 322.941 94.3311 321.765 94.6155L270.031 107.156C268.824 107.449 267.782 108.211 267.135 109.273C266.488 110.334 266.288 111.61 266.579 112.819Z" fill="white"/>
<path d="M271.034 126.603L289.325 130.09L328.071 120.699C329.279 120.406 330.321 119.645 330.968 118.582C331.616 117.52 331.815 116.244 331.523 115.035C331.23 113.825 330.47 112.782 329.409 112.134C328.348 111.486 327.074 111.286 325.866 111.579L274.132 124.119C273.051 124.379 272.099 125.018 271.448 125.92C271.291 126.136 271.152 126.364 271.034 126.603Z" fill="white"/>
<path d="M308.95 133.829L315.22 135.024C315.587 135.094 315.965 135.084 316.328 134.996C316.691 134.908 317.031 134.744 317.326 134.514L322.357 130.579L308.95 133.829Z" fill="white"/>
<path d="M277.003 86.5429C277.297 87.7517 278.057 88.7945 279.118 89.4425C280.178 90.0905 281.452 90.2906 282.66 89.9989L302.698 85.1419C303.905 84.8476 304.946 84.086 305.593 83.0243C306.24 81.9626 306.44 80.6873 306.149 79.4781C305.993 78.8283 305.699 78.2199 305.286 77.6946C304.732 76.9846 303.985 76.4493 303.135 76.1527C302.285 75.8561 301.368 75.8107 300.493 76.022L280.455 80.879C279.247 81.172 278.205 81.9332 277.558 82.9953C276.911 84.0574 276.711 85.3335 277.003 86.5429Z" fill="white"/>
<path d="M289.324 130.09L308.952 133.83L315.22 135.025C315.587 135.094 315.965 135.084 316.327 134.996C316.69 134.908 317.03 134.744 317.325 134.515L322.359 130.58L320.593 131.008L316.864 133.921C316.653 134.085 316.41 134.202 316.151 134.265C315.892 134.328 315.622 134.335 315.36 134.286L310.718 133.402L291.091 129.662L289.324 130.09ZM347.952 109.618L348.143 110.409L349.014 109.731L347.952 109.618ZM289.324 130.09L308.952 133.83L315.22 135.025C315.587 135.094 315.965 135.084 316.327 134.996C316.69 134.908 317.03 134.744 317.325 134.515L322.359 130.58L320.593 131.008L316.864 133.921C316.653 134.085 316.41 134.202 316.151 134.265C315.892 134.328 315.622 134.335 315.36 134.286L310.718 133.402L291.091 129.662L289.324 130.09ZM289.324 130.09L308.952 133.83L315.22 135.025C315.587 135.094 315.965 135.084 316.327 134.996C316.69 134.908 317.03 134.744 317.325 134.515L322.359 130.58L320.593 131.008L316.864 133.921C316.653 134.085 316.41 134.202 316.151 134.265C315.892 134.328 315.622 134.335 315.36 134.286L310.718 133.402L291.091 129.662L289.324 130.09ZM225.376 120.918L247.524 212.527C247.689 213.204 248.115 213.788 248.709 214.151C249.303 214.514 250.016 214.626 250.692 214.463L410.993 175.607C411.669 175.443 412.252 175.016 412.615 174.421C412.977 173.827 413.089 173.112 412.926 172.435L390.778 80.8253C390.676 80.3977 390.468 80.0028 390.172 79.6774C389.877 79.3519 389.504 79.1065 389.089 78.9638C388.782 78.8558 388.458 78.8069 388.133 78.8198C387.755 78.8307 387.384 78.9285 387.049 79.1055C386.894 79.179 386.748 79.2697 386.614 79.376L373.458 89.6622L354.351 104.607L347.951 109.613L347.952 109.618L347.946 109.62L324.473 127.967L320.593 131.008L316.864 133.921C316.653 134.085 316.41 134.202 316.151 134.265C315.892 134.328 315.622 134.335 315.36 134.286L310.718 133.402L291.091 129.662L271.446 125.921L228.418 117.722C228.051 117.649 227.673 117.657 227.31 117.746C226.82 117.865 226.376 118.123 226.028 118.489C225.896 118.632 225.777 118.789 225.675 118.956C225.322 119.545 225.214 120.25 225.376 120.918ZM289.324 130.09L308.952 133.83L315.22 135.025C315.587 135.094 315.965 135.084 316.327 134.996C316.69 134.908 317.03 134.744 317.325 134.515L322.359 130.58L320.593 131.008L316.864 133.921C316.653 134.085 316.41 134.202 316.151 134.265C315.892 134.328 315.622 134.335 315.36 134.286L310.718 133.402L291.091 129.662L289.324 130.09ZM289.324 130.09L308.952 133.83L315.22 135.025C315.587 135.094 315.965 135.084 316.327 134.996C316.69 134.908 317.03 134.744 317.325 134.515L322.359 130.58L320.593 131.008L316.864 133.921C316.653 134.085 316.41 134.202 316.151 134.265C315.892 134.328 315.622 134.335 315.36 134.286L310.718 133.402L291.091 129.662L289.324 130.09ZM289.324 130.09L308.952 133.83L315.22 135.025C315.587 135.094 315.965 135.084 316.327 134.996C316.69 134.908 317.03 134.744 317.325 134.515L322.359 130.58L320.593 131.008L316.864 133.921C316.653 134.085 316.41 134.202 316.151 134.265C315.892 134.328 315.622 134.335 315.36 134.286L310.718 133.402L291.091 129.662L289.324 130.09Z" fill="white"/>
<path d="M289.324 130.09L308.952 133.83L315.22 135.025C315.587 135.094 315.965 135.084 316.327 134.996C316.69 134.908 317.03 134.744 317.325 134.515L322.359 130.58L320.593 131.008L316.864 133.921C316.653 134.085 316.41 134.202 316.151 134.265C315.892 134.328 315.622 134.335 315.36 134.286L310.718 133.402L291.091 129.662L289.324 130.09ZM347.952 109.618L348.143 110.409L349.014 109.731L347.952 109.618ZM289.324 130.09L308.952 133.83L315.22 135.025C315.587 135.094 315.965 135.084 316.327 134.996C316.69 134.908 317.03 134.744 317.325 134.515L322.359 130.58L320.593 131.008L316.864 133.921C316.653 134.085 316.41 134.202 316.151 134.265C315.892 134.328 315.622 134.335 315.36 134.286L310.718 133.402L291.091 129.662L289.324 130.09ZM289.324 130.09L308.952 133.83L315.22 135.025C315.587 135.094 315.965 135.084 316.327 134.996C316.69 134.908 317.03 134.744 317.325 134.515L322.359 130.58L320.593 131.008L316.864 133.921C316.653 134.085 316.41 134.202 316.151 134.265C315.892 134.328 315.622 134.335 315.36 134.286L310.718 133.402L291.091 129.662L289.324 130.09ZM226.405 119.012L226.502 119.085C226.519 119.059 226.547 119.035 226.569 119.007C226.786 118.78 227.055 118.612 227.354 118.516C227.652 118.419 227.969 118.399 228.277 118.456L271.036 126.6L289.324 130.09L308.952 133.83L315.22 135.025C315.587 135.094 315.965 135.084 316.327 134.996C316.69 134.908 317.03 134.744 317.325 134.515L322.359 130.58L320.593 131.008L316.864 133.921C316.653 134.085 316.41 134.202 316.151 134.265C315.892 134.328 315.622 134.335 315.36 134.286L310.718 133.402L291.091 129.662L271.446 125.92L228.418 117.722C228.051 117.649 227.673 117.657 227.31 117.746L226.405 119.012ZM225.376 120.918L247.524 212.527C247.689 213.204 248.115 213.788 248.709 214.151C249.303 214.514 250.016 214.626 250.692 214.463L410.993 175.607C411.669 175.443 412.252 175.016 412.615 174.421C412.977 173.827 413.089 173.112 412.926 172.435L390.778 80.8253C390.676 80.3977 390.468 80.0028 390.172 79.6774C389.877 79.3519 389.504 79.1065 389.089 78.9638C388.782 78.8558 388.458 78.8069 388.133 78.8198C387.755 78.8307 387.384 78.9285 387.049 79.1055C386.894 79.179 386.748 79.2697 386.614 79.376L373.458 89.6622L354.351 104.607L347.951 109.613L347.952 109.618L347.946 109.62L324.473 127.967L320.593 131.008L316.864 133.921C316.653 134.085 316.41 134.202 316.151 134.265C315.892 134.328 315.622 134.335 315.36 134.286L310.718 133.402L291.091 129.662L271.446 125.92L228.418 117.722C228.051 117.649 227.673 117.657 227.31 117.746C226.82 117.865 226.376 118.123 226.028 118.489C225.896 118.632 225.777 118.789 225.675 118.956C225.322 119.545 225.214 120.25 225.376 120.918ZM226.107 120.741C226.042 120.471 226.037 120.189 226.095 119.918C226.152 119.646 226.269 119.39 226.438 119.169C226.453 119.137 226.475 119.108 226.502 119.085C226.519 119.059 226.547 119.035 226.569 119.007C226.786 118.78 227.055 118.612 227.354 118.516C227.652 118.419 227.969 118.399 228.277 118.456L271.036 126.6L289.324 130.09L308.952 133.83L315.22 135.025C315.587 135.094 315.965 135.084 316.327 134.996C316.69 134.908 317.03 134.744 317.325 134.515L322.359 130.58L325.543 128.089L348.143 110.409L349.014 109.731L354.348 105.558L373.346 90.7025L387.08 79.963C387.289 79.8 387.53 79.6833 387.787 79.6208C387.859 79.6032 387.932 79.5912 388.006 79.5849C388.07 79.5732 388.135 79.567 388.2 79.5663C388.42 79.5642 388.638 79.5998 388.845 79.6717C389.141 79.7749 389.407 79.9506 389.618 80.1827C389.829 80.4149 389.978 80.6962 390.053 81.001L412.201 172.611C412.259 172.851 412.27 173.1 412.232 173.344C412.194 173.588 412.108 173.822 411.98 174.033C411.851 174.244 411.682 174.428 411.483 174.573C411.284 174.719 411.057 174.823 410.818 174.881L250.517 213.737C250.033 213.854 249.523 213.773 249.099 213.513C248.675 213.253 248.371 212.835 248.255 212.35L226.107 120.741ZM289.324 130.09L308.952 133.83L315.22 135.025C315.587 135.094 315.965 135.084 316.327 134.996C316.69 134.908 317.03 134.744 317.325 134.515L322.359 130.58L320.593 131.008L316.864 133.921C316.653 134.085 316.41 134.202 316.151 134.265C315.892 134.328 315.622 134.335 315.36 134.286L310.718 133.402L291.091 129.662L289.324 130.09ZM289.324 130.09L308.952 133.83L315.22 135.025C315.587 135.094 315.965 135.084 316.327 134.996C316.69 134.908 317.03 134.744 317.325 134.515L322.359 130.58L320.593 131.008L316.864 133.921C316.653 134.085 316.41 134.202 316.151 134.265C315.892 134.328 315.622 134.335 315.36 134.286L310.718 133.402L291.091 129.662L289.324 130.09ZM289.324 130.09L308.952 133.83L315.22 135.025C315.587 135.094 315.965 135.084 316.327 134.996C316.69 134.908 317.03 134.744 317.325 134.515L322.359 130.58L320.593 131.008L316.864 133.921C316.653 134.085 316.41 134.202 316.151 134.265C315.892 134.328 315.622 134.335 315.36 134.286L310.718 133.402L291.091 129.662L289.324 130.09Z" fill="#3F3D56"/>
<path d="M369.214 157.609C368.853 156.108 369.101 154.524 369.904 153.206C370.707 151.888 372 150.943 373.498 150.578L393.73 145.674C395.227 145.317 396.805 145.568 398.117 146.373C399.43 147.178 400.37 148.471 400.732 149.969C401.094 151.467 400.849 153.047 400.049 154.364C399.25 155.681 397.962 156.627 396.467 156.995L376.235 161.899C374.736 162.261 373.155 162.012 371.839 161.208C370.522 160.403 369.578 159.109 369.214 157.609Z" fill="#F03636"/>
<path d="M145.626 140.596C148.396 140.596 150.641 138.348 150.641 135.574C150.641 132.801 148.396 130.553 145.626 130.553C142.857 130.553 140.611 132.801 140.611 135.574C140.611 138.348 142.857 140.596 145.626 140.596Z" fill="white"/>
</g>
<defs>
<clipPath id="clip0_61_1080">
<rect width="413" height="354" fill="white"/>
</clipPath>
</defs>
</svg>
