<svg width="89" height="78" viewBox="0 0 89 78" fill="none" xmlns="http://www.w3.org/2000/svg">
<path d="M40.954 47.6195L29.3694 36.0349V19.7185H35.896V33.3427L45.5226 42.9693L40.954 47.6195ZM29.3694 13.192V6.66545H35.896V13.192H29.3694ZM52.2123 36.0349V29.5083H58.7388V36.0349H52.2123ZM29.3694 58.8778V52.3512H35.896V58.8778H29.3694ZM6.52654 36.0349V29.5083H13.0531V36.0349H6.52654ZM32.6327 65.4043C28.1185 65.4043 23.8763 64.5471 19.9059 62.8328C15.9356 61.1207 12.482 58.7962 9.54506 55.8592C6.60812 52.9223 4.28358 49.4687 2.57146 45.4984C0.857152 41.528 0 37.2858 0 32.7716C0 28.2574 0.857152 24.0152 2.57146 20.0449C4.28358 16.0745 6.60812 12.6209 9.54506 9.68398C12.482 6.74704 15.9356 4.42141 19.9059 2.70711C23.8763 0.99498 28.1185 0.138916 32.6327 0.138916C37.1469 0.138916 41.3891 0.99498 45.3594 2.70711C49.3297 4.42141 52.7834 6.74704 55.7203 9.68398C58.6573 12.6209 60.9818 16.0745 62.6939 20.0449C64.4082 24.0152 65.2654 28.2574 65.2654 32.7716C65.2654 37.2858 64.4082 41.528 62.6939 45.4984C60.9818 49.4687 58.6573 52.9223 55.7203 55.8592C52.7834 58.7962 49.3297 61.1207 45.3594 62.8328C41.3891 64.5471 37.1469 65.4043 32.6327 65.4043ZM32.6327 58.8778C39.9207 58.8778 46.0937 56.3487 51.1517 51.2907C56.2098 46.2326 58.7388 40.0596 58.7388 32.7716C58.7388 25.4836 56.2098 19.3106 51.1517 14.2526C46.0937 9.19449 39.9207 6.66545 32.6327 6.66545C25.3447 6.66545 19.1717 9.19449 14.1136 14.2526C9.05557 19.3106 6.52654 25.4836 6.52654 32.7716C6.52654 40.0596 9.05557 46.2326 14.1136 51.2907C19.1717 56.3487 25.3447 58.8778 32.6327 58.8778Z" fill="#ED3237"/>
<path d="M71.603 44.1433V47.906H80.8499L76.5216 56.5872V52.8245H67.2747L71.603 44.1433ZM76.5216 23.3132L59.3066 57.7431H71.603V77.4173L88.8179 42.9874H76.5216V23.3132Z" fill="#ED3237"/>
</svg>
