<svg width="67" height="74" viewBox="0 0 67 74" fill="none" xmlns="http://www.w3.org/2000/svg">
<path d="M19.2503 44.1389C18.2114 44.1389 17.34 43.7869 16.636 43.0829C15.9344 42.3814 15.5837 41.5111 15.5837 40.4723C15.5837 39.4334 15.9344 38.5619 16.636 37.8579C17.34 37.1564 18.2114 36.8056 19.2503 36.8056C20.2892 36.8056 21.1607 37.1564 21.8647 37.8579C22.5662 38.5619 22.917 39.4334 22.917 40.4723C22.917 41.5111 22.5662 42.3814 21.8647 43.0829C21.1607 43.7869 20.2892 44.1389 19.2503 44.1389ZM33.917 44.1389C32.8781 44.1389 32.0079 43.7869 31.3063 43.0829C30.6023 42.3814 30.2503 41.5111 30.2503 40.4723C30.2503 39.4334 30.6023 38.5619 31.3063 37.8579C32.0079 37.1564 32.8781 36.8056 33.917 36.8056C34.9559 36.8056 35.8273 37.1564 36.5313 37.8579C37.2329 38.5619 37.5837 39.4334 37.5837 40.4723C37.5837 41.5111 37.2329 42.3814 36.5313 43.0829C35.8273 43.7869 34.9559 44.1389 33.917 44.1389ZM48.5837 44.1389C47.5448 44.1389 46.6745 43.7869 45.973 43.0829C45.269 42.3814 44.917 41.5111 44.917 40.4723C44.917 39.4334 45.269 38.5619 45.973 37.8579C46.6745 37.1564 47.5448 36.8056 48.5837 36.8056C49.6226 36.8056 50.4928 37.1564 51.1943 37.8579C51.8983 38.5619 52.2503 39.4334 52.2503 40.4723C52.2503 41.5111 51.8983 42.3814 51.1943 43.0829C50.4928 43.7869 49.6226 44.1389 48.5837 44.1389ZM8.25033 73.4723C6.23366 73.4723 4.50666 72.7548 3.06933 71.3199C1.63444 69.8826 0.916992 68.1556 0.916992 66.1389V14.8056C0.916992 12.7889 1.63444 11.0631 3.06933 9.62825C4.50666 8.19092 6.23366 7.47225 8.25033 7.47225H11.917V0.138916H19.2503V7.47225H48.5837V0.138916H55.917V7.47225H59.5837C61.6003 7.47225 63.3273 8.19092 64.7647 9.62825C66.1995 11.0631 66.917 12.7889 66.917 14.8056V66.1389C66.917 68.1556 66.1995 69.8826 64.7647 71.3199C63.3273 72.7548 61.6003 73.4723 59.5837 73.4723H8.25033ZM8.25033 66.1389H59.5837V29.4722H8.25033V66.1389Z" fill="#ED3237"/>
</svg>
