<svg width="62" height="74" viewBox="0 0 62 74" fill="none" xmlns="http://www.w3.org/2000/svg">
<path d="M61.1927 15.1464L46.8177 0.771416C46.4137 0.366925 45.8656 0.139419 45.2939 0.138916H16.5439C15.2096 0.138916 13.9299 0.668993 12.9863 1.61254C12.0428 2.55608 11.5127 3.8358 11.5127 5.17017V11.6389H5.04395C3.70957 11.6389 2.42986 12.169 1.48631 13.1125C0.542772 14.0561 0.0126953 15.3358 0.0126953 16.6702V68.4202C0.0126953 69.7545 0.542772 71.0343 1.48631 71.9778C2.42986 72.9213 3.70957 73.4514 5.04395 73.4514H45.2939C46.6283 73.4514 47.908 72.9213 48.8516 71.9778C49.7951 71.0343 50.3252 69.7545 50.3252 68.4202V61.9514H56.7939C58.1283 61.9514 59.408 61.4213 60.3516 60.4778C61.2951 59.5343 61.8252 58.2545 61.8252 56.9202V16.6702C61.8247 16.0985 61.5972 15.5504 61.1927 15.1464ZM46.0127 68.4202C46.0127 68.6108 45.937 68.7936 45.8022 68.9284C45.6674 69.0632 45.4846 69.1389 45.2939 69.1389H5.04395C4.85332 69.1389 4.6705 69.0632 4.53571 68.9284C4.40092 68.7936 4.3252 68.6108 4.3252 68.4202V16.6702C4.3252 16.4795 4.40092 16.2967 4.53571 16.1619C4.6705 16.0271 4.85332 15.9514 5.04395 15.9514H32.8991L46.0127 29.065V68.4202ZM57.5127 56.9202C57.5127 57.1108 57.437 57.2936 57.3022 57.4284C57.1674 57.5632 56.9846 57.6389 56.7939 57.6389H50.3252V28.1702C50.3247 27.5985 50.0972 27.0504 49.6927 26.6464L35.3177 12.2714C34.9137 11.8669 34.3656 11.6394 33.7939 11.6389H15.8252V5.17017C15.8252 4.97954 15.9009 4.79672 16.0357 4.66193C16.1705 4.52714 16.3533 4.45142 16.5439 4.45142H44.3991L57.5127 17.565V56.9202ZM35.9502 45.4202C35.9502 45.992 35.723 46.5405 35.3186 46.9449C34.9143 47.3492 34.3658 47.5764 33.7939 47.5764H16.5439C15.9721 47.5764 15.4236 47.3492 15.0192 46.9449C14.6149 46.5405 14.3877 45.992 14.3877 45.4202C14.3877 44.8483 14.6149 44.2998 15.0192 43.8955C15.4236 43.4911 15.9721 43.2639 16.5439 43.2639H33.7939C34.3658 43.2639 34.9143 43.4911 35.3186 43.8955C35.723 44.2998 35.9502 44.8483 35.9502 45.4202ZM35.9502 56.9202C35.9502 57.492 35.723 58.0405 35.3186 58.4449C34.9143 58.8492 34.3658 59.0764 33.7939 59.0764H16.5439C15.9721 59.0764 15.4236 58.8492 15.0192 58.4449C14.6149 58.0405 14.3877 57.492 14.3877 56.9202C14.3877 56.3483 14.6149 55.7998 15.0192 55.3955C15.4236 54.9911 15.9721 54.7639 16.5439 54.7639H33.7939C34.3658 54.7639 34.9143 54.9911 35.3186 55.3955C35.723 55.7998 35.9502 56.3483 35.9502 56.9202Z" fill="#ED3237"/>
</svg>
